<?xml version="1.0" encoding="UTF-8" standalone="no"?>
<!-- Uploaded to: SVG Repo, www.svgrepo.com, Generator: SVG Repo Mixer Tools -->

<svg
   fill="#000000"
   height="800"
   width="800"
   version="1.1"
   id="Layer_1"
   viewBox="0 0 800 800"
   xml:space="preserve"
   xmlns="http://www.w3.org/2000/svg"
   xmlns:svg="http://www.w3.org/2000/svg">
<path
   d="m 400,0 c -13.8,0 -25,12.358621 -25,27.586207 v 27.586207 c 0,15.227586 11.2,27.586207 25,27.586207 13.8,0 25,-12.358621 25,-27.586207 V 27.586207 C 425,12.358621 413.8,0 400,0 Z M 775,468.96552 H 675 c -13.8,0 -25,12.35862 -25,27.5862 0,15.22759 11.2,27.58621 25,27.58621 h 73.425 c -3.9,14.42759 -14.05,27.58621 -21.175,27.58621 H 675 c -13.8,0 -25,12.35862 -25,27.5862 0,15.22759 11.2,27.58621 25,27.58621 h 52.25 c 41.625,0 72.75,-49.65517 72.75,-94.06896 v -16.27587 c 0,-15.22758 -11.2,-27.5862 -25,-27.5862 z M 400,551.72414 H 72.85 c -7.175,0 -17.35,-13.15862 -21.25,-27.58621 H 400 c 13.8,0 25,-12.35862 25,-27.58621 0,-15.22758 -11.2,-27.5862 -25,-27.5862 H 25 c -13.8,0 -25,12.35862 -25,27.5862 v 16.27587 c 0,44.41379 31.15,94.06896 72.85,94.06896 H 400 c 13.8,0 25,-12.35862 25,-27.58621 0,-15.22758 -11.2,-27.5862 -25,-27.5862 z M 704.5,0 H 95.6 C 43.55,0 25,33.103448 25,64.055172 V 496.55172 c 0,15.22759 11.2,27.58621 25,27.58621 13.8,0 25,-12.35862 25,-27.58621 V 64.055172 c 0,-2.427586 0,-8.882758 20.6,-8.882758 h 608.9 c 20.5,0 20.5,6.455172 20.5,8.882758 V 496.55172 c 0,15.22759 11.2,27.58621 25,27.58621 13.8,0 25,-12.35862 25,-27.58621 V 64.055172 C 775,33.103448 756.475,0 704.5,0 Z M 560,682.75862 c -9.5,-10.2069 -26,-10.48276 -35.5,0 -4.75,4.96552 -7.25,12.13793 -7.25,19.58621 0,7.17241 2.5,14.34483 7.25,19.31034 4.75,5.24138 11.25,8.27586 17.75,8.27586 6.5,0 13,-3.03448 17.75,-8.27586 4.5,-5.24138 7.25,-12.13793 7.25,-19.31034 C 567.25,694.89655 564.5,688 560,682.75862 Z M 675,606.89655 H 400 c -13.8,0 -25,12.35862 -25,27.58621 0,15.22758 11.2,27.58621 25,27.58621 h 275 c 13.8,0 25,-12.35863 25,-27.58621 0,-15.22759 -11.2,-27.58621 -25,-27.58621 z M 632.3,220.68966 H 442.7 c -37.325,0 -67.7,33.51724 -67.7,74.70344 V 725.29655 C 375,766.48276 405.375,800 442.7,800 h 189.6 c 37.325,0 67.7,-33.51724 67.7,-74.70345 V 295.3931 c 0,-41.1862 -30.375,-74.70344 -67.7,-74.70344 z M 650,725.29655 c 0,10.78621 -7.925,19.53104 -17.7,19.53104 H 442.7 c -9.775,0 -17.7,-8.74483 -17.7,-19.53104 V 295.3931 c 0,-10.7862 7.925,-19.53103 17.7,-19.53103 h 189.6 c 9.775,0 17.7,8.74483 17.7,19.53103 z"
   id="path2"
   style="stroke-width:1.64133" />
</svg>
