<svg viewBox="0 0 1000 1094" xmlns="http://www.w3.org/2000/svg"><path d="M270 215c57-26 139-43 230-43s173 17 230 43c60 27 83 59 83 82s-23 55-83 82c-57 26-138 43-230 43s-173-17-230-43c-60-27-82-59-82-82s22-55 82-82m543 188v81c0 24-23 55-83 83-57 26-138 42-230 42s-173-16-230-42c-60-28-82-59-82-83v-81c16 13 36 24 56 33 67 30 158 48 256 48s189-18 256-48a313 313 0 0 0 57-33m62-106c0-63-55-110-119-139-67-30-158-49-256-49s-189 19-256 49c-64 29-119 76-119 139v562c0 63 55 110 119 139 67 31 158 49 256 49s189-18 256-49c64-29 119-76 119-139zm-62 294v81c0 23-23 55-83 82-57 26-138 43-230 43s-173-17-230-43c-60-27-82-59-82-82v-81c16 12 36 23 56 32 67 31 158 49 256 49s189-18 256-49a313 313 0 0 0 57-32m0 187v81c0 24-23 55-83 83-57 26-138 43-230 43s-173-17-230-43c-60-28-82-59-82-83v-81c16 13 36 24 56 33 67 30 158 48 256 48s189-18 256-48c20-9 40-20 57-33"/></svg>