<svg viewBox="0 0 1285.7 1094" xmlns="http://www.w3.org/2000/svg"><path d="M357 958l214-107V675l-214 92v191zm-36-254l226-96-226-97-225 97zm608 254l214-107V675l-214 92v191zm-36-254l225-96-225-97-226 97zM643 541l214-92V300l-214 92v149zm-36-212l246-105-246-106-246 106zm607 289v233q0 20-10 37t-29 26l-250 125q-14 8-32 8t-32-8L611 914l-4-2q-1 1-4 2l-250 125q-14 8-32 8t-31-8L40 914q-19-9-29-26T0 851V618q0-21 12-39t32-26l242-104V226q0-22 12-40t31-26L579 53q13-6 28-6t28 6l250 107q20 9 32 26t12 40v223l242 104q20 8 32 26t11 39z"/></svg>