<svg viewBox="0 0 1071.4 1094" xmlns="http://www.w3.org/2000/svg"><path d="M331 547q-90 3-148 71h-75q-45 0-77-22T0 530q0-197 69-197 4 0 25 11t54 24 66 12q38 0 75-13-3 21-3 37 0 78 45 143zm598 356q0 66-41 105t-108 39H292q-68 0-108-39t-41-105q0-30 2-58t8-61 14-61 24-54 35-45 48-30 62-11q6 0 24 12t41 26 59 27 76 12 75-12 60-27 41-26 24-12q34 0 62 11t47 30 35 45 24 54 15 61 8 61 2 58zM357 190q0 59-42 101t-101 42-101-42-42-101 42-101 101-42 101 42 42 101zm393 214q0 89-63 152t-151 62-152-62-63-152 63-151 152-63 151 63 63 151zm321 126q0 43-31 66t-77 22h-75q-57-68-147-71 45-65 45-143 0-16-3-37 37 13 74 13 33 0 67-12t54-24 24-11q69 0 69 197zm-71-340q0 59-42 101t-101 42-101-42-42-101 42-101 101-42 101 42 42 101z"/></svg>