<svg viewBox="0 0 924.3937 1094" xmlns="http://www.w3.org/2000/svg"><path d="M359.173 494a88 88 0 1 1 91-90 90 90 0 0 1-91 90zm558 148l-120-180v-15a400 400 0 0 0-398-400 367 367 0 0 0-95 12 398 398 0 0 0-304 388 365 365 0 0 0 60 212c70 100 117 180 89 288a77 77 0 0 0 15 70 73 73 0 0 0 60 30h326a78 78 0 0 0 79-63 83 83 0 0 0 3-20 40 40 0 0 1 40-34h23a78 78 0 0 0 79-56 688 688 0 0 0 25-160h85a47 47 0 0 0 36-27 48 48 0 0 0-3-45zm-330-140l-17 27a37 37 0 0 1-30 15 40 40 0 0 1-11-2l-44-17a193 193 0 0 1-65 37l-8 48a33 33 0 0 1-33 27h-34a33 33 0 0 1-33-27l-7-48a167 167 0 0 1-61-33l-47 16a40 40 0 0 1-13 2 35 35 0 0 1-29-17l-16-26a32 32 0 0 1 8-42l38-32a168 168 0 0 1-5-35 157 157 0 0 1 5-33l-38-33a32 32 0 0 1-8-42l16-28a33 33 0 0 1 30-17 40 40 0 0 1 12 3l47 17a192 192 0 0 1 61-35l7-47a32 32 0 0 1 33-26h34a32 32 0 0 1 33 25l8 48a188 188 0 0 1 62 33l47-16a40 40 0 0 1 11-4 35 35 0 0 1 30 17l17 27a33 33 0 0 1-8 43l-39 32a160 160 0 0 1 4 35 157 157 0 0 1-4 33l39 32a33 33 0 0 1 8 43z"/></svg>