<svg viewBox="0 0 1141 1094" xmlns="http://www.w3.org/2000/svg"><path d="M703 89l-52 156-52-156q-8-22 3-42t32-28q29-10 54 12t15 58zm280 158l-148 74 74-147q10-20 32-27t42 3q31 16 30 49t-30 48zm85 310l-157-52 157-51q21-8 41 2t29 31q10 29-13 55t-57 15zM394 174l74 147-148-74q-21-10-28-31t3-42q16-32 50-30t49 30zm480 401q75 29 121 94t46 148q0 108-76 185t-184 77H209q-86 0-148-62T0 870q0-73 44-128t112-73v-8q0-62 23-117-30-28-9-67t66-23q95-105 233-105 1 0 4 0t3 1q69-79 175-79 97 0 165 69t69 165q0 36-11 70zM651 375q-55 0-95 42 110 39 154 152 26-8 59-10 12-28 12-54 0-54-38-92t-92-38zm130 286q-7 0-27 4t-30 5q-39 0-49-38-1-1-2-5t0-5q-14-72-70-120t-130-50h-2q-1 2-2 2-86 0-148 60t-61 147q0 15 5 43l13 62-74-1q-40 0-70 31t-30 74 30 73 75 31h572q65 0 111-46t46-111-46-110-111-46z"/></svg>