<svg viewBox="0,0,5000,2689" width="50%" xmlns="http://www.w3.org/2000/svg" xmlns:xlink="http://www.w3.org/1999/xlink"><image xlink:href="https://floorplans.library.leeds.ac.uk//assets/images/edwardboyle-9.png"/><polygon points="3052,203 3509,203 3509,408 3052,408" fill="rgba(0,0,0,0)" cursor="pointer"><title>Wellbeing space</title></polygon><polygon points="2977,812 3087,812 3087,1061 2977,1061" fill="rgba(0,0,0,0)" cursor="pointer"><title>Self Issue Units</title></polygon><polygon points="3353,430 3525,430 3525,659 3353,659" fill="rgba(0,0,0,0)" cursor="pointer"><title>Laptop Loans</title></polygon><polygon points="3353,682 3525,682 3525,758 3353,758" fill="rgba(0,0,0,0)" cursor="pointer"><title>Money Loader</title></polygon><polygon points="3353,781 3525,781 3525,856 3353,856" fill="rgba(0,0,0,0)" cursor="pointer"><title>Change Machine</title></polygon><polygon points="2989,592 3079,592 3079,812 2989,812" fill="rgba(0,0,0,0)" cursor="pointer"><title>Print, Copy, Scan</title></polygon><polygon points="2894,1838 3186,1838 3186,2048 2894,2048" fill="rgba(0,0,0,0)" cursor="pointer"><title>Reception and Enquiry Desk</title></polygon><polygon points="2400,448 2592,448 2592,627 2400,627" fill="rgba(0,0,0,0)" cursor="pointer"><title>Group Booth 9.4</title></polygon><polygon points="844,398 1908,404 1908,1164 1728,1160 1728,1110 856,1112" fill="rgba(0,0,0,0)" cursor="pointer"><title>Makerspace</title></polygon><polygon points="3613,1576 3846,1576 3846,1711 3613,1711" fill="rgba(0,0,0,0)" cursor="pointer"><title>Requested Items Area</title></polygon><polygon points="3040,2067 3188,2067 3188,2122 3040,2122" fill="rgba(0,0,0,0)" cursor="pointer"><title>Day Tickets</title></polygon><polygon points="952,1754 1550,1754 1550,1908 1728,1906 1728,1820 2536,1822 2540,2320 1592,2322 1592,2288 1480,2288 1480,2356 1106,2354 1106,2326 1074,2326 740,2336 738,1946 950,1946" fill="rgba(0,0,0,0)" cursor="pointer"><title>Cafe</title></polygon><polygon points="1600,211 2048,211 2048,399 1600,399" fill="rgba(0,0,0,0)" cursor="pointer"><title>Accessible Study Room 9.3</title></polygon><polygon points="1555,1752 1720,1752 1720,1896 1555,1896" fill="rgba(0,0,0,0)" cursor="pointer"><title>Online Meeting Room 9.8</title></polygon><polygon points="1920,896 2106,896 2106,1168 1920,1168" fill="rgba(0,0,0,0)" cursor="pointer"><title>Accessible Study Room 9.2</title></polygon><polygon points="2117,896 2300,896 2300,1168 2117,1168" fill="rgba(0,0,0,0)" cursor="pointer"><title>Accessible Study Room 9.1</title></polygon><polygon points="1918,404 2380,404 2380,870 1918,870" fill="rgba(0,0,0,0)" cursor="pointer"><title>Group Study Area</title></polygon><polygon points="2400,627 2592,627 2592,800 2400,800" fill="rgba(0,0,0,0)" cursor="pointer"><title>Group Booth 9.5</title></polygon><polygon points="4186,1315 4314,1315 4314,1402 4186,1402" fill="rgba(0,0,0,0)" cursor="pointer"><title>Water Dispenser</title></polygon></svg>