<svg xmlns="http://www.w3.org/2000/svg" width="5077" height="5988" viewBox="0 0 5077 5988">
<g fill="none" stroke="#000000" stroke-width="4.0" stroke-linecap="round" stroke-linejoin="round">
<path d="M 1714.0,379.0 L 1707.0,401.0"/>
<path d="M 3813.0,381.0 L 3819.0,403.0"/>
<path d="M 2594.0,396.0 L 2486.0,396.0 L 2485.0,442.0"/>
<path d="M 2594.0,396.0 L 2639.0,397.0"/>
<path d="M 2594.0,396.0 L 2594.0,442.0"/>
<path d="M 2914.0,396.0 L 2864.0,397.0"/>
<path d="M 2914.0,396.0 L 3021.0,396.0 L 3023.0,398.0 L 3023.0,442.0"/>
<path d="M 2914.0,396.0 L 2914.0,442.0"/>
<path d="M 1707.0,401.0 L 1699.0,402.0 L 1686.0,408.0 L 1589.0,463.0 L 1516.0,509.0 L 1460.0,547.0 L 1383.0,603.0 L 1316.0,656.0 L 1239.0,723.0 L 1237.0,730.0"/>
<path d="M 1707.0,401.0 L 1710.0,401.0"/>
<path d="M 1710.0,401.0 L 1718.0,400.0 L 1723.0,402.0"/>
<path d="M 1710.0,401.0 L 1715.0,407.0 L 1716.0,413.0 L 2053.0,1066.0 L 2070.0,1102.0"/>
<path d="M 3819.0,403.0 L 3827.0,404.0 L 3838.0,409.0 L 3918.0,454.0 L 3991.0,499.0 L 4051.0,539.0 L 4151.0,612.0 L 4250.0,693.0 L 4342.0,777.0 L 4445.0,883.0 L 4531.0,983.0 L 4617.0,1096.0 L 4695.0,1213.0 L 4754.0,1313.0 L 4810.0,1420.0 L 4872.0,1559.0 L 4916.0,1677.0 L 4957.0,1809.0 L 4986.0,1926.0 L 5014.0,2079.0 L 5028.0,2192.0 L 5038.0,2343.0 L 5038.0,2491.0 L 5029.0,2631.0 L 5015.0,2749.0 L 4988.0,2899.0 L 4959.0,3018.0 L 4924.0,3133.0 L 4884.0,3245.0 L 4828.0,3376.0 L 4769.0,3494.0 L 4701.0,3612.0 L 4626.0,3726.0 L 4577.0,3793.0 L 4525.0,3859.0 L 4467.0,3927.0 L 4412.0,3987.0 L 4372.0,4027.0 L 4365.0,4029.0"/>
<path d="M 3819.0,403.0 L 3816.0,404.0"/>
<path d="M 3804.0,404.0 L 3809.0,402.0 L 3815.0,402.0 L 3816.0,404.0"/>
<path d="M 3816.0,404.0 L 3812.0,408.0 L 3804.0,427.0 L 3750.0,525.0 L 3745.0,540.0"/>
<path d="M 2485.0,442.0 L 2594.0,442.0"/>
<path d="M 2485.0,442.0 L 2485.0,487.0"/>
<path d="M 2594.0,442.0 L 2594.0,487.0"/>
<path d="M 2914.0,442.0 L 3023.0,442.0"/>
<path d="M 2914.0,442.0 L 2914.0,487.0"/>
<path d="M 3023.0,442.0 L 3023.0,487.0"/>
<path d="M 2485.0,487.0 L 2594.0,487.0"/>
<path d="M 2485.0,487.0 L 2485.0,532.0"/>
<path d="M 2594.0,487.0 L 2593.0,532.0"/>
<path d="M 2914.0,487.0 L 3023.0,487.0"/>
<path d="M 2914.0,487.0 L 2914.0,532.0"/>
<path d="M 3023.0,487.0 L 3023.0,532.0"/>
<path d="M 2485.0,532.0 L 2593.0,532.0"/>
<path d="M 2485.0,532.0 L 2485.0,577.0"/>
<path d="M 2593.0,532.0 L 2593.0,577.0"/>
<path d="M 2914.0,532.0 L 3023.0,532.0"/>
<path d="M 2914.0,532.0 L 2914.0,577.0"/>
<path d="M 3023.0,532.0 L 3023.0,577.0"/>
<path d="M 3745.0,540.0 L 3739.0,543.0 L 3451.0,1079.0 L 3446.0,1089.0 L 3444.0,1098.0"/>
<path d="M 3745.0,540.0 L 3841.0,593.0 L 3948.0,661.0 L 4062.0,744.0 L 4077.0,757.0 L 4079.0,763.0"/>
<path d="M 2485.0,577.0 L 2593.0,577.0"/>
<path d="M 2485.0,577.0 L 2485.0,622.0"/>
<path d="M 2593.0,577.0 L 2593.0,622.0"/>
<path d="M 2914.0,577.0 L 3023.0,577.0"/>
<path d="M 2914.0,577.0 L 2914.0,622.0"/>
<path d="M 3023.0,577.0 L 3023.0,622.0"/>
<path d="M 2485.0,622.0 L 2593.0,622.0"/>
<path d="M 2485.0,622.0 L 2485.0,668.0"/>
<path d="M 2593.0,622.0 L 2593.0,668.0 L 2485.0,668.0"/>
<path d="M 2914.0,622.0 L 3023.0,622.0"/>
<path d="M 2914.0,622.0 L 2915.0,668.0 L 3023.0,668.0"/>
<path d="M 3023.0,622.0 L 3023.0,668.0"/>
<path d="M 2485.0,668.0 L 2485.0,959.0"/>
<path d="M 3023.0,668.0 L 3023.0,956.0"/>
<path d="M 1237.0,730.0 L 1227.0,733.0 L 1176.0,781.0 L 1112.0,846.0 L 1110.0,854.0"/>
<path d="M 1237.0,730.0 L 1751.0,1327.0"/>
<path d="M 4079.0,763.0 L 3689.0,1256.0"/>
<path d="M 4079.0,763.0 L 4088.0,765.0 L 4170.0,834.0 L 4221.0,881.0 L 4296.0,956.0 L 4377.0,1046.0 L 4444.0,1129.0 L 4514.0,1226.0 L 4559.0,1295.0 L 4598.0,1360.0 L 4625.0,1409.0 L 4627.0,1420.0"/>
<path d="M 1110.0,854.0 L 1103.0,856.0 L 1067.0,894.0 L 1025.0,942.0 L 966.0,1014.0 L 886.0,1123.0 L 822.0,1220.0 L 754.0,1338.0 L 698.0,1449.0 L 652.0,1554.0 L 606.0,1675.0 L 570.0,1790.0 L 536.0,1925.0 L 517.0,2019.0 L 498.0,2152.0 L 488.0,2255.0 L 483.0,2376.0 L 485.0,2523.0 L 489.0,2592.0 L 496.0,2665.0 L 511.0,2779.0 L 535.0,2905.0 L 566.0,3030.0 L 606.0,3159.0 L 651.0,3278.0 L 695.0,3379.0 L 749.0,3487.0 L 809.0,3593.0 L 880.0,3703.0 L 948.0,3797.0 L 1022.0,3889.0 L 1095.0,3971.0 L 1188.0,4065.0 L 1259.0,4130.0 L 1313.0,4176.0 L 1380.0,4229.0 L 1448.0,4279.0 L 1487.0,4305.0 L 1491.0,4310.0 L 1498.0,4328.0"/>
<path d="M 1110.0,854.0 L 1216.0,958.0 L 1217.0,964.0 L 1213.0,971.0 L 1141.0,1051.0 L 1082.0,1124.0 L 1026.0,1200.0 L 970.0,1283.0 L 928.0,1352.0 L 877.0,1445.0 L 826.0,1551.0 L 789.0,1639.0 L 755.0,1731.0 L 720.0,1842.0 L 695.0,1941.0 L 676.0,2032.0 L 661.0,2127.0 L 649.0,2238.0 L 643.0,2333.0 L 642.0,2418.0"/>
<path d="M 2869.0,933.0 L 2873.0,939.0"/>
<path d="M 2691.0,939.0 L 2663.0,940.0 L 2659.0,938.0 L 2600.0,943.0 L 2485.0,959.0"/>
<path d="M 2822.0,939.0 L 2871.0,941.0 L 2873.0,939.0"/>
<path d="M 2873.0,939.0 L 2940.0,945.0 L 3011.0,956.0 L 3023.0,956.0"/>
<path d="M 3023.0,956.0 L 3027.0,959.0 L 3103.0,974.0 L 3199.0,1000.0"/>
<path d="M 2485.0,959.0 L 2483.0,961.0 L 2423.0,973.0 L 2340.0,995.0"/>
<path d="M 2335.0,992.0 L 2340.0,995.0"/>
<path d="M 2340.0,995.0 L 2337.0,1002.0"/>
<path d="M 3204.0,998.0 L 3199.0,1000.0"/>
<path d="M 3199.0,1000.0 L 3201.0,1004.0"/>
<path d="M 2213.0,1033.0 L 2210.0,1041.0"/>
<path d="M 3318.0,1036.0 L 3321.0,1045.0"/>
<path d="M 2210.0,1041.0 L 2145.0,1068.0 L 2081.0,1100.0 L 2070.0,1102.0"/>
<path d="M 2210.0,1041.0 L 2217.0,1044.0"/>
<path d="M 3321.0,1045.0 L 3379.0,1069.0 L 3433.0,1096.0 L 3444.0,1098.0"/>
<path d="M 3321.0,1045.0 L 3315.0,1048.0"/>
<path d="M 3444.0,1098.0 L 3447.0,1103.0 L 3501.0,1132.0 L 3568.0,1173.0 L 3625.0,1212.0 L 3677.0,1252.0 L 3689.0,1256.0"/>
<path d="M 2070.0,1102.0 L 2066.0,1108.0 L 1991.0,1150.0 L 1916.0,1199.0 L 1827.0,1266.0 L 1761.0,1324.0 L 1751.0,1327.0"/>
<path d="M 2767.0,1106.0 L 2685.0,1109.0 L 2622.0,1114.0 L 2526.0,1126.0 L 2470.0,1136.0 L 2406.0,1151.0 L 2340.0,1170.0 L 2289.0,1188.0 L 2245.0,1206.0 L 2189.0,1233.0 L 2124.0,1269.0 L 2040.0,1322.0 L 1987.0,1359.0 L 1923.0,1409.0 L 1874.0,1452.0 L 1810.0,1515.0 L 1791.0,1536.0 L 1789.0,1543.0"/>
<path d="M 2767.0,1106.0 L 2816.0,1107.0 L 2876.0,1111.0 L 2941.0,1118.0 L 2998.0,1127.0 L 3056.0,1139.0 L 3103.0,1151.0 L 3191.0,1178.0 L 3242.0,1197.0 L 3299.0,1221.0 L 3395.0,1269.0 L 3467.0,1312.0 L 3513.0,1343.0 L 3572.0,1387.0 L 3658.0,1461.0 L 3729.0,1533.0 L 3798.0,1615.0 L 3832.0,1661.0 L 3863.0,1707.0 L 3889.0,1749.0 L 3922.0,1808.0 L 3948.0,1860.0 L 3972.0,1914.0 L 3993.0,1968.0 L 4013.0,2027.0 L 4030.0,2087.0 L 4031.0,2102.0"/>
<path d="M 2767.0,1106.0 L 2767.0,2075.0"/>
<path d="M 3689.0,1256.0 L 3690.0,1261.0 L 3757.0,1319.0 L 3827.0,1387.0 L 3899.0,1467.0 L 3942.0,1521.0 L 3979.0,1572.0 L 4023.0,1639.0 L 4064.0,1711.0 L 4071.0,1715.0"/>
<path d="M 1751.0,1327.0 L 1748.0,1336.0 L 1685.0,1398.0 L 1629.0,1460.0 L 1590.0,1508.0 L 1545.0,1569.0 L 1504.0,1630.0 L 1470.0,1687.0 L 1443.0,1737.0 L 1403.0,1821.0 L 1374.0,1892.0 L 1351.0,1957.0 L 1326.0,2041.0 L 1310.0,2109.0 L 1296.0,2185.0 L 1286.0,2264.0 L 1280.0,2343.0 L 1278.0,2418.0"/>
<path d="M 4627.0,1420.0 L 4615.0,1424.0 L 4096.0,1703.0 L 4071.0,1715.0"/>
<path d="M 4627.0,1420.0 L 4634.0,1425.0 L 4679.0,1514.0 L 4709.0,1581.0 L 4738.0,1652.0 L 4786.0,1790.0 L 4810.0,1874.0 L 4815.0,1901.0"/>
<path d="M 1789.0,1543.0 L 1783.0,1545.0 L 1770.0,1559.0 L 1709.0,1635.0 L 1661.0,1703.0 L 1613.0,1783.0 L 1569.0,1870.0 L 1537.0,1946.0 L 1507.0,2033.0 L 1496.0,2071.0 L 1495.0,2081.0"/>
<path d="M 1789.0,1543.0 L 2504.0,2187.0"/>
<path d="M 4071.0,1715.0 L 4073.0,1727.0 L 4108.0,1797.0 L 4146.0,1887.0 L 4174.0,1967.0 L 4190.0,2021.0 L 4198.0,2055.0 L 4200.0,2057.0"/>
<path d="M 4815.0,1901.0 L 4221.0,2053.0 L 4200.0,2057.0"/>
<path d="M 4815.0,1901.0 L 4817.0,1902.0 L 4833.0,1971.0 L 4846.0,2037.0 L 4859.0,2117.0 L 4873.0,2239.0 L 4879.0,2347.0 L 4879.0,2488.0 L 4872.0,2607.0 L 4856.0,2738.0 L 4853.0,2749.0 L 4847.0,2794.0 L 4832.0,2868.0 L 4814.0,2945.0 L 4794.0,3018.0 L 4752.0,3145.0 L 4721.0,3225.0 L 4676.0,3326.0 L 4623.0,3430.0 L 4550.0,3554.0 L 4470.0,3671.0 L 4429.0,3725.0 L 4363.0,3805.0 L 4308.0,3866.0 L 4262.0,3912.0 L 4262.0,3922.0 L 4365.0,4029.0"/>
<path d="M 4200.0,2057.0 L 4226.0,2190.0 L 4238.0,2287.0 L 4243.0,2385.0 L 4243.0,2450.0 L 4240.0,2521.0 L 4235.0,2577.0 L 4224.0,2657.0 L 4204.0,2758.0 L 4176.0,2861.0 L 4143.0,2955.0 L 4102.0,3050.0 L 4075.0,3104.0 L 4042.0,3164.0 L 3981.0,3260.0 L 3916.0,3347.0 L 3842.0,3432.0 L 3761.0,3512.0 L 3691.0,3572.0 L 3630.0,3619.0 L 3580.0,3654.0 L 3576.0,3662.0"/>
<path d="M 2767.0,2075.0 L 2719.0,2076.0 L 2697.0,2081.0 L 2688.0,2081.0 L 2634.0,2099.0 L 2588.0,2122.0 L 2565.0,2137.0 L 2538.0,2158.0 L 2512.0,2184.0 L 2504.0,2187.0"/>
<path d="M 2767.0,2075.0 L 2821.0,2080.0 L 2874.0,2094.0 L 2899.0,2104.0 L 2929.0,2119.0 L 2956.0,2136.0 L 2977.0,2152.0 L 3020.0,2194.0 L 3051.0,2236.0 L 3077.0,2286.0 L 3089.0,2320.0 L 3092.0,2335.0 L 3095.0,2340.0"/>
<path d="M 1495.0,2081.0 L 1493.0,2082.0 L 1483.0,2122.0 L 1467.0,2202.0 L 1457.0,2278.0 L 1452.0,2340.0 L 1450.0,2383.0 L 1451.0,2477.0 L 1456.0,2546.0 L 1463.0,2608.0 L 1476.0,2681.0 L 1490.0,2741.0 L 1510.0,2811.0 L 1529.0,2867.0 L 1556.0,2935.0 L 1590.0,3008.0 L 1634.0,3088.0 L 1641.0,3097.0 L 1645.0,3098.0"/>
<path d="M 1495.0,2081.0 L 1518.0,2085.0 L 2323.0,2302.0 L 2429.0,2329.0"/>
<path d="M 4031.0,2102.0 L 4010.0,2106.0 L 3095.0,2340.0"/>
<path d="M 4031.0,2102.0 L 4034.0,2103.0 L 4050.0,2178.0 L 4066.0,2290.0 L 4071.0,2368.0 L 4071.0,2467.0 L 4069.0,2508.0 L 4058.0,2608.0 L 4036.0,2723.0 L 4009.0,2820.0 L 3991.0,2872.0 L 3968.0,2930.0 L 3941.0,2989.0 L 3918.0,3034.0 L 3861.0,3131.0 L 3807.0,3208.0 L 3735.0,3295.0 L 3665.0,3367.0 L 3621.0,3407.0 L 3574.0,3446.0 L 3529.0,3480.0 L 3472.0,3519.0 L 3416.0,3553.0 L 3404.0,3556.0"/>
<path d="M 2504.0,2187.0 L 2501.0,2196.0 L 2482.0,2219.0 L 2459.0,2256.0 L 2439.0,2301.0 L 2432.0,2326.0 L 2429.0,2329.0"/>
<path d="M 2429.0,2329.0 L 2428.0,2341.0 L 2423.0,2361.0 L 2419.0,2403.0 L 2421.0,2459.0 L 2427.0,2493.0 L 2434.0,2518.0 L 2449.0,2558.0 L 2466.0,2590.0 L 2467.0,2598.0"/>
<path d="M 3095.0,2340.0 L 3102.0,2390.0 L 3102.0,2444.0 L 3093.0,2499.0 L 3087.0,2521.0 L 3075.0,2553.0 L 3047.0,2605.0 L 3019.0,2642.0 L 2979.0,2681.0 L 2958.0,2697.0 L 2933.0,2712.0 L 2930.0,2718.0"/>
<path d="M 642.0,2418.0 L 1278.0,2418.0"/>
<path d="M 642.0,2418.0 L 642.0,2474.0 L 646.0,2556.0 L 660.0,2700.0 L 681.0,2828.0 L 711.0,2958.0 L 742.0,3064.0 L 783.0,3180.0 L 811.0,3249.0 L 840.0,3314.0 L 898.0,3429.0 L 968.0,3548.0 L 1039.0,3653.0 L 1127.0,3767.0 L 1218.0,3870.0 L 1323.0,3974.0 L 1422.0,4060.0 L 1510.0,4128.0 L 1571.0,4171.0 L 1624.0,4205.0 L 1628.0,4210.0"/>
<path d="M 1278.0,2418.0 L 1281.0,2509.0 L 1291.0,2614.0 L 1306.0,2706.0 L 1327.0,2796.0 L 1361.0,2907.0 L 1393.0,2990.0 L 1422.0,3055.0 L 1448.0,3107.0 L 1482.0,3168.0 L 1532.0,3247.0 L 1595.0,3333.0 L 1669.0,3420.0 L 1743.0,3495.0 L 1807.0,3552.0 L 1871.0,3603.0 L 1968.0,3670.0 L 2049.0,3717.0 L 2052.0,3723.0"/>
<path d="M 2467.0,2598.0 L 2475.0,2604.0 L 2505.0,2644.0 L 2534.0,2673.0 L 2551.0,2687.0 L 2593.0,2715.0 L 2625.0,2731.0 L 2650.0,2740.0 L 2656.0,2746.0 L 2732.0,2758.0 L 2793.0,2758.0 L 2835.0,2752.0"/>
<path d="M 2467.0,2598.0 L 1655.0,3094.0 L 1645.0,3098.0"/>
<path d="M 2930.0,2718.0 L 2919.0,2720.0 L 2888.0,2735.0 L 2869.0,2741.0 L 2865.0,2746.0 L 2841.0,2749.0 L 2835.0,2752.0"/>
<path d="M 2930.0,2718.0 L 2934.0,2728.0 L 3394.0,3535.0 L 3404.0,3556.0"/>
<path d="M 2835.0,2752.0 L 2836.0,2764.0 L 3043.0,3696.0"/>
<path d="M 1645.0,3098.0 L 1647.0,3109.0 L 1679.0,3158.0 L 1719.0,3213.0 L 1750.0,3252.0 L 1800.0,3309.0 L 1868.0,3377.0 L 1899.0,3405.0 L 1981.0,3471.0 L 2071.0,3532.0 L 2163.0,3584.0 L 2255.0,3627.0 L 2303.0,3646.0 L 2367.0,3668.0 L 2442.0,3689.0 L 2525.0,3707.0 L 2541.0,3709.0 L 2543.0,3711.0 L 2642.0,3723.0 L 2705.0,3727.0 L 2816.0,3727.0 L 2855.0,3725.0 L 2971.0,3712.0 L 3041.0,3698.0 L 3043.0,3696.0"/>
<path d="M 3404.0,3556.0 L 3400.0,3562.0 L 3363.0,3582.0 L 3308.0,3609.0 L 3240.0,3638.0 L 3194.0,3655.0 L 3122.0,3678.0 L 3055.0,3695.0 L 3043.0,3696.0"/>
<path d="M 3576.0,3662.0 L 3565.0,3664.0 L 3500.0,3704.0 L 3475.0,3717.0 L 3472.0,3717.0"/>
<path d="M 3576.0,3662.0 L 3986.0,4310.0 L 3990.0,4319.0 L 3997.0,4326.0"/>
<path d="M 3470.0,3712.0 L 3470.0,3714.0"/>
<path d="M 3468.0,3713.0 L 3470.0,3714.0"/>
<path d="M 3470.0,3714.0 L 3472.0,3717.0"/>
<path d="M 3464.0,3715.0 L 3464.0,3717.0"/>
<path d="M 3462.0,3716.0 L 3464.0,3717.0"/>
<path d="M 3464.0,3717.0 L 3466.0,3721.0"/>
<path d="M 3472.0,3717.0 L 3469.0,3721.0 L 3466.0,3721.0"/>
<path d="M 3466.0,3721.0 L 3463.0,3724.0 L 3386.0,3761.0 L 3302.0,3797.0 L 3298.0,3802.0"/>
<path d="M 2052.0,3723.0 L 2064.0,3725.0 L 2128.0,3758.0 L 2162.0,3773.0 L 2165.0,3778.0"/>
<path d="M 2052.0,3723.0 L 2051.0,3728.0 L 1701.0,4411.0 L 1699.0,4419.0 L 1693.0,4426.0"/>
<path d="M 2165.0,3778.0 L 2162.0,3789.0 L 2136.0,3849.0 L 2133.0,3865.0"/>
<path d="M 2165.0,3778.0 L 2178.0,3780.0 L 2233.0,3803.0 L 2304.0,3828.0 L 2389.0,3852.0 L 2394.0,3861.0"/>
<path d="M 3298.0,3802.0 L 3284.0,3804.0 L 3202.0,3833.0 L 3136.0,3851.0 L 3131.0,3855.0 L 3128.0,3861.0"/>
<path d="M 3298.0,3802.0 L 3301.0,3813.0 L 3318.0,3852.0 L 3320.0,3865.0"/>
<path d="M 2394.0,3861.0 L 2399.0,3861.0"/>
<path d="M 2394.0,3861.0 L 2390.0,3865.0 L 2354.0,3865.0"/>
<path d="M 2399.0,3861.0 L 2440.0,3865.0 L 2445.0,3867.0"/>
<path d="M 2399.0,3861.0 L 2399.0,4001.0"/>
<path d="M 3128.0,3861.0 L 3087.0,3865.0"/>
<path d="M 3128.0,3861.0 L 3132.0,3865.0"/>
<path d="M 2133.0,3865.0 L 2128.0,3868.0 L 2091.0,3956.0 L 2090.0,3963.0"/>
<path d="M 2133.0,3865.0 L 2309.0,3865.0"/>
<path d="M 2309.0,3865.0 L 2354.0,3865.0"/>
<path d="M 2309.0,3865.0 L 2309.0,3999.0 L 2311.0,4002.0"/>
<path d="M 2354.0,3865.0 L 2354.0,4001.0"/>
<path d="M 3087.0,3865.0 L 3072.0,3866.0 L 3008.0,3879.0 L 2931.0,3890.0"/>
<path d="M 3087.0,3865.0 L 3087.0,4001.0"/>
<path d="M 3132.0,3865.0 L 3178.0,3865.0"/>
<path d="M 3132.0,3865.0 L 3132.0,4001.0"/>
<path d="M 3178.0,3865.0 L 3320.0,3865.0"/>
<path d="M 3178.0,3865.0 L 3177.0,4001.0"/>
<path d="M 3320.0,3865.0 L 3326.0,3871.0 L 3346.0,3919.0 L 3347.0,3927.0"/>
<path d="M 2445.0,3867.0 L 2455.0,3867.0 L 2539.0,3883.0 L 2602.0,3891.0"/>
<path d="M 2445.0,3867.0 L 2445.0,4001.0"/>
<path d="M 2931.0,3890.0 L 2869.0,3896.0 L 2805.0,3899.0 L 2688.0,3898.0 L 2602.0,3891.0"/>
<path d="M 2931.0,3890.0 L 2931.0,4003.0"/>
<path d="M 2602.0,3891.0 L 2602.0,4003.0"/>
<path d="M 3347.0,3927.0 L 3196.0,3997.0 L 3186.0,4000.0 L 3182.0,4004.0"/>
<path d="M 3347.0,3927.0 L 3351.0,3931.0 L 3364.0,3962.0 L 3365.0,3969.0"/>
<path d="M 2090.0,3963.0 L 2087.0,3966.0 L 2078.0,3987.0 L 2073.0,4005.0"/>
<path d="M 2090.0,3963.0 L 2093.0,3966.0 L 2105.0,3970.0 L 2284.0,4051.0"/>
<path d="M 3365.0,3969.0 L 3208.0,4041.0 L 3205.0,4041.0 L 3201.0,4045.0"/>
<path d="M 3365.0,3969.0 L 3369.0,3974.0 L 3379.0,3998.0 L 3382.0,4011.0"/>
<path d="M 2354.0,4001.0 L 2321.0,4002.0"/>
<path d="M 2354.0,4001.0 L 2399.0,4001.0"/>
<path d="M 2399.0,4001.0 L 2445.0,4001.0"/>
<path d="M 2445.0,4001.0 L 2445.0,4003.0"/>
<path d="M 3087.0,4001.0 L 3132.0,4001.0"/>
<path d="M 3087.0,4001.0 L 3087.0,4003.0"/>
<path d="M 3132.0,4001.0 L 3165.0,4001.0"/>
<path d="M 3165.0,4001.0 L 3177.0,4001.0"/>
<path d="M 3165.0,4001.0 L 3165.0,4251.0 L 3292.0,4251.0"/>
<path d="M 3177.0,4001.0 L 3178.0,4003.0 L 3182.0,4004.0"/>
<path d="M 2311.0,4002.0 L 2321.0,4002.0"/>
<path d="M 2311.0,4002.0 L 2307.0,4005.0 L 2290.0,4043.0 L 2284.0,4051.0"/>
<path d="M 2321.0,4002.0 L 2321.0,4251.0 L 2196.0,4252.0"/>
<path d="M 2445.0,4003.0 L 2601.0,4003.0"/>
<path d="M 2445.0,4003.0 L 2445.0,4048.0"/>
<path d="M 2601.0,4003.0 L 2602.0,4003.0"/>
<path d="M 2601.0,4003.0 L 2601.0,4048.0"/>
<path d="M 2602.0,4003.0 L 2931.0,4003.0"/>
<path d="M 2931.0,4003.0 L 3087.0,4003.0"/>
<path d="M 2931.0,4003.0 L 2931.0,4048.0"/>
<path d="M 3087.0,4003.0 L 3086.0,4048.0"/>
<path d="M 3182.0,4004.0 L 3183.0,4013.0 L 3197.0,4042.0 L 3201.0,4045.0"/>
<path d="M 2073.0,4005.0 L 2068.0,4011.0 L 2056.0,4040.0 L 2055.0,4047.0"/>
<path d="M 2073.0,4005.0 L 2076.0,4008.0 L 2084.0,4010.0 L 2265.0,4092.0"/>
<path d="M 3382.0,4011.0 L 3220.0,4085.0"/>
<path d="M 3382.0,4011.0 L 3386.0,4015.0 L 3399.0,4046.0 L 3399.0,4052.0"/>
<path d="M 4365.0,4029.0 L 4363.0,4036.0 L 4301.0,4096.0 L 4247.0,4144.0 L 4182.0,4198.0 L 4109.0,4254.0 L 4050.0,4296.0 L 4011.0,4322.0 L 3997.0,4326.0"/>
<path d="M 3201.0,4045.0 L 3202.0,4053.0 L 3216.0,4083.0 L 3220.0,4085.0"/>
<path d="M 2055.0,4047.0 L 2052.0,4049.0 L 2039.0,4080.0 L 2038.0,4088.0"/>
<path d="M 2055.0,4047.0 L 2058.0,4050.0 L 2063.0,4050.0 L 2238.0,4130.0 L 2241.0,4130.0 L 2245.0,4134.0"/>
<path d="M 2445.0,4048.0 L 2601.0,4048.0"/>
<path d="M 2445.0,4048.0 L 2445.0,4093.0"/>
<path d="M 2601.0,4048.0 L 2931.0,4048.0"/>
<path d="M 2601.0,4048.0 L 2601.0,4093.0"/>
<path d="M 2931.0,4048.0 L 3086.0,4048.0"/>
<path d="M 2931.0,4048.0 L 2931.0,4093.0"/>
<path d="M 3086.0,4048.0 L 3086.0,4093.0"/>
<path d="M 2284.0,4051.0 L 2283.0,4058.0 L 2268.0,4090.0 L 2265.0,4092.0"/>
<path d="M 3399.0,4052.0 L 3404.0,4058.0 L 3416.0,4087.0 L 3417.0,4094.0"/>
<path d="M 3399.0,4052.0 L 3396.0,4055.0 L 3393.0,4055.0 L 3239.0,4126.0"/>
<path d="M 3220.0,4085.0 L 3221.0,4094.0 L 3236.0,4125.0 L 3239.0,4126.0"/>
<path d="M 2038.0,4088.0 L 2035.0,4090.0 L 1867.0,4490.0 L 1865.0,4499.0 L 1860.0,4506.0"/>
<path d="M 2038.0,4088.0 L 2041.0,4091.0 L 2219.0,4171.0 L 2222.0,4171.0 L 2226.0,4175.0"/>
<path d="M 2265.0,4092.0 L 2264.0,4098.0 L 2248.0,4132.0 L 2245.0,4134.0"/>
<path d="M 2445.0,4093.0 L 2601.0,4093.0"/>
<path d="M 2445.0,4093.0 L 2446.0,4139.0 L 2601.0,4138.0"/>
<path d="M 2601.0,4093.0 L 2931.0,4093.0"/>
<path d="M 2601.0,4093.0 L 2601.0,4138.0"/>
<path d="M 2931.0,4093.0 L 3086.0,4093.0"/>
<path d="M 2931.0,4093.0 L 2931.0,4138.0"/>
<path d="M 3086.0,4093.0 L 3086.0,4139.0 L 2931.0,4138.0"/>
<path d="M 3417.0,4094.0 L 3258.0,4167.0"/>
<path d="M 3417.0,4094.0 L 3421.0,4098.0 L 3435.0,4136.0"/>
<path d="M 3239.0,4126.0 L 3240.0,4134.0 L 3255.0,4166.0 L 3258.0,4167.0"/>
<path d="M 2245.0,4134.0 L 2244.0,4141.0 L 2230.0,4171.0 L 2226.0,4175.0"/>
<path d="M 3435.0,4136.0 L 3277.0,4207.0"/>
<path d="M 3435.0,4136.0 L 3439.0,4141.0 L 3450.0,4168.0 L 3452.0,4178.0"/>
<path d="M 2601.0,4138.0 L 2931.0,4138.0"/>
<path d="M 3258.0,4167.0 L 3260.0,4177.0 L 3274.0,4206.0 L 3277.0,4207.0"/>
<path d="M 2226.0,4175.0 L 2222.0,4188.0 L 2199.0,4235.0 L 2196.0,4252.0"/>
<path d="M 3452.0,4178.0 L 3305.0,4245.0 L 3301.0,4245.0 L 3295.0,4251.0"/>
<path d="M 3452.0,4178.0 L 3455.0,4179.0 L 3459.0,4192.0 L 3593.0,4511.0 L 3596.0,4523.0 L 3602.0,4531.0"/>
<path d="M 3277.0,4207.0 L 3278.0,4215.0 L 3290.0,4239.0 L 3292.0,4251.0"/>
<path d="M 1636.0,4208.0 L 1628.0,4210.0"/>
<path d="M 1628.0,4210.0 L 1625.0,4221.0 L 1565.0,4325.0 L 1559.0,4339.0"/>
<path d="M 3292.0,4251.0 L 3295.0,4251.0"/>
<path d="M 3295.0,4251.0 L 3300.0,4256.0 L 3305.0,4258.0"/>
<path d="M 2196.0,4252.0 L 2182.0,4258.0"/>
<path d="M 3997.0,4326.0 L 3991.0,4335.0 L 3943.0,4365.0 L 3885.0,4399.0 L 3806.0,4442.0 L 3676.0,4504.0 L 3619.0,4528.0 L 3603.0,4531.0"/>
<path d="M 1498.0,4328.0 L 1492.0,4333.0 L 1463.0,4346.0"/>
<path d="M 1498.0,4328.0 L 1544.0,4339.0 L 1559.0,4339.0"/>
<path d="M 1559.0,4339.0 L 1564.0,4344.0 L 1574.0,4346.0"/>
<path d="M 1630.0,4379.0 L 1643.0,4408.0"/>
<path d="M 1643.0,4408.0 L 1661.0,4412.0 L 1682.0,4424.0 L 1693.0,4426.0"/>
<path d="M 1643.0,4408.0 L 1639.0,4413.0 L 1630.0,4454.0"/>
<path d="M 1693.0,4426.0 L 1695.0,4431.0 L 1733.0,4451.0 L 1736.0,4451.0 L 1846.0,4504.0 L 1858.0,4506.0"/>
<path d="M 1874.0,4503.0 L 1868.0,4506.0 L 1860.0,4506.0"/>
<path d="M 1858.0,4506.0 L 1860.0,4506.0"/>
<path d="M 1858.0,4506.0 L 1866.0,4525.0"/>
<path d="M 3586.0,4527.0 L 3593.0,4531.0 L 3602.0,4531.0"/>
<path d="M 3602.0,4531.0 L 3603.0,4531.0"/>
<path d="M 3603.0,4531.0 L 3596.0,4547.0"/>
<path d="M 1914.0,5299.0 L 1914.0,5263.0 L 1919.0,5257.0 L 2176.0,5142.0 L 2186.0,5139.0 L 2204.0,5146.0 L 2440.0,5259.0 L 2444.0,5264.0 L 2444.0,5299.0"/>
<path d="M 1914.0,5299.0 L 2444.0,5299.0"/>
<path d="M 1914.0,5299.0 L 1914.0,5417.0"/>
<path d="M 2444.0,5299.0 L 2444.0,5418.0"/>
<path d="M 1914.0,5417.0 L 1514.0,5418.0 L 1512.0,5412.0 L 1511.0,5388.0 L 1507.0,5362.0 L 1491.0,5312.0 L 1470.0,5274.0 L 1452.0,5252.0 L 1435.0,5236.0 L 1403.0,5215.0 L 1366.0,5200.0 L 1318.0,5191.0 L 1258.0,5191.0 L 1218.0,5198.0 L 1185.0,5209.0 L 1151.0,5228.0 L 1137.0,5239.0 L 1119.0,5257.0 L 1097.0,5288.0 L 1078.0,5330.0 L 1067.0,5380.0 L 1065.0,5413.0 L 839.0,5413.0 L 838.0,5540.0"/>
<path d="M 1914.0,5417.0 L 1915.0,5418.0"/>
<path d="M 1915.0,5418.0 L 2444.0,5418.0"/>
<path d="M 1915.0,5418.0 L 1914.0,5540.0"/>
<path d="M 2444.0,5418.0 L 2444.0,5540.0"/>
<path d="M 838.0,5540.0 L 1030.0,5540.0"/>
<path d="M 838.0,5540.0 L 838.0,5603.0 L 776.0,5604.0 L 775.0,5370.0 L 704.0,5368.0 L 704.0,5147.0 L 693.0,5145.0 L 693.0,5094.0 L 691.0,5092.0 L 677.0,5091.0 L 677.0,5039.0 L 664.0,5037.0 L 664.0,5002.0 L 644.0,5000.0 L 644.0,4970.0 L 623.0,4968.0 L 623.0,4937.0 L 620.0,4934.0 L 591.0,4926.0 L 561.0,4934.0 L 558.0,4937.0 L 558.0,4968.0 L 538.0,4969.0 L 537.0,5000.0 L 517.0,5002.0 L 517.0,5037.0 L 504.0,5039.0 L 504.0,5091.0 L 490.0,5092.0 L 488.0,5094.0 L 488.0,5145.0 L 477.0,5147.0 L 477.0,5368.0 L 406.0,5370.0 L 405.0,5476.0 L 276.0,5477.0 L 276.0,5732.0"/>
<path d="M 1681.0,5540.0 L 1561.0,5541.0"/>
<path d="M 1681.0,5540.0 L 1914.0,5540.0"/>
<path d="M 1681.0,5540.0 L 1680.0,5556.0 L 1656.0,5557.0 L 1655.0,5576.0 L 1635.0,5576.0 L 1633.0,5578.0 L 1632.0,5595.0 L 1611.0,5596.0 L 1610.0,5617.0 L 1587.0,5617.0 L 1585.0,5635.0 L 1563.0,5635.0 L 1562.0,5652.0"/>
<path d="M 1914.0,5540.0 L 2444.0,5540.0"/>
<path d="M 2444.0,5540.0 L 2444.0,5652.0"/>
<path d="M 1562.0,5652.0 L 907.0,5652.0 L 905.0,5669.0 L 882.0,5669.0 L 880.0,5689.0 L 859.0,5689.0 L 857.0,5708.0 L 838.0,5708.0 L 836.0,5710.0 L 836.0,5732.0"/>
<path d="M 1562.0,5652.0 L 1681.0,5653.0"/>
<path d="M 2444.0,5652.0 L 1938.0,5653.0"/>
<path d="M 2444.0,5652.0 L 2443.0,5762.0 L 2056.0,5762.0"/>
<path d="M 1681.0,5653.0 L 1742.0,5653.0"/>
<path d="M 1681.0,5653.0 L 1680.0,5669.0 L 1656.0,5670.0 L 1655.0,5689.0 L 1633.0,5690.0 L 1632.0,5708.0 L 1611.0,5709.0 L 1610.0,5729.0 L 1587.0,5729.0 L 1585.0,5747.0 L 1562.0,5748.0 L 1562.0,5802.0"/>
<path d="M 1742.0,5653.0 L 1909.0,5653.0"/>
<path d="M 1742.0,5653.0 L 1742.0,5764.0 L 1704.0,5802.0 L 1562.0,5802.0"/>
<path d="M 1909.0,5653.0 L 1938.0,5653.0"/>
<path d="M 1909.0,5653.0 L 1910.0,5762.0 L 2056.0,5762.0"/>
<path d="M 1938.0,5653.0 L 1938.0,5669.0 L 1961.0,5669.0 L 1963.0,5689.0 L 1984.0,5689.0 L 1985.0,5707.0 L 2006.0,5708.0 L 2007.0,5728.0 L 2031.0,5729.0 L 2032.0,5746.0 L 2055.0,5747.0 L 2056.0,5762.0"/>
<path d="M 276.0,5732.0 L 246.0,5732.0 L 244.0,5748.0 L 218.0,5748.0 L 216.0,5763.0 L 187.0,5763.0 L 185.0,5765.0 L 184.0,5775.0 L 151.0,5775.0 L 149.0,5790.0 L 117.0,5790.0 L 115.0,5800.0 L 83.0,5800.0 L 81.0,5815.0 L 49.0,5815.0 L 48.0,5826.0 L 42.0,5833.0"/>
<path d="M 276.0,5732.0 L 836.0,5732.0"/>
<path d="M 836.0,5732.0 L 873.0,5769.0 L 873.0,5786.0 L 882.0,5795.0"/>
<path d="M 882.0,5795.0 L 884.0,5795.0 L 891.0,5802.0 L 1562.0,5802.0"/>
<path d="M 882.0,5795.0 L 839.0,5838.0 L 47.0,5838.0 L 42.0,5833.0"/>
<path d="M 25.0,5832.0 L 42.0,5833.0"/>
<path d="M 2750.0,2307.0 L 2772.0,2307.0 L 2792.0,2311.0 L 2816.0,2321.0 L 2829.0,2330.0 L 2848.0,2349.0 L 2856.0,2361.0 L 2867.0,2386.0 L 2871.0,2407.0 L 2871.0,2427.0 L 2867.0,2448.0 L 2857.0,2472.0 L 2847.0,2487.0 L 2831.0,2503.0 L 2816.0,2513.0 L 2793.0,2523.0 L 2773.0,2527.0 L 2749.0,2527.0 L 2729.0,2523.0 L 2706.0,2513.0 L 2694.0,2505.0 L 2676.0,2488.0 L 2663.0,2469.0 L 2655.0,2449.0 L 2651.0,2431.0 L 2650.0,2417.0 L 2653.0,2392.0 L 2659.0,2374.0 L 2675.0,2348.0 L 2692.0,2331.0 L 2708.0,2320.0 L 2730.0,2311.0"/>
</g></svg>