<?xml version="1.0" encoding="UTF-8" standalone="no"?>
<!-- Created with Inkscape (http://www.inkscape.org/) -->

<svg
   version="1.1"
   id="svg118"
   width="90.879997"
   height="100.48"
   viewBox="0 0 90.88 100.48001"
   sodipodi:docname="prayer.svg"
   inkscape:version="1.1.1 (3bf5ae0d25, 2021-09-20)"
   xmlns:inkscape="http://www.inkscape.org/namespaces/inkscape"
   xmlns:sodipodi="http://sodipodi.sourceforge.net/DTD/sodipodi-0.dtd"
   xmlns="http://www.w3.org/2000/svg"
   xmlns:svg="http://www.w3.org/2000/svg">
  <defs
     id="defs122" />
  <sodipodi:namedview
     id="namedview120"
     pagecolor="#ffffff"
     bordercolor="#666666"
     borderopacity="1.0"
     inkscape:pageshadow="2"
     inkscape:pageopacity="0.0"
     inkscape:pagecheckerboard="0"
     showgrid="false"
     fit-margin-top="0"
     fit-margin-left="0"
     fit-margin-right="0"
     fit-margin-bottom="0"
     inkscape:zoom="6.8315974"
     inkscape:cx="50.427445"
     inkscape:cy="51.159338"
     inkscape:window-width="1920"
     inkscape:window-height="1017"
     inkscape:window-x="0"
     inkscape:window-y="40"
     inkscape:window-maximized="1"
     inkscape:current-layer="g124" />
  <g
     inkscape:groupmode="layer"
     inkscape:label="Image"
     id="g124"
     transform="translate(46.143168,-6.4393664)">
    <path
       style="fill:#000000;stroke-width:0.32"
       d="m -32.62458,93.397971 c -8.84088,-8.842717 -13.518588,-13.743904 -13.518588,-14.164445 0,-0.804902 8.105565,-8.942845 9.380832,-9.418304 1.985604,-0.740291 5.147711,-0.03053 6.028105,1.353037 0.243842,0.383209 4.910615,-2.256231 5.955223,-3.368163 0.376912,-0.401207 0.912026,-1.272109 1.189142,-1.935341 0.459408,-1.09952 0.457104,-1.818848 -0.02611,-8.155632 -0.812107,-10.649722 -1.176107,-9.100541 7.206322,-30.67015 4.194486,-10.793225 7.3448479,-18.4565336 7.7781759,-18.9205397 1.11816,-1.1973271 2.298691,-1.6790669 4.114649,-1.6790669 1.122352,0 2.007082,0.215671 2.738109,0.6674714 l 1.07999397,0.667471 1.378809,-0.667471 C 1.4384289,6.7397283 2.5951679,6.4393664 3.2506109,6.4393664 c 1.499584,0 3.484227,0.9957069 4.290874,2.1527555 0.340205,0.4879845 3.1799681,7.5112441 6.3105851,15.6072441 3.130618,8.096 6.180605,15.944 6.777751,17.44 2.005248,5.023651 2.19632,6.859248 1.612566,15.491651 -0.516342,7.635568 -0.459248,8.645824 0.57808,10.228986 0.459415,0.701158 5.439907,4.039363 6.026595,4.039363 0.09974,0 0.686877,-0.343062 1.304746,-0.762358 1.470618,-0.997988 3.054806,-1.271197 4.740282,-0.817511 1.111878,0.29929 2.150345,1.147482 5.604742,4.577802 3.14916,3.127206 4.24,4.412909 4.24,4.997389 0,0.609795 -3.00629,3.796387 -13.354867,14.155811 -11.787651,11.800021 -13.469981,13.368871 -14.335808,13.368871 -0.832314,0 -1.593776,-0.61936 -5.025581,-4.08774 -2.2245501,-2.24825 -4.1974341,-4.48963 -4.3841891,-4.980834 -0.738928,-1.943523 -0.289821,-4.494908 1.04176,-5.918272 l 0.698685,-0.746841 -0.826432,-0.693159 C 3.6694589,86.3987 2.2306269,85.051868 1.0243039,83.44766 c -0.77410903,-1.02944 -1.40747203,-2.00144 -1.40747203,-2.16 0,-0.575804 -0.545994,-0.269145 -0.89857597,0.504682 -0.524554,1.151277 -4.79759,5.506538 -7.227936,7.367024 -2.2022939,1.685907 -2.4246399,2.063405 -1.6123869,2.73751 1.3080699,1.085604 1.8813279,4.232948 1.0643389,5.843527 -0.662368,1.305769 -8.7272189,9.178967 -9.4024059,9.178967 -0.42433,0 -5.282676,-4.63778 -14.164446,-13.521399 z M 37.186176,76.193094 c -1.804253,-1.783629 -3.498253,-3.193728 -3.83673,-3.193728 -0.961472,0 -22.532614,21.975965 -22.532614,22.955482 0,0.304185 1.402525,1.960876 3.11672,3.681528 l 3.116723,3.128464 11.683277,-11.68901 11.68328,-11.689008 z m -52.348294,23.249372 c 2.325612,-2.371462 2.93895,-3.188438 2.93895,-3.914742 0,-0.779008 -1.634458,-2.552304 -10.805254,-11.723104 -8.436258,-8.436256 -10.980817,-10.805254 -11.606005,-10.805254 -0.588451,0 -1.646534,0.84897 -3.990906,3.202173 l -3.190157,3.202173 11.514494,11.517827 c 6.332974,6.334806 11.668718,11.517831 11.85721,11.517831 0.188496,0 1.665245,-1.3486 3.281668,-2.996904 z m 3.957756,-12.702332 c 3.1053349,-2.487766 6.3288609,-5.74209 7.0097249,-7.076698 1.906861,-3.737753 2.128679,-10.888684 0.581696,-18.752646 -1.244086,-6.324214 -1.243027,-8.505722 0.00784,-16.159786 0.540067,-3.304598 0.981933,-6.463315 0.981933,-7.019376 0,-2.114124 -2.675264,-3.336998 -4.126176,-1.886086 -0.514819,0.514819 -2.222397,5.42367 -4.8821379,14.034906 -0.727792,2.356323 -1.734,3.270182 -2.97704,2.703817 -0.417523,-0.190237 -0.848336,-0.626928 -0.957356,-0.970422 -0.23761,-0.748643 4.739865,-16.466026 5.5964059,-17.671779 0.319325,-0.449514 1.071082,-1.081444 1.670566,-1.404288 l 1.089972,-0.586989 2.341753,-10.177294 c 2.255091,-9.800652 2.321907,-10.20758 1.805507,-10.99571 -0.638848,-0.9750016 -2.08719,-1.1069046 -2.837516,-0.258417 -0.779972,0.882008 -13.9435839,35.102262 -14.3365829,37.269517 -0.272966,1.505305 -0.233776,3.608902 0.173648,9.321254 0.289395,4.057475 0.43176,7.880474 0.316371,8.495555 -0.543936,2.899421 -2.342515,5.119866 -5.705833,7.044164 -0.988932,0.565808 -1.891639,1.18016 -2.006017,1.365228 -0.192197,0.310983 13.51457,14.344282 14.010513,14.344282 0.121843,0 1.131072,-0.728656 2.242729,-1.619232 z m 30.418525,-5.338042 c 3.829469,-3.826499 6.962669,-7.050086 6.962669,-7.163529 0,-0.113443 -0.980563,-0.7888 -2.179027,-1.500797 -2.936547,-1.74457 -4.692563,-3.700592 -5.348819,-5.958035 -0.480375,-1.652429 -0.47992,-2.371834 0.006,-9.433015 0.391456,-5.688876 0.440899,-8.104505 0.193302,-9.443875 C 18.312653,45.005312 4.9530779,10.874751 4.1443679,10.337786 c -0.901942,-0.5988646 -2.217152,-0.242934 -2.655248,0.718581 -0.281194,0.617155 0.08971,2.648819 1.980726,10.849812 l 2.326704,10.090467 1.125072,0.74136 c 0.618791,0.407747 1.391383,1.103747 1.716871,1.546662 0.325488,0.442919 1.7522111,4.446743 3.1704961,8.897389 2.462419,7.727191 2.555577,8.127373 2.065913,8.874695 -0.560659,0.855673 -1.662524,1.02478 -2.49302,0.382614 -0.284599,-0.220061 -1.6085351,-3.854816 -2.9430821,-8.08 -1.901421,-6.019891 -2.602144,-7.835635 -3.241699,-8.4 -1.016749,-0.897216 -2.044973,-0.915824 -3.137079,-0.05677 -1.09196103,0.858937 -1.08387503,1.341356 0.15098,9.00614 1.233683,7.657517 1.252313,10.366311 0.106268,15.450634 -1.14103,5.062074 -1.45808003,12.988301 -0.646281,16.15705 1.020845,3.984755 1.970291,5.234291 7.385878,9.72031 1.4080001,1.166323 2.7028001,2.12105 2.8773311,2.121613 0.174535,6.4e-4 3.450535,-3.129744 7.28,-6.956247 z M -0.38316813,53.319366 c 0,-2.026666 -0.126986,-3.36 -0.32,-3.36 -0.35622097,0 -0.45713897,6.156192 -0.106666,6.506666 0.400759,0.400761 0.426666,0.209692 0.426666,-3.146666 z m 1.02272,-20.795514 1.42333103,-0.795516 -1.30302403,-5.76233 c -0.716665,-3.169282 -1.375027,-5.763125 -1.463027,-5.764095 -0.088,-9.6e-4 -0.74524197,2.55406 -1.46053797,5.677845 l -1.300534,5.67961 1.039802,0.557008 c 0.571888,0.306352 1.129628,0.702352 1.23942,0.88 0.26163597,0.423334 0.18722897,0.442605 1.82456997,-0.472522 z"
       id="path208" />
  </g>
</svg>
