<?xml version="1.0" standalone="no"?>
<!DOCTYPE svg PUBLIC "-//W3C//DTD SVG 1.1//EN" "http://www.w3.org/Graphics/SVG/1.1/DTD/svg11.dtd" >
<svg xmlns="http://www.w3.org/2000/svg" xmlns:xlink="http://www.w3.org/1999/xlink" version="1.1" viewBox="-10 0 1010 1000">
   <path fill="currentColor"
d="M270 168q94 -43 230 -43t230 43q42 19 62.5 41t20.5 41t-20.5 41t-62.5 41q-94 43 -230 43t-230 -43q-82 -37 -82 -82t82 -82zM813 356v81q0 44 -83 83q-92 42 -230 42t-230 -42q-82 -38 -82 -83v-81q22 17 56 33q107 48 256 48t256 -48q30 -13 57 -33zM875 250
q0 -85 -119 -139q-109 -49 -256 -49t-256 49q-119 54 -119 139v562q0 85 119 139q106 49 256 49t256 -49q119 -54 119 -139v-562zM813 544v81q0 19 -20.5 41t-62.5 41q-94 43 -230 43t-230 -43q-82 -37 -82 -82v-81q23 17 56 32q106 49 256 49t256 -49q30 -13 57 -32z
M813 731v81q0 44 -83 83q-94 43 -230 43t-230 -43q-82 -38 -82 -83v-81q22 17 56 33q107 48 256 48t256 -48q34 -15 57 -33z" />
</svg>
