<?xml version="1.0" standalone="no"?>
<!DOCTYPE svg PUBLIC "-//W3C//DTD SVG 1.1//EN" "http://www.w3.org/Graphics/SVG/1.1/DTD/svg11.dtd" >
<svg xmlns="http://www.w3.org/2000/svg" xmlns:xlink="http://www.w3.org/1999/xlink" version="1.1" viewBox="-10 0 948 1000">
   <path fill="currentColor"
d="M873 1000h-817q-23 0 -39.5 -16.5t-16.5 -39.5v-888q0 -23 16.5 -39.5t39.5 -16.5h817q23 0 39 16.5t16 39.5v888q0 23 -16 39.5t-39 16.5zM343 67h-253q-0.504883 -0.0234375 -1.01465 -0.0234375q-9.10645 0 -15.5537 6.44727q-6.44629 6.44629 -6.44629 15.5527
l0.0146484 0.0234375v822v0.0234375q0 9.10645 6.44629 15.5527q6.44727 6.44727 15.5537 6.44727q0.490234 0 1 -0.0234375h253v-866zM513 67h-102v866h102v-866zM861 89q0 -9 -6.5 -15.5t-15.5 -6.5h-258v866h258q9 0 15.5 -6.5t6.5 -15.5v-822zM747 625q-10 15 -28 15v0
q-12 0 -21 -8h-1q0 -1 -1 -1l-1 -1l-63 -64q-15.6094 -10.0654 -15.6094 -28.5957q0 -14.0732 9.96289 -24.0361q9.96289 -9.96387 24.0371 -9.96387q18.5527 0 28.6094 15.5957l7 6v-129v-0.0146484q0 -13.7979 9.62891 -23.6895q9.62793 -9.8916 23.3711 -10.2959v0
q14 0 24 10t10 24v128l5 -5q9.01855 -6.71973 20.2852 -6.71973q14.0742 0 24.0371 9.96289q9.96289 9.96387 9.96289 24.0371q0 10.9023 -6.28516 19.7197zM177 376q10.1797 -14.4531 27.8154 -14.4531q11.8418 0 21.1846 7.45312q1 0 1 1h1l1 1l63 64
q5.4043 8.38184 5.4043 18.3906q0 14.0732 -9.96289 24.0361q-9.96289 9.96387 -24.0371 9.96387q-10.0449 0 -18.4043 -5.39062l-7 -6v129q-2.09473 12.082 -11.5527 20.1211q-9.45801 8.03809 -21.9463 8.03809t-21.9473 -8.03809q-9.45898 -8.03906 -11.5537 -20.1211
v-128l-5 5q-9.01855 6.71973 -20.2852 6.71973q-14.0742 0 -24.0371 -9.96289q-9.96289 -9.96387 -9.96289 -24.0371q0 -10.9023 6.28516 -19.7197z" />
</svg>
