<?xml version="1.0" standalone="no"?>
<!DOCTYPE svg PUBLIC "-//W3C//DTD SVG 1.1//EN" "http://www.w3.org/Graphics/SVG/1.1/DTD/svg11.dtd" >
<svg xmlns="http://www.w3.org/2000/svg" xmlns:xlink="http://www.w3.org/1999/xlink" version="1.1" viewBox="-10 0 1020 1000">
   <path fill="currentColor"
d="M0 500v-500h500h500v500v500h-500h-500v-500zM570 957q35 -31 48 -37q12 -5 50 -5h38l-37 34q-36 36 -36 37q0 3 53 3h53l32 -32l33 -33v-208v-209h-66q-66 0 -74 -5q-11 -8 -34 -41q-28 -35 -30 -35t-28 57l-27 58l87 176q87 176 87 178q0 1 -43 1q-42 -1 -52 -9
q-12 -9 -76 -136q-66 -128 -76 -145l-10 -19l-9 80q-7 78 -12 88q-8 14 -32 16.5t-144 2.5h-151l3 -8q10 -32 29 -46q18 -13 41 -17t90 -6q81 -1 86 -6q3 -7 7 -63q6 -82 12.5 -109t33.5 -79q32 -60 32 -64q0 -3 -39 -1l-40 1l-32 53q-30 51 -42 59q-11 5 -23.5 2.5
t-18.5 -11.5q-9 -13 -3.5 -29.5t34.5 -63.5q30.9648 -51.1865 39.8105 -59.0293q17.1572 -15.2109 72.3438 -15.9561q1.05957 -0.0146484 70.8457 -0.0146484q116 0 131 7q20 9 74 79l34 44h49h49v-189v-189h-302h-302v309v308l-15 3q-37 5 -63 35q-13 15 -26 46l-14 30
l57 1l57 1v66v66l-30 30l-31 31h200h200zM561 288q-46 -17 -46 -68q0 -28 18 -47q18 -21 50 -21q28 0 47 15.5t24 41.5q6 40 -25 66t-68 13z" />
</svg>
