<?xml version="1.0" standalone="no"?>
<!DOCTYPE svg PUBLIC "-//W3C//DTD SVG 1.1//EN" "http://www.w3.org/Graphics/SVG/1.1/DTD/svg11.dtd" >
<svg xmlns="http://www.w3.org/2000/svg" xmlns:xlink="http://www.w3.org/1999/xlink" version="1.1" viewBox="-10 0 925 1000">
   <path fill="currentColor"
d="M135 865q-135 -135 -135 -141t42 -48t51 -45q15 -6 34.5 -2t25.5 15q2 3 27 -11t33 -22q8 -11 12 -20q4 -12 -1 -81q-6 -79 1.5 -110.5t70.5 -194.5q72 -183 77 -188q17 -17 41 -17q17 0 28 7l10 6l14 -6q14 -7 26 -7q27 0 42 21q6 8 63 156q37 96 68 173q15 37 17.5 64
t-1.5 90q-4 57 -3.5 73.5t8.5 28.5q4 5 30 22.5t30 17.5q2 0 13 -7q23 -15 48 -8q14 4 55 45q43 42 43 50t-133 141q-93 92 -115 112.5t-28 20.5q-10 0 -50 -41q-41 -41 -44 -49q-12 -36 11 -59l7 -8l-9 -7q-60 -50 -75 -70q-14 -20 -14 -21q0 -8.08203 -5.48438 0
q-1.43164 2.11035 -2.51562 5q-5 9 -30 34.5t-42 38.5t-19.5 18t3.5 10q10 7 13 26.5t-3 31.5q-4 9 -46 50t-47 41q-8 0 -141 -135zM829 694q-32 -32 -38 -32q-7 0 -115.5 111t-108.5 118q0 4 31 37l31 31l116 -117l117 -116zM308 926q30 -30 30 -39t-108 -117t-115 -108
q-8 0 -40 32l-32 32l115 115q114 114 118 114q3 0 32 -29zM348 799q57 -46 70 -70q31 -61 5 -187q-9 -47 -9 -75.5t9 -85.5q10 -55 10 -70q0 -16 -15 -22.5t-26 4.5q-8 8 -48 139q-12 36 -30 27q-8 -4 -10 -9q-1 -6 24.5 -86.5t31.5 -89.5q5 -8 17 -14l11 -6l23 -101
q17 -75 19 -89t-1 -21q-5 -7 -14 -8t-14 6q-6 6 -73 180t-70 190q-3 17 2 93q4 80 3 85q-9 42 -57 70q-18 10 -20 13q-1 3 67.5 73t71.5 70t23 -16zM651 746q69 -69 69 -71t-22 -15q-45 -28 -53 -60q-5 -17 0 -93q5 -73 2 -94q-4 -22 -72 -196t-74 -178q-7 -5 -15.5 -2.5
t-11.5 9.5t20 108l23 100l11 8q12 8 17 15q7 10 32 89q18 58 21 70t-1 18q-9 15 -24 4q-4 -3 -30 -81q-24 -77 -32 -83q-14 -13 -31 -1q-8 7 -8 20t9 70q10 57 10 86.5t-9 67.5q-8 38 -10 87.5t4 72.5q7 30 20 46.5t53 50.5q25 21 29 21q2 0 73 -69zM455 467q0 -34 -3 -34
q-2 0 -2.5 31t1.5 34q3.13965 3.13965 3.63184 -2.95508q0.368164 -4.56152 0.368164 -28.0449zM466 260l14 -8l-13 -58q-13 -57 -15 -57q-1 0 -14 56l-13 57l10 5q11 7 12 9q2 3 4.5 2.5t14.5 -6.5z" />
</svg>
