<?xml version="1.0" standalone="no"?>
<!DOCTYPE svg PUBLIC "-//W3C//DTD SVG 1.1//EN" "http://www.w3.org/Graphics/SVG/1.1/DTD/svg11.dtd" >
<svg xmlns="http://www.w3.org/2000/svg" xmlns:xlink="http://www.w3.org/1999/xlink" version="1.1" viewBox="-11 0 1080 1000">
   <path fill="currentColor"
d="M611 996q-29 -11 -36 -41q-4 -14 1 -34q8 -32 30.5 -142.5t21.5 -111.5q-1 -3 -70.5 -64t-71.5 -61q-1 0 -62 70q-38 44 -50.5 57t-17.5 13q-1 0 -23.5 1t-62.5 2t-77 2l-155 6l-11 -9q-21 -16 -26 -39t8 -42q11.7715 -16.6191 24.1465 -19.9688
q16.3613 -4.42969 118.854 -6.03125q113 -1 122 -8q5 -4 153 -173.5t147 -170.5l-5 -0.5q-5 -0.5 -14 -1t-17 -0.5l-35 -2l-63 67q-62 67 -69 81q-10 25 -34 31.5t-43 -10.5q-13 -10 -17 -27t3 -31q4 -9 93 -104l89 -95l113 -3l114 -2l78 58q54 40 66 51t13 19q4 22 5 52
q1 9 2 21.5t2 20t1 10.5l2 10l84 1q61 1 73.5 2t19.5 6q17 13 22 32.5t-6 35.5q-11 17 -27.5 19t-109.5 0l-112 -2l-18 -8q-19 -9 -24.5 -20.5t-6.5 -48.5l-2 -39l-52 61l-52 61l56 56q55 55 59 63t4 20q0 9 -39.5 176.5t-44.5 180.5q-3 9 -14 18.5t-22 12.5q-18 4 -35 -1z
M801 181q-14 -5 -29.5 -20t-22.5 -30q-11 -26 -5 -57.5t27 -49.5q27 -24 65 -24q26 0 44 9q34 20 45 52q12 37 -5 72q-17 36 -52 48q-34 11 -67 0z" />
</svg>
