<?xml version="1.0" standalone="no"?>
<!DOCTYPE svg PUBLIC "-//W3C//DTD SVG 1.1//EN" "http://www.w3.org/Graphics/SVG/1.1/DTD/svg11.dtd" >
<svg xmlns="http://www.w3.org/2000/svg" xmlns:xlink="http://www.w3.org/1999/xlink" version="1.1" viewBox="-11 0 946 1000">
   <path fill="currentColor"
d="M359 447q-35.4199 -1.21777 -60.1738 -26.7842t-24.7539 -61.1631q0 -36.4268 25.7871 -62.2129q25.7871 -25.7871 62.2129 -25.7871q35.8555 0 61.4746 25.0977q25.6191 25.0967 26.4531 60.8496q0 37 -26.5 63.5t-63.5 26.5h-0.5h-0.5zM917 595l-120 -180v-15
q0 -165 -116.5 -282t-281.5 -118q-0.967773 -0.00488281 -1.93652 -0.00488281q-47.2871 0 -93.0635 12.0049q-132.034 32.0908 -217.921 139.9q-85.8857 107.81 -85.8857 246.868q0 0.212891 -0.0966797 0.615234q-0.0976562 0.401367 -0.0966797 0.616211
q-0.174805 5.68945 -0.175781 11.4219q0 109.211 60.1758 200.578q62 88 85 151t4 137q-2.82812 10.125 -2.82812 20.7324q0 27.8662 17.8281 49.2676q21.915 30.0723 59.0342 30.0723q0.175781 0 0.489258 -0.0351562q0.3125 -0.0351562 0.476562 -0.0371094h326
q1.23926 0.0390625 2.48828 0.0390625q28.1914 0 49.6992 -17.9473q21.5068 -17.9473 26.8125 -45.0918q3 -10 3 -20q2.2002 -14.5107 13.4131 -24.2363q11.2129 -9.72656 26.1338 -9.72656l0.453125 -0.0371094h23q2.08301 0.110352 4.19336 0.111328
q26.2832 0 46.9482 -15.7559q20.666 -15.7559 27.8584 -40.3555q22 -79 25 -160h85q25 -4 36 -27q4.19629 -9.33398 4.19629 -19.6426q0 -13.7666 -7.19629 -25.3574zM587 455l-17 27q-11.1162 15.0332 -29.7676 15.0332l-0.232422 -0.0332031q-6 0 -11 -2l-44 -17
q-29 25 -65 37l-8 48q-2.14258 11.5986 -11.2852 19.2881q-9.1416 7.68848 -21.165 7.68848q-0.0878906 0 -0.270508 0.0126953q-0.181641 0.0126953 -0.279297 0.0107422h-34q-0.279297 0.00488281 -0.558594 0.00488281q-12.0195 0 -21.1582 -7.70117
q-9.13965 -7.7002 -11.2832 -19.3037l-7 -48q-34 -10 -61 -33l-47 16q-6.05859 1.99316 -12.4941 1.99316l-0.505859 0.00683594q-19 -1 -29 -17l-16 -26q-4.58887 -7.59668 -4.58887 -16.5107q0 -15.8994 12.5889 -25.4893l38 -32q-4 -17 -5 -35q1 -17 5 -33l-38 -33
q-12.6348 -9.625 -12.6348 -25.4697q0 -8.85742 4.63477 -16.5303l16 -28q9.43945 -17.0537 28.8936 -17.0537q0.216797 0 0.592773 0.0244141t0.513672 0.0292969q6 1 12 3l47 17q27 -23 61 -35l7 -47q2.12305 -11.1943 10.9717 -18.6025
q8.84961 -7.40918 20.4678 -7.40918q1.32422 0 1.56055 0.0117188h34q0.888672 -0.0488281 1.78906 -0.0488281q11.3418 0 20.0703 7.10254q8.72754 7.10352 11.1406 17.9463l8 48q34 11 62 33l47 -16q5 -3 11 -4q20 0 30 17l17 27q4.68262 7.80371 4.68262 16.9443
q0 16.1631 -12.6826 26.0557l-39 32q4 17 4 35q0 17 -4 33l39 32q12.7285 9.92871 12.7285 26.0342q0 9.08594 -4.72852 16.9658z" />
</svg>
