<?xml version="1.0" standalone="no"?>
<!DOCTYPE svg PUBLIC "-//W3C//DTD SVG 1.1//EN" "http://www.w3.org/Graphics/SVG/1.1/DTD/svg11.dtd" >
<svg xmlns="http://www.w3.org/2000/svg" xmlns:xlink="http://www.w3.org/1999/xlink" version="1.1" viewBox="-10 0 1007 1000">
   <path fill="currentColor"
d="M194 167q34 0 57.5 -23.5t23.5 -57.5t-23.5 -57.5t-57.5 -23.5t-57.5 23.5t-23.5 57.5t23.5 57.5t57.5 23.5zM284 188q43 0 73.5 30.5t30.5 73.5v251q0 15 -10 25.5t-25 10.5t-25.5 -10.5t-10.5 -25.5v-227h-18v632q0 20 -14 33.5t-34 13.5q-19 0 -33 -13.5t-14 -33.5
v-367h-20v367q0 20 -14 33.5t-33 13.5q-20 0 -34 -13.5t-14 -33.5v-632h-18v227q0 15 -10.5 25.5t-25.5 10.5t-25 -10.5t-10 -25.5v-251q0 -43 30.5 -73.5t73.5 -30.5h180zM755 164q-34 0 -58.5 -24t-24.5 -58t24.5 -58t58.5 -24t58 24t24 58t-24 58t-58 24zM755 164
q-35 0 -59 -24q-24 -23 -24 -58q0 -34 24 -58t59 -24q34 0 58 24t24 58t-24 58t-58 24zM755 0q-33 0 -59 24q-24 26 -24 58t24 58q26 24 59 24q34 0 58 -24t24 -58t-24 -58t-58 -24zM692 182q-3 0 -8.5 0.5t-20 4.5t-27 12.5t-26 27t-20.5 43.5l-65 226q-5 16 2 27.5
t22 15.5q14 4 26 -2t16 -19l63 -221h17l-109 383h103v0v281q0 16 12 27.5t29 11.5q14 0 27 -13t13 -28v0v-279h17v279v0q0 15 12.5 28t27.5 13q17 0 29 -11.5t12 -27.5v-281v0h103l-109 -383h17l63 221q4 13 16 19t26 2q15 -4 22 -15.5t2 -27.5l-65 -226q-12 -40 -37.5 -62
t-45 -24l-19.5 -2h-125zM803 1000q-14 0 -27 -13q-13 -12 -13 -28v-279h-17v279q0 16 -13 28q-13 13 -27 13v0q-17 0 -29 -12q-12 -11 -12 -27v-281h-103v0l109 -383h-17l-63 221q-3 13 -16 19t-26 2q-16 -5 -22 -16q-7 -11 -2 -27l65 -226q9 -31 27 -52q14 -17 33 -26
q20 -10 42 -10h125q22 0 42 10q18 8 34 26q20 25 26 52l66 226q3 17 -3 27q-6 11 -22 16q-14 5 -27 -3q-12 -6 -15 -18l-63 -221h-17l110 383h-104v281q0 16 -12 27q-12 12 -29 12v0zM763 959q0 15 13 28t27 13v0q17 0 29 -12q12 -11 12 -27v-281v0h103l-110 -383h1h17v0
l63 221q3 11 15 18q13 8 27 3q16 -5 22 -17q6 -11 2 -26l-65 -226q-9 -31 -27 -52q-13 -16 -33 -26q-10 -4 -20 -6.5t-15.5 -3l-5.5 -0.5h-126q-20 0 -42 10q-20 10 -33 26q-18 21 -27 52l-65 226q-4 14 2 27q6 11 22 16q15 3 26 -2t16 -19l63 -221v0h18v0l-110 383h103v0
v281q0 15 12 27t29 12v0q14 0 27 -13t13 -28v-279h17v279z" />
</svg>
