<?xml version="1.0" encoding="UTF-8" standalone="no"?>
<!-- Created with Inkscape (http://www.inkscape.org/) -->

<svg
   version="1.1"
   id="svg382"
   width="270"
   height="270"
   viewBox="0 0 270 270"
   sodipodi:docname="fire-exit.svg"
   inkscape:version="1.1.1 (3bf5ae0d25, 2021-09-20)"
   xmlns:inkscape="http://www.inkscape.org/namespaces/inkscape"
   xmlns:sodipodi="http://sodipodi.sourceforge.net/DTD/sodipodi-0.dtd"
   xmlns="http://www.w3.org/2000/svg"
   xmlns:svg="http://www.w3.org/2000/svg">
  <defs
     id="defs386" />
  <sodipodi:namedview
     id="namedview384"
     pagecolor="#ffffff"
     bordercolor="#666666"
     borderopacity="1.0"
     inkscape:pageshadow="2"
     inkscape:pageopacity="0.0"
     inkscape:pagecheckerboard="0"
     showgrid="false"
     fit-margin-top="0"
     fit-margin-left="0"
     fit-margin-right="0"
     fit-margin-bottom="0"
     inkscape:zoom="2.6059603"
     inkscape:cx="74.252859"
     inkscape:cy="134.49936"
     inkscape:window-width="1920"
     inkscape:window-height="1017"
     inkscape:window-x="0"
     inkscape:window-y="40"
     inkscape:window-maximized="1"
     inkscape:current-layer="g388" />
  <g
     inkscape:groupmode="layer"
     inkscape:label="Image"
     id="g388"
     transform="translate(60.046497,-16.314842)">
    <path
       style="fill:#000000"
       d="M -60.046497,151.31484 V 16.314842 H 74.953506 209.95351 v 134.999998 135 H 74.953506 -60.046497 Z M 93.953506,274.65951 c 5.225,-4.74601 10.948054,-9.24011 12.717884,-9.98689 2.03841,-0.8601 6.98666,-1.3409 13.5,-1.31174 l 10.28212,0.046 -9.76379,9.20395 c -5.37008,5.06218 -9.75758,9.54146 -9.75,9.95396 0.008,0.4125 6.41739,0.75 14.24401,0.75 h 14.23021 l 8.76979,-8.72915 8.76978,-8.7291 v -56.27085 -56.27085 h -17.77749 c -14.09911,0 -18.21591,-0.30708 -19.89635,-1.4841 -1.16537,-0.81626 -5.38001,-5.76626 -9.36586,-11 -3.98586,-5.23375 -7.52054,-9.5159 -7.85485,-9.5159 -0.33431,0 -3.840314,6.97865 -7.791124,15.5081 l -7.18328,15.50811 23.434474,47.6063 c 12.88897,26.18346 23.43448,47.81854 23.43448,48.07795 0,0.2594 -5.1437,0.32042 -11.43045,0.13559 -9.71367,-0.28558 -11.85055,-0.65013 -14.22755,-2.42721 -1.93635,-1.44765 -8.23977,-12.67974 -20.483694,-36.5 -9.72762,-18.92486 -18.93878,-36.65884 -20.46924,-39.40884 l -2.78265,-5 -2.19134,21.60671 c -1.20523,11.88368 -2.70502,22.56653 -3.33285,23.73964 -2.68112,5.00972 -4.01045,5.15365 -47.599961,5.15365 h -40.617047 l 0.695698,-2.25 c 1.551272,-5.01706 4.608946,-9.77778 7.884758,-12.27637 6.391202,-4.8748 11.203788,-5.72434 35.271489,-6.22626 14.909863,-0.31094 22.528313,-0.83894 23.163153,-1.60535 0.52029,-0.62811 1.4536,-8.34202 2.07401,-17.14202 2.04708,-29.03624 2.69738,-31.68143 12.46669,-50.71053 4.71844,-9.1908 8.57898,-16.96852 8.57898,-17.28384 0,-0.31531 -4.80967,-0.44557 -10.68816,-0.28946 l -10.68816,0.28383 -8.66531,14.39528 c -5.75924,9.56756 -9.590283,14.87992 -11.423369,15.84037 -3.815436,1.99911 -9.09187,0.87029 -11.23731,-2.40406 -3.125386,-4.76995 -2.061523,-7.99276 8.294362,-25.12656 13.198017,-21.836097 9.214977,-20.2112 49.473667,-20.18307 28.2495,0.0197 31.83954,0.20653 35.434284,1.8437 4.60873,2.09898 7.57327,5.27483 20,21.42556 l 9,11.6971 13.25,0.006 13.25,0.006 v -50.999998 -51 H 75.453506 -6.046497 v 83.372188 83.37219 l -4.082644,0.65284 c -6.022871,0.9631 -13.319427,5.02557 -17.093697,9.51717 -1.828013,2.17545 -4.98633,7.69716 -7.018484,12.27048 l -3.694824,8.31481 15.444824,0.27539 15.444825,0.2754 v 17.70372 17.70371 l -8.227922,8.27089 -8.227922,8.27089 53.977927,-0.0131 53.97792,-0.0131 9.5,-8.6291 z m -2.5,-180.5662 c -8.22421,-2.915858 -12.5,-9.177113 -12.5,-18.304371 0,-6.142935 0.90755,-8.529696 4.87219,-12.813373 3.89623,-4.209764 7.3868,-5.660724 13.61799,-5.660724 10.061904,0 17.573384,6.124867 19.060584,15.542012 2.23232,14.135258 -11.71973,25.962918 -25.050764,21.236456 z"
       id="path490"
       sodipodi:nodetypes="cccccccccssscscscccccssssscsssssscssscsssssssscsssscsscccccccccsscccccccccccsssssss" />
  </g>
</svg>
