<?xml version="1.0" encoding="UTF-8" standalone="no"?>
<!-- Created with Inkscape (http://www.inkscape.org/) -->

<svg
   version="1.1"
   id="svg3340"
   width="443.66611"
   height="419.14923"
   viewBox="0 0 443.66611 419.14923"
   sodipodi:docname="refuge.svg"
   inkscape:version="1.1.1 (3bf5ae0d25, 2021-09-20)"
   xmlns:inkscape="http://www.inkscape.org/namespaces/inkscape"
   xmlns:sodipodi="http://sodipodi.sourceforge.net/DTD/sodipodi-0.dtd"
   xmlns="http://www.w3.org/2000/svg"
   xmlns:svg="http://www.w3.org/2000/svg">
  <defs
     id="defs3344" />
  <sodipodi:namedview
     id="namedview3342"
     pagecolor="#ffffff"
     bordercolor="#666666"
     borderopacity="1.0"
     inkscape:pageshadow="2"
     inkscape:pageopacity="0.0"
     inkscape:pagecheckerboard="0"
     showgrid="false"
     fit-margin-top="0"
     fit-margin-left="0"
     fit-margin-right="0"
     fit-margin-bottom="0"
     inkscape:zoom="1.152832"
     inkscape:cx="89.77891"
     inkscape:cy="189.53325"
     inkscape:window-width="1920"
     inkscape:window-height="1017"
     inkscape:window-x="0"
     inkscape:window-y="40"
     inkscape:window-maximized="1"
     inkscape:current-layer="g3346" />
  <g
     inkscape:groupmode="layer"
     inkscape:label="Image"
     id="g3346"
     transform="translate(63.918935,-151.4083)">
    <path
       style="fill:#000000;stroke-width:1.33333"
       d="m 192.29792,568.72312 c -6.90167,-2.44036 -13.43219,-9.60348 -15.39251,-16.88355 -1.25994,-4.67911 -1.15954,-7.40393 0.53211,-14.44048 4.26317,-17.73297 22.34529,-105.54482 21.94377,-106.56515 -0.66828,-1.69821 -58.17764,-52.10796 -59.44676,-52.10796 -0.63292,0 -12.38812,13.2 -26.12267,29.33333 -21.238038,24.94735 -25.510818,29.32844 -28.576248,29.30059 -1.9824,-0.018 -32.75744,0.98645 -68.38898,2.23215 l -64.78461,2.26488 -4.86136,-3.70795 c -11.40514,-8.69912 -14.44173,-22.93666 -7.21955,-33.85011 6.77479,-10.2374 6.32561,-10.1556 59.88841962,-10.90623 44.96358038,-0.63012 47.76230038,-0.81286 51.04981038,-3.33333 3.08662,-2.36644 126.234338,-143.67011 125.623708,-144.1447 -0.13482,-0.1048 -6.90772,-0.61001 -15.05086,-1.1227 l -14.80575,-0.93219 -26.3238,28.43313 c -15.5481,16.79396 -27.299508,30.65136 -28.707348,33.85203 -6.04791,13.74973 -21.41063,17.97375 -32.23728,8.86372 -7.15852,-6.02349 -9.69538,-16.32596 -6.05996,-24.61016 0.8836,-2.01348 18.40653,-21.57059 38.93987,-43.46024 l 37.333328,-39.79936 47.62379,-1.03211 47.62379,-1.03211 32.62616,24.35915 c 30.50993,22.77914 32.67173,24.67047 33.3286,29.159 0.38635,2.63994 1.33991,12.59987 2.11901,22.1332 0.77912,9.53334 1.72095,19.24716 2.09296,21.58628 l 0.67636,4.25294 35.19346,0.41373 c 33.27331,0.39115 35.39867,0.56591 38.95467,3.20299 9.85442,7.3079 12.77566,19.67656 6.75668,28.60813 -6.1207,9.08251 -5.65299,9.01714 -57.66214,8.05855 l -46.66667,-0.86013 -7.57182,-3.51406 c -10.71642,-4.97345 -12.21856,-8.29314 -13.07578,-28.89713 l -0.68573,-16.48204 -21.77976,25.68863 -21.77976,25.68862 23.30408,23.46008 c 12.81725,12.90304 23.96815,24.77064 24.77976,26.37243 0.81163,1.60179 1.47568,5.29824 1.47568,8.21435 0,5.22476 -31.97446,142.73812 -34.8498,149.87944 -2.04362,5.07559 -9.41596,11.23884 -15.4471,12.9137 -6.39266,1.77526 -7.85153,1.71542 -14.36977,-0.58936 z m 79.69944,-341.53593 c -8.07718,-2.86007 -18.07092,-12.37097 -21.80902,-20.75531 -6.62955,-14.8697 -2.70046,-34.7837 8.86677,-44.93986 9.03445,-7.93236 14.79855,-10.06582 27.24281,-10.08338 10.11336,-0.0143 12.1116,0.41458 18.56328,3.984 7.97934,4.41461 16.26706,13.88061 18.95303,21.64764 3.03073,8.76396 2.18229,21.54944 -1.99683,30.09126 -4.3993,8.99184 -13.37293,17.27902 -21.83096,20.16097 -7.61696,2.59536 -20.49894,2.54689 -27.98908,-0.10534 z"
       id="path3448" />
  </g>
</svg>
