<?xml version="1.0" encoding="UTF-8" standalone="no"?>
<svg
   class="svg-icon"
   style="overflow:hidden;fill:currentColor"
   viewBox="0 0 567.82996 614.41675"
   version="1.1"
   id="svg4"
   sodipodi:docname="skill.svg"
   width="567.82996"
   height="614.41675"
   inkscape:version="1.1.1 (3bf5ae0d25, 2021-09-20)"
   xmlns:inkscape="http://www.inkscape.org/namespaces/inkscape"
   xmlns:sodipodi="http://sodipodi.sourceforge.net/DTD/sodipodi-0.dtd"
   xmlns="http://www.w3.org/2000/svg"
   xmlns:svg="http://www.w3.org/2000/svg">
  <defs
     id="defs8" />
  <sodipodi:namedview
     id="namedview6"
     pagecolor="#ffffff"
     bordercolor="#666666"
     borderopacity="1.0"
     inkscape:pageshadow="2"
     inkscape:pageopacity="0.0"
     inkscape:pagecheckerboard="0"
     showgrid="false"
     fit-margin-top="0"
     fit-margin-left="0"
     fit-margin-right="0"
     fit-margin-bottom="0"
     inkscape:zoom="0.79101562"
     inkscape:cx="282.54815"
     inkscape:cy="306.5679"
     inkscape:window-width="1920"
     inkscape:window-height="1057"
     inkscape:window-x="1920"
     inkscape:window-y="0"
     inkscape:window-maximized="1"
     inkscape:current-layer="svg4" />
  <path
     d="m 220.26037,274.44052 a 54.272,54.272 0 1 1 56.32,-55.296 55.296,55.296 0 0 1 -56.32,55.296 z m 343.04,91.136 -73.728,-110.592 v -9.216 A 245.76,245.76 0 0 0 244.83637,0.00851967 225.28,225.28 0 0 0 186.46837,7.1765197 244.736,244.736 0 0 0 0.10036725,245.76852 224.256,224.256 0 0 0 36.964367,375.81652 c 43.008,61.44 71.680003,110.592 54.272,177.152 a 47.104,47.104 0 0 0 9.216003,43.008 45.056,45.056 0 0 0 36.864,18.432 h 200.704 a 48.128,48.128 0 0 0 48.128,-38.912 51.2,51.2 0 0 0 2.048,-12.288 24.576,24.576 0 0 1 24.576,-20.48 h 14.336 a 48.128,48.128 0 0 0 48.128,-34.816 422.912,422.912 0 0 0 15.36,-98.304 h 52.224 a 28.672,28.672 0 0 0 22.528,-16.384 29.696,29.696 0 0 0 -2.048,-27.648 z m -202.752,-86.016 -10.24,16.384 a 22.528,22.528 0 0 1 -18.432,9.216 24.576,24.576 0 0 1 -7.168,-1.024 l -26.624,-10.24 a 118.784,118.784 0 0 1 -39.936,22.528 l -5.12,29.696 a 20.48,20.48 0 0 1 -20.48,16.384 h -20.48 a 20.48,20.48 0 0 1 -20.48,-16.384 l -4.096,-29.696 a 102.4,102.4 0 0 1 -37.888,-20.48 l -28.672,10.24 a 24.576,24.576 0 0 1 -8.192,1.024 21.504,21.504 0 0 1 -17.408003,-10.24 l -10.24,-16.384 a 19.456,19.456 0 0 1 5.12,-25.6 l 23.552003,-19.456 a 103.424,103.424 0 0 1 -3.072,-21.504 96.256,96.256 0 0 1 3.072,-20.48 l -23.552003,-20.48 a 19.456,19.456 0 0 1 -5.12,-25.6 l 10.24,-17.408 a 20.48,20.48 0 0 1 18.432003,-10.24 24.576,24.576 0 0 1 7.168,2.048 l 28.672,10.24 a 117.76,117.76 0 0 1 37.888,-21.504 l 4.096,-28.672 a 19.456,19.456 0 0 1 20.48,-16.384 h 20.48 a 19.456,19.456 0 0 1 20.48,15.36 l 5.12,29.696 a 115.712,115.712 0 0 1 37.888,20.48 l 28.672,-10.24 a 24.576,24.576 0 0 1 7.168,-2.048 21.504,21.504 0 0 1 18.432,10.24 l 10.24,16.384 a 20.48,20.48 0 0 1 -5.12,26.624 l -23.552,19.456 a 98.304,98.304 0 0 1 2.048,21.504 96.256,96.256 0 0 1 -2.048,20.48 l 23.552,19.456 a 20.48,20.48 0 0 1 5.12,26.624 z"
     id="path2" />
</svg>
