<?xml version="1.0" encoding="UTF-8" standalone="no"?>
<svg
   class="svg-icon"
   style="overflow:hidden;fill:currentColor"
   viewBox="0 0 515.36859 522.60999"
   version="1.1"
   id="svg12"
   sodipodi:docname="toilet.svg"
   width="515.36859"
   height="522.60999"
   inkscape:version="1.1.1 (3bf5ae0d25, 2021-09-20)"
   xmlns:inkscape="http://www.inkscape.org/namespaces/inkscape"
   xmlns:sodipodi="http://sodipodi.sourceforge.net/DTD/sodipodi-0.dtd"
   xmlns="http://www.w3.org/2000/svg"
   xmlns:svg="http://www.w3.org/2000/svg">
  <defs
     id="defs16" />
  <sodipodi:namedview
     id="namedview14"
     pagecolor="#ffffff"
     bordercolor="#666666"
     borderopacity="1.0"
     inkscape:pageshadow="2"
     inkscape:pageopacity="0.0"
     inkscape:pagecheckerboard="0"
     showgrid="false"
     fit-margin-top="0"
     fit-margin-left="0"
     fit-margin-right="0"
     fit-margin-bottom="0"
     inkscape:zoom="0.79101562"
     inkscape:cx="-211.75309"
     inkscape:cy="254.7358"
     inkscape:window-width="1920"
     inkscape:window-height="1057"
     inkscape:window-x="1920"
     inkscape:window-y="0"
     inkscape:window-maximized="1"
     inkscape:current-layer="svg12" />
  <path
     d="m 101.38,87.3 c 23.42,0 42.39,-18.99 42.39,-42.39 0,-23.41 -18.98,-42.4 -42.39,-42.4 -23.42,0 -42.39,19 -42.39,42.4 -0.01,23.41 18.97,42.39 42.39,42.39 z m 46.83,10.86 c 29.97,0 54.56,24.31 54.56,54.31 v 131.46 c 0,10.26 -8.06,18.56 -18.31,18.56 -10.25,0 -18.56,-8.3 -18.56,-18.56 V 165.4 h -9.56 v 329.83 c 0,13.74 -11.26,24.88 -24.98,24.88 -13.73,0 -24.87,-11.14 -24.87,-24.88 V 303.7 H 96.3 v 191.53 c 0,13.74 -11.15,24.88 -24.88,24.88 -13.72,0 -24.98,-11.14 -24.98,-24.88 V 165.4 h -9.56 v 118.53 c 0,10.26 -8.31,18.56 -18.57,18.56 C 8.06,302.49 0,294.19 0,283.93 V 152.47 C 0,122.48 24.56,98.16 54.56,98.16 Z"
     id="path2" />
  <path
     d="m 394.36,85.76 c -23.87,0 -43.19,-19.17 -43.19,-42.83 0,-23.66 19.32,-42.84 43.19,-42.84 23.84,0 43.17,19.18 43.17,42.84 0,23.67 -19.33,42.83 -43.17,42.83 z"
     id="path4" />
  <path
     d="m 394.36,85.85 c -11.57,0 -22.44,-4.46 -30.61,-12.57 -8.17,-8.1 -12.67,-18.88 -12.67,-30.35 0,-11.47 4.5,-22.25 12.67,-30.36 C 371.92,4.46 382.79,0 394.36,0 c 23.85,0 43.26,19.26 43.26,42.93 0,23.67 -19.41,42.92 -43.26,42.92 z m 0,-85.66 c -11.52,0 -22.34,4.45 -30.48,12.52 -8.14,8.07 -12.62,18.81 -12.62,30.23 0,11.42 4.48,22.15 12.62,30.22 8.14,8.07 18.96,12.52 30.48,12.52 23.75,0 43.08,-19.17 43.08,-42.74 0,-23.58 -19.33,-42.75 -43.08,-42.75 z"
     fill="#ffffff"
     id="path6" />
  <path
     d="m 361.4,95.19 c 0,0 -39.63,-1.48 -53.21,45.85 l -34.02,118.41 c -3.24,11.07 2.88,19.53 12.54,22.3 9.67,2.79 19.56,-2.09 22.1,-10.96 l 33.07,-115.42 9.02,-0.01 -57.36,199.87 53.97,0.01 0.04,0.04 v 146.7 c 0,11.16 9.57,20.49 21.25,20.54 10.3,0.04 21.16,-10.39 21.16,-21.57 v 0.04 -145.76 h 8.65 v 145.75 -0.04 c 0,11.17 10.87,21.6 21.16,21.57 11.7,-0.05 21.27,-9.38 21.27,-20.54 v -146.7 l 0.04,-0.04 53.98,-0.01 -57.35,-199.87 9.01,0.01 33.06,115.42 c 2.53,8.86 12.43,13.74 22.08,10.96 9.68,-2.77 15.8,-11.23 12.55,-22.3 L 480.4,141.04 C 466.82,93.71 427.19,95.19 427.19,95.19 Z"
     id="path8" />
  <path
     d="m 419.72,522.6 c -4.97,0 -10.22,-2.4 -14.42,-6.58 -4.29,-4.28 -6.76,-9.76 -6.77,-15.04 V 355.32 h -8.47 v 145.67 c -0.01,5.28 -2.48,10.76 -6.77,15.04 -4.2,4.18 -9.45,6.58 -14.42,6.58 h -0.06 c -5.66,-0.02 -11.01,-2.2 -15.06,-6.13 -4.05,-3.92 -6.27,-9.07 -6.27,-14.5 V 355.33 l -54.05,-0.01 0.03,-0.11 57.32,-199.75 -8.83,0.01 -33.05,115.36 c -1.24,4.31 -4.23,7.82 -8.42,9.9 -4.19,2.07 -9.09,2.47 -13.79,1.11 -5.15,-1.48 -9.23,-4.55 -11.49,-8.65 -2.2,-3.99 -2.58,-8.74 -1.11,-13.76 l 34.02,-118.41 c 3.1,-10.81 7.83,-19.95 14.06,-27.16 4.98,-5.78 10.93,-10.34 17.68,-13.56 11.45,-5.47 21.38,-5.19 21.55,-5.19 h 65.79 c 0.09,0 10.06,-0.31 21.55,5.19 6.75,3.23 12.7,7.79 17.68,13.56 6.23,7.22 10.96,16.36 14.06,27.16 l 34.01,118.41 c 1.47,5.02 1.09,9.77 -1.1,13.76 -2.26,4.1 -6.35,7.18 -11.51,8.65 -4.93,1.42 -10.21,0.88 -14.49,-1.49 -3.82,-2.11 -6.55,-5.5 -7.7,-9.53 l -33.04,-115.36 -8.82,-0.01 57.35,199.87 -54.05,0.01 v 146.65 c 0,5.43 -2.23,10.58 -6.27,14.5 -4.05,3.93 -9.41,6.1 -15.08,6.13 -0.02,-0.01 -0.04,-0.01 -0.06,-0.01 z m -21.01,-21.65 c 0,5.25 2.45,10.69 6.72,14.95 4.17,4.15 9.37,6.53 14.29,6.53 h 0.06 c 5.62,-0.02 10.94,-2.18 14.96,-6.08 4.01,-3.88 6.22,-8.99 6.22,-14.37 V 355.24 l 0.09,-0.09 53.9,-0.01 -57.35,-199.87 h 0.12 l 9.08,0.01 0.02,0.06 33.06,115.42 c 1.14,3.98 3.84,7.33 7.62,9.42 4.24,2.35 9.47,2.88 14.35,1.47 5.12,-1.46 9.16,-4.5 11.4,-8.57 2.17,-3.94 2.55,-8.65 1.09,-13.62 L 480.33,141.05 c -3.09,-10.78 -7.81,-19.9 -14.02,-27.09 -4.97,-5.76 -10.9,-10.31 -17.62,-13.52 -11.45,-5.48 -21.37,-5.18 -21.48,-5.17 h -65.8 c -0.1,-0.01 -10.03,-0.3 -21.48,5.17 -6.73,3.22 -12.65,7.76 -17.62,13.52 -6.21,7.2 -10.93,16.31 -14.02,27.09 l -34.03,118.43 c -1.46,4.97 -1.08,9.68 1.09,13.62 2.24,4.06 6.28,7.1 11.38,8.57 4.66,1.34 9.51,0.95 13.66,-1.1 4.15,-2.05 7.11,-5.53 8.33,-9.79 l 33.09,-115.49 h 0.07 l 9.14,-0.01 -0.03,0.11 -57.32,199.75 53.89,0.01 0.1,0.09 v 146.74 c 0,5.38 2.21,10.49 6.22,14.37 4.02,3.9 9.32,6.05 14.94,6.08 h 0.06 c 4.92,0 10.12,-2.38 14.29,-6.52 4.27,-4.25 6.72,-9.7 6.72,-14.95 V 355.14 h 8.83 v 145.81 z"
     fill="#ffffff"
     id="path10" />
</svg>
