<?xml version="1.0" encoding="UTF-8" standalone="no"?>
<!-- Created with Inkscape (http://www.inkscape.org/) -->

<svg
   width="293.87546mm"
   height="292.76035mm"
   viewBox="0 0 293.87546 292.76035"
   version="1.1"
   id="svg5"
   xml:space="preserve"
   inkscape:version="1.2.2 (b0a8486541, 2022-12-01)"
   sodipodi:docname="fire-exit.svg"
   xmlns:inkscape="http://www.inkscape.org/namespaces/inkscape"
   xmlns:sodipodi="http://sodipodi.sourceforge.net/DTD/sodipodi-0.dtd"
   xmlns="http://www.w3.org/2000/svg"
   xmlns:svg="http://www.w3.org/2000/svg"><sodipodi:namedview
     id="namedview7"
     pagecolor="#ffffff"
     bordercolor="#000000"
     borderopacity="0.25"
     inkscape:showpageshadow="2"
     inkscape:pageopacity="0.0"
     inkscape:pagecheckerboard="0"
     inkscape:deskcolor="#d1d1d1"
     inkscape:document-units="mm"
     showgrid="false"
     inkscape:zoom="1.6555357"
     inkscape:cx="617.32283"
     inkscape:cy="-108.1221"
     inkscape:window-width="1920"
     inkscape:window-height="1008"
     inkscape:window-x="0"
     inkscape:window-y="0"
     inkscape:window-maximized="1"
     inkscape:current-layer="layer1" /><defs
     id="defs2" /><g
     inkscape:label="Layer 1"
     inkscape:groupmode="layer"
     id="layer1"
     transform="translate(58.265381,-2.0523055)"><rect
       style="fill:#00752b;fill-opacity:1;stroke:none;stroke-width:0.529167"
       id="rect353"
       width="293.87546"
       height="292.76035"
       x="-58.265381"
       y="2.0523055" /><path
       id="path409"
       style="fill:#ffffff;fill-opacity:0.952941;stroke:none;stroke-width:0.529167"
       d="m 1.0495483,15.862598 -0.27440182,175.137112 -15.31276048,0.78342 -22.966557,34.18499 38.24211045,0.31264 0.0160197,38.68343 -18.75337715,20.30367 117.826916,-0.19844 18.938382,-19.35696 30.1563,0.0305 -19.79001,19.09961 25.41085,-0.0563 23.49056,-22.79912 -0.51625,-125.37736 -30.66324,0.0274 c -3.39463,0.0496 -5.42022,-0.61906 -7.12205,-2.52956 L 121.65872,108.6637 102.5064,146.19319 c -1.04255,1.64527 -1.32565,3.98539 -0.66817,5.51543 L 152.4,258.72116 l -26.63507,0.0331 -46.445741,-97.00183 -2.878894,0.0579 -6.083866,51.15863 c -0.855503,3.76478 -3.011223,5.80798 -7.700305,5.96863 l -84.101843,-0.0672 10.043314,-15.6068 c 2.9652974,-4.29356 4.509401,-5.7011 9.5472211,-6.17275 l 49.4646809,0.0589 5.681824,-42.18915 c 0.673951,-8.09554 1.671706,-13.92145 4.044714,-20.51916 L 76.83407,94.43868 48.1552,94.904801 27.381274,128.23817 c 0,0 -5.047735,5.20017 -11.362614,1.47691 -6.2685484,-3.69594 -3.323828,-10.00662 -3.323828,-10.00662 L 35.65002,80.602315 c 2.969188,-5.005022 2.895291,-5.142809 8.66097,-5.091679 l 68.51468,0.241329 c 8.06981,0.116089 8.19378,0.243134 12.94288,5.021399 l 26.33379,36.957436 25.07444,-0.0744 -0.50746,-101.714717 z M 119.49451,28.659233 A 21.002424,21.002424 0 0 1 140.49685,49.661568 21.002424,21.002424 0 0 1 119.49451,70.663904 21.002424,21.002424 0 0 1 98.492179,49.661568 21.002424,21.002424 0 0 1 119.49451,28.659233 Z" /></g></svg>
