<svg viewBox="0,0,5064,6933" width="50%" xmlns="http://www.w3.org/2000/svg" xmlns:xlink="http://www.w3.org/1999/xlink"><image xlink:href="https://floorplans.library.leeds.ac.uk//assets/images/brotherton-w2.png"/><polygon points="1321,4334 1438,4333 1438,3709 1321,3709" fill="rgba(0,0,0,0)" cursor="pointer"><title>Stack Abstracts</title></polygon><polygon points="1438,4334 1571,4333 1571,3709 1438,3709" fill="rgba(0,0,0,0)" cursor="pointer"><title>Stack Ancient History</title></polygon><polygon points="1607,4334 1773,4334 1773,3709 1607,3709" fill="rgba(0,0,0,0)" cursor="pointer"><title>Stack Anthropology</title></polygon><polygon points="1773,4334 1952,4333 1952,3709 1773,3709" fill="rgba(0,0,0,0)" cursor="pointer"><title>Stack Archaeology</title></polygon><polygon points="2016,4334 2158,4333 2158,3709 2016,3709" fill="rgba(0,0,0,0)" cursor="pointer"><title>Stack Architecture</title></polygon><polygon points="2158,4334 2271,4333 2271,3709 2158,3709" fill="rgba(0,0,0,0)" cursor="pointer"><title>Stack Art</title></polygon><polygon points="2308,4334 2399,4333 2399,3709 2308,3709" fill="rgba(0,0,0,0)" cursor="pointer"><title>Stack Cartularies</title></polygon><polygon points="2399,4334 2471,4333 2471,3709 2399,3709" fill="rgba(0,0,0,0)" cursor="pointer"><title>Stack Celtic</title></polygon><polygon points="2471,4334 2564,4333 2564,3709 2471,3709" fill="rgba(0,0,0,0)" cursor="pointer"><title>Stack Chinese</title></polygon><polygon points="2712,4334 2834,4333 2834,3709 2712,3709" fill="rgba(0,0,0,0)" cursor="pointer"><title>Stack Communications Studies</title></polygon><polygon points="2834,4334 2899,4333 2899,3709 2834,3709" fill="rgba(0,0,0,0)" cursor="pointer"><title>Stack Danish</title></polygon><polygon points="2899,4334 2982,4333 2982,3709 2899,3709" fill="rgba(0,0,0,0)" cursor="pointer"><title>Stack Dobree</title></polygon><polygon points="2982,4334 3319,4333 3319,3709 2982,3709" fill="rgba(0,0,0,0)" cursor="pointer"><title>Stack English</title></polygon><polygon points="3599,4276 3704,4276 3704,3595 3599,3595" fill="rgba(0,0,0,0)" cursor="pointer"><title>Stack French</title></polygon><polygon points="3704,4276 3792,4276 3792,3595 3704,3595" fill="rgba(0,0,0,0)" cursor="pointer"><title>Stack Fulford</title></polygon><polygon points="3792,4276 3872,4276 3872,3595 3792,3595" fill="rgba(0,0,0,0)" cursor="pointer"><title>Stack General Classics</title></polygon><polygon points="3872,4276 3968,4276 3968,3595 3872,3595" fill="rgba(0,0,0,0)" cursor="pointer"><title>Stack General Literature</title></polygon><polygon points="4014,4210 4118,4210 4118,3595 4014,3595" fill="rgba(0,0,0,0)" cursor="pointer"><title>Stack Greek</title></polygon><polygon points="4118,4210 4220,4210 4220,3595 4118,3595" fill="rgba(0,0,0,0)" cursor="pointer"><title>Stack Holden</title></polygon><polygon points="4353,4273 4353,3596 4432,3596 4432,4273" fill="rgba(0,0,0,0)" cursor="pointer"><title>Stack Hong Kong</title></polygon><polygon points="4432,4273 4432,3596 4499,3596 4499,4273" fill="rgba(0,0,0,0)" cursor="pointer"><title>Stack Icelandic</title></polygon><polygon points="4499,4273 4499,3596 4576,3596 4576,4273" fill="rgba(0,0,0,0)" cursor="pointer"><title>Stack Korean</title></polygon><polygon points="4576,4273 4576,3596 4656,3596 4656,4273" fill="rgba(0,0,0,0)" cursor="pointer"><title>Stack Latin</title></polygon><polygon points="4656,4273 4656,3596 4726,3596 4726,4273" fill="rgba(0,0,0,0)" cursor="pointer"><title>Stack Lattimore</title></polygon><polygon points="1321,3627 1464,3627 1464,2989 1321,2989" fill="rgba(0,0,0,0)" cursor="pointer"><title>Stack Modern History</title></polygon><polygon points="1464,3627 1549,3627 1549,2989 1464,2989" fill="rgba(0,0,0,0)" cursor="pointer"><title>Stack Mongolian</title></polygon><polygon points="1549,3627 1629,3627 1629,2989 1549,2989" fill="rgba(0,0,0,0)" cursor="pointer"><title>Stack Music</title></polygon><polygon points="1629,3627 1715,3627 1715,2989 1629,2989" fill="rgba(0,0,0,0)" cursor="pointer"><title>Stack Norwegian</title></polygon><polygon points="1715,3627 1798,3627 1798,2989 1715,2989" fill="rgba(0,0,0,0)" cursor="pointer"><title>Stack Numismatics</title></polygon><polygon points="1798,3627 1949,3627 1949,2989 1798,2989" fill="rgba(0,0,0,0)" cursor="pointer"><title>Stack Philosophy</title></polygon><polygon points="2016,3627 2271,3627 2271,2989 2016,2989" fill="rgba(0,0,0,0)" cursor="pointer"><title>Stack Scandinavian</title></polygon><polygon points="2310,3627 2432,3627 2432,2989 2310,2989" fill="rgba(0,0,0,0)" cursor="pointer"><title>Stack Slavonic</title></polygon><polygon points="2432,3627 2564,3627 2564,2989 2432,2989" fill="rgba(0,0,0,0)" cursor="pointer"><title>Stack Swedish</title></polygon><polygon points="2688,3627 2784,3627 2784,2989 2688,2989" fill="rgba(0,0,0,0)" cursor="pointer"><title>Stack Textiles</title></polygon><polygon points="2784,3627 2872,3627 2872,2989 2784,2989" fill="rgba(0,0,0,0)" cursor="pointer"><title>Stack Theology</title></polygon><polygon points="2872,3627 3008,3627 3008,2989 2872,2989" fill="rgba(0,0,0,0)" cursor="pointer"><title>Stack Yearbooks</title></polygon><polygon points="3008,3627 3318,3627 3318,2989 3008,2989" fill="rgba(0,0,0,0)" cursor="pointer"><title>All Stack Large A-Z</title></polygon><polygon points="2583,266 2583,384 3246,384 3246,266" fill="rgba(0,0,0,0)" cursor="pointer"><title>General Classics Journals</title></polygon><polygon points="2583,477 2583,582 3246,582 3246,477" fill="rgba(0,0,0,0)" cursor="pointer"><title>French Journals</title></polygon><polygon points="2583,675 2583,771 3246,771 3246,675" fill="rgba(0,0,0,0)" cursor="pointer"><title>English Journals</title></polygon><polygon points="2583,872 2583,1045 3246,1045 3246,872" fill="rgba(0,0,0,0)" cursor="pointer"><title>Communications Studies Journals</title></polygon><polygon points="2583,1146 2583,1242 3246,1242 3246,1146" fill="rgba(0,0,0,0)" cursor="pointer"><title>Chinese Journals</title></polygon><polygon points="2583,1341 2583,1427 3246,1427 3246,1341" fill="rgba(0,0,0,0)" cursor="pointer"><title>Celtic Journals</title></polygon><polygon points="2583,1536 2583,1632 3246,1632 3246,1536" fill="rgba(0,0,0,0)" cursor="pointer"><title>Canada Journals</title></polygon><polygon points="2583,1725 2583,1811 3246,1811 3246,1725" fill="rgba(0,0,0,0)" cursor="pointer"><title>Bibliography Journals</title></polygon><polygon points="2583,1920 2583,1994 3246,1994 3246,1920" fill="rgba(0,0,0,0)" cursor="pointer"><title>Art Journals</title></polygon><polygon points="2583,2112 2583,2184 3246,2184 3246,2112" fill="rgba(0,0,0,0)" cursor="pointer"><title>Architecture Journals</title></polygon><polygon points="2583,2301 2583,2384 3246,2384 3246,2301" fill="rgba(0,0,0,0)" cursor="pointer"><title>Anthropology Journals</title></polygon><polygon points="2583,2496 2583,2573 3246,2573 3246,2496" fill="rgba(0,0,0,0)" cursor="pointer"><title>Ancient History Journals</title></polygon><polygon points="3451,266 3451,355 4336,355 4336,266" fill="rgba(0,0,0,0)" cursor="pointer"><title>General Journals</title></polygon><polygon points="3451,355 3451,426 4336,426 4336,355" fill="rgba(0,0,0,0)" cursor="pointer"><title>General Languages Journals</title></polygon><polygon points="3451,426 3451,493 4336,493 4336,426" fill="rgba(0,0,0,0)" cursor="pointer"><title>General Literature Journals</title></polygon><polygon points="3451,560 3451,632 4336,632 4336,560" fill="rgba(0,0,0,0)" cursor="pointer"><title>German Journals</title></polygon><polygon points="3451,632 3451,688 4336,688 4336,632" fill="rgba(0,0,0,0)" cursor="pointer"><title>Holden Journals</title></polygon><polygon points="3451,688 3451,781 4336,781 4336,688" fill="rgba(0,0,0,0)" cursor="pointer"><title>Italian Journals</title></polygon><polygon points="3451,829 3451,899 4336,899 4336,829" fill="rgba(0,0,0,0)" cursor="pointer"><title>Japanese Journals</title></polygon><polygon points="3451,899 3451,960 4336,960 4336,899" fill="rgba(0,0,0,0)" cursor="pointer"><title>Korean Journals</title></polygon><polygon points="3451,960 3451,1040 4336,1040 4336,960" fill="rgba(0,0,0,0)" cursor="pointer"><title>Lattimore Journals</title></polygon><polygon points="3451,1085 3451,1155 4336,1155 4336,1085" fill="rgba(0,0,0,0)" cursor="pointer"><title>Linguistics Journals</title></polygon><polygon points="3451,1155 3451,1232 4336,1232 4336,1155" fill="rgba(0,0,0,0)" cursor="pointer"><title>Modern History Journals</title></polygon><polygon points="3451,1232 3451,1304 4336,1304 4336,1232" fill="rgba(0,0,0,0)" cursor="pointer"><title>Mongolian Journals</title></polygon><polygon points="3451,1347 3451,1424 4336,1424 4336,1347" fill="rgba(0,0,0,0)" cursor="pointer"><title>Music Journals</title></polygon><polygon points="3451,1424 3451,1494 4336,1494 4336,1424" fill="rgba(0,0,0,0)" cursor="pointer"><title>Numismatics Journals</title></polygon><polygon points="3451,1494 3451,1571 4336,1571 4336,1494" fill="rgba(0,0,0,0)" cursor="pointer"><title>Philosophy Journals</title></polygon><polygon points="3451,1610 3451,1699 4336,1699 4336,1610" fill="rgba(0,0,0,0)" cursor="pointer"><title>Portugese Journals</title></polygon><polygon points="3451,1699 3451,1763 4336,1763 4336,1699" fill="rgba(0,0,0,0)" cursor="pointer"><title>Scandinavian Journals</title></polygon><polygon points="3451,1763 3451,1834 4336,1834 4336,1763" fill="rgba(0,0,0,0)" cursor="pointer"><title>Semitic Journals</title></polygon><polygon points="3451,1898 3451,1962 4336,1962 4336,1898" fill="rgba(0,0,0,0)" cursor="pointer"><title>Slavonic Journals</title></polygon><polygon points="3451,1962 3451,2032 4336,2032 4336,1962" fill="rgba(0,0,0,0)" cursor="pointer"><title>Spanish Journals</title></polygon><polygon points="3451,2032 3451,2096 4336,2096 4336,2032" fill="rgba(0,0,0,0)" cursor="pointer"><title>Textiles Journals</title></polygon><polygon points="3451,2170 3451,2237 4336,2237 4336,2170" fill="rgba(0,0,0,0)" cursor="pointer"><title>Theatre Journals</title></polygon><polygon points="3451,2237 3451,2301 4336,2301 4336,2237" fill="rgba(0,0,0,0)" cursor="pointer"><title>Theology Journals</title></polygon><polygon points="3451,2301 3451,2362 4336,2362 4336,2301" fill="rgba(0,0,0,0)" cursor="pointer"><title>YAHS Journals</title></polygon><polygon points="3451,2432 3451,2496 4336,2496 4336,2432" fill="rgba(0,0,0,0)" cursor="pointer"><title>Yorkshire Journals</title></polygon><polygon points="3451,2523 3451,2696 4336,2696 4336,2523" fill="rgba(0,0,0,0)" cursor="pointer"><title>All Large Journals &amp; Foreign Newspapers</title></polygon><polygon points="3877,5392 4091,5392 4091,4422 3877,4422" fill="rgba(0,0,0,0)" cursor="pointer"><title>Art</title></polygon><polygon points="4189,5392 4335,5392 4335,4422 4189,4422" fill="rgba(0,0,0,0)" cursor="pointer"><title>Art</title></polygon><polygon points="4390,5392 4681,5392 4681,4422 4390,4422" fill="rgba(0,0,0,0)" cursor="pointer"><title>Art</title></polygon><polygon points="3381,5392 3797,5392 3797,4422 3381,4422" fill="rgba(0,0,0,0)" cursor="pointer"><title>Art</title></polygon><polygon points="1322,5392 1744,5392 1744,4422 1322,4422" fill="rgba(0,0,0,0)" cursor="pointer"><title>Theatre</title></polygon><polygon points="1781,5392 1930,5392 1930,4422 1781,4422" fill="rgba(0,0,0,0)" cursor="pointer"><title>Textiles</title></polygon><polygon points="2339,5392 2596,5392 2596,4422 2339,4422" fill="rgba(0,0,0,0)" cursor="pointer"><title>Music</title></polygon><polygon points="2002,5392 2256,5392 2256,4422 2002,4422" fill="rgba(0,0,0,0)" cursor="pointer"><title>Music</title></polygon><polygon points="2697,5392 3113,5392 3113,4422 2697,4422" fill="rgba(0,0,0,0)" cursor="pointer"><title>Communications Studies</title></polygon><polygon points="3170,5392 3316,5392 3316,4422 3170,4422" fill="rgba(0,0,0,0)" cursor="pointer"><title>Communications Studies</title></polygon><polygon points="4681,5392 4813,5392 4813,4422 4681,4422" fill="rgba(0,0,0,0)" cursor="pointer"><title>Recently Returned</title></polygon><polygon points="1299,5608 1299,6072 3363,6066 3363,5608" fill="rgba(0,0,0,0)" cursor="pointer"><title>Silent Study Area &amp; Library PCs</title></polygon></svg>