<svg viewBox="0,0,5077,5784" width="50%" xmlns="http://www.w3.org/2000/svg" xmlns:xlink="http://www.w3.org/1999/xlink"><image xlink:href="https://floorplans.library.leeds.ac.uk//assets/images/brotherton-m3.png"/><polygon points="4198,2012 4206,2057 4214,2091 4226,2179 5049,2076 5031,1945 5007,1828 4198,2012" fill="rgba(0,0,0,0)" cursor="pointer"><title>Pamphlets</title></polygon><polygon points="4153,1854 4180,1940 4198,2012 5007,1828 4976,1706 4936,1582 4153,1854" fill="rgba(0,0,0,0)" cursor="pointer"><title>Large Latin</title></polygon><polygon points="4098,1725 4129,1791 4153,1854 4936,1582 4895,1474 4854,1382 4098,1725" fill="rgba(0,0,0,0)" cursor="pointer"><title>Large Greek</title></polygon><polygon points="4040,1604 4076,1674 4098,1725 4854,1382 4824,1318 4792,1258 4758,1192 4040,1604" fill="rgba(0,0,0,0)" cursor="pointer"><title>Large General Classics</title></polygon><polygon points="3868,1372 3928,1444 3983,1519 4040,1604 4758,1192 4734,1154 4658,1036 4574,923 4482,813 3868,1372" fill="rgba(0,0,0,0)" cursor="pointer"><title>Large Ancient History</title></polygon><polygon points="4026,1802 4067,1910 4109,2075 4128,2193 4136,2317 4126,2507 4109,2617 4214,2640 4234,2516 4244,2418 4244,2310 4226,2179 4214,2091 4187,1968 4153,1854 4113,1755 4026,1802" fill="rgba(0,0,0,0)" cursor="pointer"><title>General Reference</title></polygon><polygon points="1401,2117 1431,1978 1474,1847 1482,1822 1394,1790 1384,1812 1338,1944 1300,2130 1284,2314 1287,2452 1309,2609 1407,2595 1389,2456 1383,2316 1401,2117" fill="rgba(0,0,0,0)" cursor="pointer"><title>General Reference</title></polygon><polygon points="2074,1632 2161,1557 2259,1492 2132,1290 2022,1363 1916,1453 2074,1632" fill="rgba(0,0,0,0)" cursor="pointer"><title>Atlases</title></polygon><polygon points="1446,1670 1489,1591 1554,1489 1696,1318 1764,1252 1838,1188 1920,1128 1998,1078 2074,1032 1694,296 1606,348 1530,392 1454,442 1384,492 1332,534 1262,594 1198,650 1130,714 1062,788 1000,856 930,940 814,1112 708,1296 1446,1670" fill="rgba(0,0,0,0)" cursor="pointer"><title>Latin</title></polygon><polygon points="1282,2334 1286,2249 1298,2134 1318,2021 1347,1910 1386,1802 1433,1695 1446,1674 708,1296 630,1468 563,1651 512,1838 477,2029 459,2223 457,2329 1282,2334" fill="rgba(0,0,0,0)" cursor="pointer"><title>Greek</title></polygon><polygon points="1321,2661 1306,2608 1291,2486 1284,2367 1282,2334 455,2333 457,2421 472,2623 509,2840 1321,2661" fill="rgba(0,0,0,0)" cursor="pointer"><title>General Classics</title></polygon><polygon points="2095,3666 2047,3636 1980,3597 1917,3555 1852,3507 1786,3454 1762,3433 1679,3350 1617,3278 1430,2986 1341,2754 1321,2661 509,2840 567,3055 648,3267 746,3467 861,3652 993,3825 1142,3984 1308,4130 1490,4262 1690,4381 1735,4405 2095,3666" fill="rgba(0,0,0,0)" cursor="pointer"><title>Ancient History</title></polygon><polygon points="1906,4490 2180,3702 2095,3666 1735,4405 1906,4490" fill="rgba(0,0,0,0)" cursor="pointer"><title>Recently Returned</title></polygon><polygon points="3259,1230 3434,1327 3595,1459 3443,1619 3298,1507 3147,1426 3259,1230" fill="rgba(0,0,0,0)" cursor="pointer"><title>Journals</title></polygon><polygon points="2177,398 2409,395 2406,867 2192,939 2177,398" fill="rgba(0,0,0,0)" cursor="pointer"><title>Library PCs</title></polygon><polygon points="2308,2582 2484,2754 1960,3318 1782,3144 2308,2582" fill="rgba(0,0,0,0)" cursor="pointer"><title>Library PCs</title></polygon><polygon points="3266,3190 3462,3036 3606,2844 3804,2968 3626,3206 3382,3392 3266,3190" fill="rgba(0,0,0,0)" cursor="pointer"><title>Self-service units</title></polygon><polygon points="2452,2086 2564,1996 2704,1948 2890,1964 3002,2022 3078,2098 3146,2206 3162,2340 3150,2470 3090,2588 2980,2686 2850,2744 2676,2748 2534,2672 2434,2570 2378,2450 2360,2320 2382,2208 2452,2086" fill="rgba(0,0,0,0)" cursor="pointer"><title>Computer Catalogues &amp; Library PCs</title></polygon><polygon points="2610,4362 2916,4366 2916,4506 2866,4542 2756,4558 2658,4548 2612,4516 2610,4362" fill="rgba(0,0,0,0)" cursor="pointer"><title>Reception</title></polygon><polygon points="3155,4601 3240,4601 3240,4686 3155,4686 3155,4601" fill="rgba(0,0,0,0)" cursor="pointer"><title>Book Return</title></polygon><polygon points="4086,3012 4956,3013 4885,3221 4784,3425 4064,3059 4086,3012" fill="rgba(0,0,0,0)" cursor="pointer"><title>Print, Copy, Scan</title></polygon><polygon points="4214,2640 5009,2790 4963,2983 4102,2986 4170,2818 4214,2640" fill="rgba(0,0,0,0)" cursor="pointer"><title>Enquiries &amp; Requested items</title></polygon><polygon points="1690,-41 2400,-40 2400,368 1786,380 1695,203 1690,-41" fill="rgba(0,0,0,0)" cursor="pointer"><title>Link to West Building</title></polygon></svg>