<svg viewBox="0,0,5000,2577" width="50%" xmlns="http://www.w3.org/2000/svg" xmlns:xlink="http://www.w3.org/1999/xlink"><image xlink:href="https://floorplans.library.leeds.ac.uk//assets/images/edwardboyle-8.png"/><polygon points="4474,1760 4493,1760 4493,1506 4474,1506" fill="rgba(0,0,0,0)" cursor="pointer"><title>Reshelving Area</title></polygon><polygon points="4474,1790 4493,1790 4493,2077 4474,2077" fill="rgba(0,0,0,0)" cursor="pointer"><title>Reshelving Area</title></polygon><polygon points="4363,2077 4394,2077 4394,1663 4363,1663" fill="rgba(0,0,0,0)" cursor="pointer"><title>Official Publications</title></polygon><polygon points="4319,2077 4350,2077 4350,1663 4319,1663" fill="rgba(0,0,0,0)" cursor="pointer"><title>Official Publications</title></polygon><polygon points="4279,2077 4310,2077 4310,1663 4279,1663" fill="rgba(0,0,0,0)" cursor="pointer"><title>Official Publications</title></polygon><polygon points="4234,2077 4266,2077 4266,1663 4234,1663" fill="rgba(0,0,0,0)" cursor="pointer"><title>Official Publications</title></polygon><polygon points="4192,2077 4224,2077 4224,1663 4192,1663" fill="rgba(0,0,0,0)" cursor="pointer"><title>Official Publications</title></polygon><polygon points="4152,2077 4184,2077 4184,1594 4152,1594" fill="rgba(0,0,0,0)" cursor="pointer"><title>Official Publications</title></polygon><polygon points="4107,2077 4139,2077 4139,1594 4107,1594" fill="rgba(0,0,0,0)" cursor="pointer"><title>Official Publications</title></polygon><polygon points="4064,2077 4094,2077 4094,1594 4064,1594" fill="rgba(0,0,0,0)" cursor="pointer"><title>Stack</title></polygon><polygon points="4020,2077 4052,2077 4052,1801 4020,1801" fill="rgba(0,0,0,0)" cursor="pointer"><title>Stack</title></polygon><polygon points="4020,1738 4052,1738 4052,1594 4020,1594" fill="rgba(0,0,0,0)" cursor="pointer"><title>Stack</title></polygon><polygon points="3976,2077 4008,2077 4008,1594 3976,1594" fill="rgba(0,0,0,0)" cursor="pointer"><title>Stack</title></polygon><polygon points="3932,2077 3964,2077 3964,1594 3932,1594" fill="rgba(0,0,0,0)" cursor="pointer"><title>Stack</title></polygon><polygon points="3888,2077 3920,2077 3920,1594 3888,1594" fill="rgba(0,0,0,0)" cursor="pointer"><title>Stack</title></polygon><polygon points="3845,2077 3877,2077 3877,1594 3845,1594" fill="rgba(0,0,0,0)" cursor="pointer"><title>Stack</title></polygon><polygon points="3800,2077 3832,2077 3832,1594 3800,1594" fill="rgba(0,0,0,0)" cursor="pointer"><title>Stack</title></polygon><polygon points="3755,2077 3787,2077 3787,1594 3755,1594" fill="rgba(0,0,0,0)" cursor="pointer"><title>Stack</title></polygon><polygon points="3669,2077 3701,2077 3701,1594 3669,1594" fill="rgba(0,0,0,0)" cursor="pointer"><title>Stack</title></polygon><polygon points="3714,2077 3746,2077 3746,1594 3714,1594" fill="rgba(0,0,0,0)" cursor="pointer"><title>Stack</title></polygon><polygon points="3624,2077 3656,2077 3656,1594 3624,1594" fill="rgba(0,0,0,0)" cursor="pointer"><title>Stack</title></polygon><polygon points="3581,2077 3613,2077 3613,1594 3581,1594" fill="rgba(0,0,0,0)" cursor="pointer"><title>Stack</title></polygon><polygon points="3536,2213 3568,2213 3568,1800 3536,1800" fill="rgba(0,0,0,0)" cursor="pointer"><title>Stack</title></polygon><polygon points="3536,1738 3568,1738 3568,1594 3536,1594" fill="rgba(0,0,0,0)" cursor="pointer"><title>Stack</title></polygon><polygon points="3485,2213 3523,2213 3523,1594 3485,1594" fill="rgba(0,0,0,0)" cursor="pointer"><title>Stack</title></polygon><polygon points="3429,2213 3469,2213 3469,1594 3429,1594" fill="rgba(0,0,0,0)" cursor="pointer"><title>Stack</title></polygon><polygon points="3374,2213 3414,2213 3414,1594 3374,1594" fill="rgba(0,0,0,0)" cursor="pointer"><title>Stack</title></polygon><polygon points="3318,2213 3360,2213 3360,1594 3318,1594" fill="rgba(0,0,0,0)" cursor="pointer"><title>Stack</title></polygon><polygon points="3283,2213 3304,2213 3304,1594 3283,1594" fill="rgba(0,0,0,0)" cursor="pointer"><title>Stack</title></polygon><polygon points="3179,2213 3192,2213 3192,1800 3179,1800" fill="rgba(0,0,0,0)" cursor="pointer"><title>Maps</title></polygon><polygon points="3179,1738 3192,1738 3192,1594 3179,1594" fill="rgba(0,0,0,0)" cursor="pointer"><title>Maps</title></polygon><polygon points="3264,2213 3283,2213 3283,1594 3264,1594" fill="rgba(0,0,0,0)" cursor="pointer"><title>Stack Large</title></polygon><polygon points="3210,2213 3248,2213 3248,1594 3210,1594" fill="rgba(0,0,0,0)" cursor="pointer"><title>Stack Large</title></polygon><polygon points="3162,2213 3179,2213 3179,1800 3162,1800" fill="rgba(0,0,0,0)" cursor="pointer"><title>Journal</title></polygon><polygon points="3162,1738 3179,1738 3179,1594 3162,1594" fill="rgba(0,0,0,0)" cursor="pointer"><title>Journal</title></polygon><polygon points="3107,2213 3146,2213 3146,1594 3107,1594" fill="rgba(0,0,0,0)" cursor="pointer"><title>Journal</title></polygon><polygon points="3051,2213 3091,2213 3091,1594 3051,1594" fill="rgba(0,0,0,0)" cursor="pointer"><title>Journal</title></polygon><polygon points="2997,2213 3037,2213 3037,1594 2997,1594" fill="rgba(0,0,0,0)" cursor="pointer"><title>Journal</title></polygon><polygon points="2941,2213 2981,2213 2981,1594 2941,1594" fill="rgba(0,0,0,0)" cursor="pointer"><title>Journal</title></polygon><polygon points="2886,2213 2925,2213 2925,1594 2886,1594" fill="rgba(0,0,0,0)" cursor="pointer"><title>Journal</title></polygon><polygon points="2832,2213 2870,2213 2870,1594 2832,1594" fill="rgba(0,0,0,0)" cursor="pointer"><title>Journal</title></polygon><polygon points="2779,2213 2818,2213 2818,1594 2779,1594" fill="rgba(0,0,0,0)" cursor="pointer"><title>Journal</title></polygon><polygon points="2723,2213 2762,2213 2762,1594 2723,1594" fill="rgba(0,0,0,0)" cursor="pointer"><title>Journal</title></polygon><polygon points="2669,2213 2707,2213 2707,1594 2669,1594" fill="rgba(0,0,0,0)" cursor="pointer"><title>Journal</title></polygon><polygon points="2614,2213 2653,2213 2653,1594 2614,1594" fill="rgba(0,0,0,0)" cursor="pointer"><title>Journal</title></polygon><polygon points="2570,2213 2602,2213 2602,1594 2570,1594" fill="rgba(0,0,0,0)" cursor="pointer"><title>Journal</title></polygon><polygon points="2528,2213 2560,2213 2560,1594 2528,1594" fill="rgba(0,0,0,0)" cursor="pointer"><title>Journal</title></polygon><polygon points="2486,2213 2517,2213 2517,1594 2486,1594" fill="rgba(0,0,0,0)" cursor="pointer"><title>Journal</title></polygon><polygon points="2440,2213 2472,2213 2472,1594 2440,1594" fill="rgba(0,0,0,0)" cursor="pointer"><title>Journal</title></polygon><polygon points="2397,2213 2429,2213 2429,1594 2397,1594" fill="rgba(0,0,0,0)" cursor="pointer"><title>Journal</title></polygon><polygon points="2352,2213 2384,2213 2384,1594 2352,1594" fill="rgba(0,0,0,0)" cursor="pointer"><title>Journal</title></polygon><polygon points="2309,2213 2341,2213 2341,1594 2309,1594" fill="rgba(0,0,0,0)" cursor="pointer"><title>Journal</title></polygon><polygon points="2266,2213 2298,2213 2298,1594 2266,1594" fill="rgba(0,0,0,0)" cursor="pointer"><title>Journal</title></polygon><polygon points="2222,2213 2256,2213 2256,1594 2222,1594" fill="rgba(0,0,0,0)" cursor="pointer"><title>Journal</title></polygon><polygon points="2179,2213 2211,2213 2211,1594 2179,1594" fill="rgba(0,0,0,0)" cursor="pointer"><title>Journal</title></polygon><polygon points="2134,2213 2166,2213 2166,1594 2134,1594" fill="rgba(0,0,0,0)" cursor="pointer"><title>Journal</title></polygon><polygon points="2090,2213 2122,2213 2122,1800 2090,1800" fill="rgba(0,0,0,0)" cursor="pointer"><title>Journal</title></polygon><polygon points="2090,1738 2122,1738 2122,1594 2090,1594" fill="rgba(0,0,0,0)" cursor="pointer"><title>Journal</title></polygon><polygon points="2048,2213 2080,2213 2080,1594 2048,1594" fill="rgba(0,0,0,0)" cursor="pointer"><title>Journal</title></polygon><polygon points="2003,2213 2035,2213 2035,1594 2003,1594" fill="rgba(0,0,0,0)" cursor="pointer"><title>Journal</title></polygon><polygon points="1960,2213 1992,2213 1992,1594 1960,1594" fill="rgba(0,0,0,0)" cursor="pointer"><title>Journal</title></polygon><polygon points="1915,2213 1947,2213 1947,1594 1915,1594" fill="rgba(0,0,0,0)" cursor="pointer"><title>Journal</title></polygon><polygon points="1872,2213 1904,2213 1904,1594 1872,1594" fill="rgba(0,0,0,0)" cursor="pointer"><title>Journal</title></polygon><polygon points="1828,2213 1860,2213 1860,1594 1828,1594" fill="rgba(0,0,0,0)" cursor="pointer"><title>Journal</title></polygon><polygon points="1622,2213 1654,2213 1654,1864 1622,1864" fill="rgba(0,0,0,0)" cursor="pointer"><title>Journal</title></polygon><polygon points="1578,2213 1610,2213 1610,1864 1578,1864" fill="rgba(0,0,0,0)" cursor="pointer"><title>Journal</title></polygon><polygon points="1536,2213 1568,2213 1568,1864 1536,1864" fill="rgba(0,0,0,0)" cursor="pointer"><title>Journal</title></polygon><polygon points="1494,2213 1526,2213 1526,1864 1494,1864" fill="rgba(0,0,0,0)" cursor="pointer"><title>Journal</title></polygon><polygon points="1450,2213 1482,2213 1482,1864 1450,1864" fill="rgba(0,0,0,0)" cursor="pointer"><title>Journal</title></polygon><polygon points="1405,2213 1437,2213 1437,1864 1405,1864" fill="rgba(0,0,0,0)" cursor="pointer"><title>Journal</title></polygon><polygon points="1363,2213 1395,2213 1395,1864 1363,1864" fill="rgba(0,0,0,0)" cursor="pointer"><title>Journal</title></polygon><polygon points="1322,2213 1354,2213 1354,1864 1322,1864" fill="rgba(0,0,0,0)" cursor="pointer"><title>Journal</title></polygon><polygon points="1277,2213 1309,2213 1309,1864 1277,1864" fill="rgba(0,0,0,0)" cursor="pointer"><title>Journal</title></polygon><polygon points="1235,2213 1267,2213 1267,1864 1235,1864" fill="rgba(0,0,0,0)" cursor="pointer"><title>Journal</title></polygon><polygon points="1190,2213 1222,2213 1222,1864 1190,1864" fill="rgba(0,0,0,0)" cursor="pointer"><title>Journal</title></polygon><polygon points="1146,2213 1178,2213 1178,1864 1146,1864" fill="rgba(0,0,0,0)" cursor="pointer"><title>Journal</title></polygon><polygon points="1107,2213 1139,2213 1139,1864 1107,1864" fill="rgba(0,0,0,0)" cursor="pointer"><title>Journal</title></polygon><polygon points="1062,2213 1094,2213 1094,1864 1062,1864" fill="rgba(0,0,0,0)" cursor="pointer"><title>Journal</title></polygon><polygon points="1018,2213 1050,2213 1050,1864 1018,1864" fill="rgba(0,0,0,0)" cursor="pointer"><title>Journal</title></polygon><polygon points="976,2213 1008,2213 1008,1864 976,1864" fill="rgba(0,0,0,0)" cursor="pointer"><title>Journal</title></polygon><polygon points="933,2213 965,2213 965,1864 933,1864" fill="rgba(0,0,0,0)" cursor="pointer"><title>Journal</title></polygon><polygon points="893,2213 925,2213 925,1864 893,1864" fill="rgba(0,0,0,0)" cursor="pointer"><title>Journal</title></polygon><polygon points="848,2213 880,2213 880,1864 848,1864" fill="rgba(0,0,0,0)" cursor="pointer"><title>Journal</title></polygon><polygon points="803,2213 835,2213 835,1864 803,1864" fill="rgba(0,0,0,0)" cursor="pointer"><title>Journal</title></polygon><polygon points="762,2213 794,2213 794,1864 762,1864" fill="rgba(0,0,0,0)" cursor="pointer"><title>Journal</title></polygon><polygon points="717,2213 749,2213 749,1864 717,1864" fill="rgba(0,0,0,0)" cursor="pointer"><title>Journal</title></polygon><polygon points="678,2213 710,2213 710,1864 678,1864" fill="rgba(0,0,0,0)" cursor="pointer"><title>Journal</title></polygon><polygon points="1616,1732 1634,1732 1634,1520 1616,1520" fill="rgba(0,0,0,0)" cursor="pointer"><title>Journal</title></polygon><polygon points="1571,1732 1603,1732 1603,1520 1571,1520" fill="rgba(0,0,0,0)" cursor="pointer"><title>Journal</title></polygon><polygon points="1528,1732 1560,1732 1560,1520 1528,1520" fill="rgba(0,0,0,0)" cursor="pointer"><title>Journal</title></polygon><polygon points="1483,1732 1515,1732 1515,1520 1483,1520" fill="rgba(0,0,0,0)" cursor="pointer"><title>Journal</title></polygon><polygon points="1440,1732 1472,1732 1472,1520 1440,1520" fill="rgba(0,0,0,0)" cursor="pointer"><title>Journal</title></polygon><polygon points="1398,1732 1430,1732 1430,1520 1398,1520" fill="rgba(0,0,0,0)" cursor="pointer"><title>Journal</title></polygon><polygon points="1354,1732 1386,1732 1386,1520 1354,1520" fill="rgba(0,0,0,0)" cursor="pointer"><title>Journal</title></polygon><polygon points="1315,1732 1347,1732 1347,1520 1315,1520" fill="rgba(0,0,0,0)" cursor="pointer"><title>Journal</title></polygon><polygon points="1270,1732 1302,1732 1302,1520 1270,1520" fill="rgba(0,0,0,0)" cursor="pointer"><title>Journal</title></polygon><polygon points="1226,1732 1258,1732 1258,1520 1226,1520" fill="rgba(0,0,0,0)" cursor="pointer"><title>Journal</title></polygon><polygon points="1197,1732 1216,1732 1216,1520 1197,1520" fill="rgba(0,0,0,0)" cursor="pointer"><title>Journal</title></polygon><polygon points="514,2237 546,2237 546,1866 514,1866" fill="rgba(0,0,0,0)" cursor="pointer"><title>Journal</title></polygon><polygon points="470,2237 502,2237 502,1866 470,1866" fill="rgba(0,0,0,0)" cursor="pointer"><title>Journal</title></polygon><polygon points="430,2237 462,2237 462,2049 430,2049" fill="rgba(0,0,0,0)" cursor="pointer"><title>Journal</title></polygon><polygon points="430,1994 462,1994 462,1866 430,1866" fill="rgba(0,0,0,0)" cursor="pointer"><title>Journal</title></polygon><polygon points="2112,1520 2600,1520 2600,1494 2112,1494" fill="rgba(0,0,0,0)" cursor="pointer"><title>Reshelving Area</title></polygon><polygon points="330,1737 672,1737 672,1720 330,1720" fill="rgba(0,0,0,0)" cursor="pointer"><title>Reshelving Area</title></polygon><polygon points="300,1875 320,1875 320,1731 300,1731" fill="rgba(0,0,0,0)" cursor="pointer"><title>Reshelving Area</title></polygon><polygon points="300,1971 320,1971 320,1894 300,1894" fill="rgba(0,0,0,0)" cursor="pointer"><title>Reshelving Area</title></polygon><polygon points="292,840 1140,840 1140,1700 292,1700" fill="rgba(0,0,0,0)" cursor="pointer"><title>Group Training Room</title></polygon><polygon points="4384,1504 4384,1632 4480,1632 4480,1504" fill="rgba(0,0,0,0)" cursor="pointer"><title>Print Zone</title></polygon><polygon points="3547,149 4503,149 4503,1158 4348,1158 4350,1185 4037,1185 4037,1095 3547,1095" fill="rgba(0,0,0,0)" cursor="pointer"><title>Silent Study Area</title></polygon><polygon points="2593,149 3538,149 3538,1149 2593,1149" fill="rgba(0,0,0,0)" cursor="pointer"><title>Silent Study Area</title></polygon><polygon points="3091,1347 3210,1347 3210,1501 3091,1501" fill="rgba(0,0,0,0)" cursor="pointer"><title>Print Zone</title></polygon><polygon points="1946,442 2115,442 2115,614 1946,614" fill="rgba(0,0,0,0)" cursor="pointer"><title>Group Booth 8.7</title></polygon><polygon points="2115,442 2288,442 2288,614 2115,614" fill="rgba(0,0,0,0)" cursor="pointer"><title>Group Booth 8.8</title></polygon><polygon points="2115,614 2288,614 2288,787 2115,787" fill="rgba(0,0,0,0)" cursor="pointer"><title>Group Booth 8.9</title></polygon><polygon points="1946,614 2115,614 2115,787 1946,787" fill="rgba(0,0,0,0)" cursor="pointer"><title>Group Booth 8.10</title></polygon><polygon points="1178,442 1353,442 1353,614 1178,614" fill="rgba(0,0,0,0)" cursor="pointer"><title>Group Booth 8.12</title></polygon><polygon points="1353,442 1526,442 1526,614 1353,614" fill="rgba(0,0,0,0)" cursor="pointer"><title>Group Booth 8.11</title></polygon><polygon points="2358,779 2584,779 2584,1091 2358,1091" fill="rgba(0,0,0,0)" cursor="pointer"><title>Group Study Room 8.6</title></polygon><polygon points="2358,466 2584,466 2584,769 2358,769" fill="rgba(0,0,0,0)" cursor="pointer"><title>Group Study Room 8.5</title></polygon><polygon points="2358,149 2584,149 2584,456 2358,456" fill="rgba(0,0,0,0)" cursor="pointer"><title>Group Study Room 8.4</title></polygon><polygon points="1404,832 1639,832 1639,1091 1404,1091" fill="rgba(0,0,0,0)" cursor="pointer"><title>Group Study Room 8.3</title></polygon><polygon points="1159,832 1395,832 1395,1091 1159,1091" fill="rgba(0,0,0,0)" cursor="pointer"><title>Group Study Room 8.2</title></polygon><polygon points="301,352 534,352 534,826 301,826" fill="rgba(0,0,0,0)" cursor="pointer"><title>Group Study Room 8.1</title></polygon><polygon points="1536,349 1920,349 1920,790 1536,790" fill="rgba(0,0,0,0)" cursor="pointer"><title>Group Study Area</title></polygon></svg>