<svg viewBox="0,0,3840,5952" width="50%" xmlns="http://www.w3.org/2000/svg" xmlns:xlink="http://www.w3.org/1999/xlink"><image xlink:href="https://floorplans.library.leeds.ac.uk//assets/images/health-sciences-scaled.png"/><polygon points="912,3450 1222,3450 1222,3488 912,3488" fill="rgba(0,0,0,0)" cursor="pointer"><title>Abstracts</title></polygon><polygon points="1264,3450 1330,3450 1330,3488 1264,3488" fill="rgba(0,0,0,0)" cursor="pointer"><title>Abstracts</title></polygon><polygon points="912,3488 1222,3488 1222,3528 912,3528" fill="rgba(0,0,0,0)" cursor="pointer"><title>Periodicals</title></polygon><polygon points="1264,3488 1517,3488 1517,3528 1264,3528" fill="rgba(0,0,0,0)" cursor="pointer"><title>Periodicals</title></polygon><polygon points="912,3554 1222,3554 1222,3638 912,3638" fill="rgba(0,0,0,0)" cursor="pointer"><title>Periodicals</title></polygon><polygon points="912,3666 1222,3666 1222,3746 912,3746" fill="rgba(0,0,0,0)" cursor="pointer"><title>Periodicals</title></polygon><polygon points="912,3772 1222,3772 1222,3852 912,3852" fill="rgba(0,0,0,0)" cursor="pointer"><title>Periodicals</title></polygon><polygon points="912,3882 1222,3882 1222,3958 912,3958" fill="rgba(0,0,0,0)" cursor="pointer"><title>Periodicals</title></polygon><polygon points="912,3986 1222,3986 1222,4068 912,4068" fill="rgba(0,0,0,0)" cursor="pointer"><title>Periodicals</title></polygon><polygon points="912,4094 1222,4094 1222,4136 912,4136" fill="rgba(0,0,0,0)" cursor="pointer"><title>Periodicals</title></polygon><polygon points="1264,3554 1517,3554 1517,3638 1264,3638" fill="rgba(0,0,0,0)" cursor="pointer"><title>Periodicals</title></polygon><polygon points="1264,3666 1517,3666 1517,3746 1264,3746" fill="rgba(0,0,0,0)" cursor="pointer"><title>Periodicals</title></polygon><polygon points="1264,3772 1517,3772 1517,3852 1264,3852" fill="rgba(0,0,0,0)" cursor="pointer"><title>Periodicals</title></polygon><polygon points="1264,3882 1517,3882 1517,3958 1264,3958" fill="rgba(0,0,0,0)" cursor="pointer"><title>Periodicals</title></polygon><polygon points="1264,3986 1517,3986 1517,4068 1264,4068" fill="rgba(0,0,0,0)" cursor="pointer"><title>Periodicals</title></polygon><polygon points="1264,4094 1517,4094 1517,4136 1264,4136" fill="rgba(0,0,0,0)" cursor="pointer"><title>Periodicals</title></polygon><polygon points="2678,3454 2887,3454 2887,3522 2678,3522" fill="rgba(0,0,0,0)" cursor="pointer"><title>Psychology</title></polygon><polygon points="2938,3454 3278,3454 3278,3522 2938,3522" fill="rgba(0,0,0,0)" cursor="pointer"><title>Psychology</title></polygon><polygon points="2678,3554 2887,3554 2887,3624 2678,3624" fill="rgba(0,0,0,0)" cursor="pointer"><title>Psychology</title></polygon><polygon points="2938,3554 3278,3554 3278,3624 2938,3624" fill="rgba(0,0,0,0)" cursor="pointer"><title>Psychology</title></polygon><polygon points="2678,3656 2887,3656 2887,3726 2678,3726" fill="rgba(0,0,0,0)" cursor="pointer"><title>Psychology</title></polygon><polygon points="2938,3656 3278,3656 3278,3726 2938,3726" fill="rgba(0,0,0,0)" cursor="pointer"><title>Psychology</title></polygon><polygon points="2678,3756 2887,3756 2887,3828 2678,3828" fill="rgba(0,0,0,0)" cursor="pointer"><title>Psychology</title></polygon><polygon points="2938,3756 3278,3756 3278,3828 2938,3828" fill="rgba(0,0,0,0)" cursor="pointer"><title>Psychology</title></polygon><polygon points="2678,3858 2887,3858 2887,3928 2678,3928" fill="rgba(0,0,0,0)" cursor="pointer"><title>Psychology</title></polygon><polygon points="2938,3858 3278,3858 3278,3892 3204,3892 3204,3928 2938,3928" fill="rgba(0,0,0,0)" cursor="pointer"><title>Psychology</title></polygon><polygon points="1390,4136 1517,4136 1517,4174 1390,4174" fill="rgba(0,0,0,0)" cursor="pointer"><title>Reference</title></polygon><polygon points="1330,3450 1517,3450 1517,3488 1330,3488" fill="rgba(0,0,0,0)" cursor="pointer"><title>Statistics</title></polygon><polygon points="2678,3960 2887,3960 2887,3994 2812,3994 2812,4030 2678,4030" fill="rgba(0,0,0,0)" cursor="pointer"><title>BF</title></polygon><polygon points="2938,3960 3278,3960 3278,3994 2938,3994" fill="rgba(0,0,0,0)" cursor="pointer"><title>BF</title></polygon><polygon points="3204,3892 3278,3892 3278,3928 3204,3928" fill="rgba(0,0,0,0)" cursor="pointer"><title>BF</title></polygon><polygon points="2812,3994 2837,3994 2837,4006 2812,4006" fill="rgba(0,0,0,0)" cursor="pointer"><title>BL</title></polygon><polygon points="2837,3994 2862,3994 2862,4006 2837,4006" fill="rgba(0,0,0,0)" cursor="pointer"><title>BM</title></polygon><polygon points="2862,3994 2887,3994 2887,4006 2862,4006" fill="rgba(0,0,0,0)" cursor="pointer"><title>GN</title></polygon><polygon points="2812,4006 2837,4006 2837,4018 2812,4018" fill="rgba(0,0,0,0)" cursor="pointer"><title>HM</title></polygon><polygon points="2837,4006 2862,4006 2862,4018 2837,4018" fill="rgba(0,0,0,0)" cursor="pointer"><title>HV</title></polygon><polygon points="2812,4018 2837,4018 2837,4030 2812,4030" fill="rgba(0,0,0,0)" cursor="pointer"><title>QA</title></polygon><polygon points="2837,4018 2862,4018 2862,4030 2837,4030" fill="rgba(0,0,0,0)" cursor="pointer"><title>QB</title></polygon><polygon points="2862,4018 2887,4018 2887,4030 2862,4030" fill="rgba(0,0,0,0)" cursor="pointer"><title>QC</title></polygon><polygon points="2938,3994 2973,3994 2973,4030 2938,4030" fill="rgba(0,0,0,0)" cursor="pointer"><title>QD</title></polygon><polygon points="2973,3994 3204,3994 3204,4030 2973,4030" fill="rgba(0,0,0,0)" cursor="pointer"><title>QH</title></polygon><polygon points="3204,3994 3229,3994 3229,4030 3204,4030" fill="rgba(0,0,0,0)" cursor="pointer"><title>QL</title></polygon><polygon points="3229,3994 3254,3994 3254,4030 3229,4030" fill="rgba(0,0,0,0)" cursor="pointer"><title>QP</title></polygon><polygon points="3254,3994 3278,3994 3278,4030 3254,4030" fill="rgba(0,0,0,0)" cursor="pointer"><title>QS</title></polygon><polygon points="2678,4058 2887,4058 2887,4132 2678,4132" fill="rgba(0,0,0,0)" cursor="pointer"><title>QS</title></polygon><polygon points="2938,4058 3278,4058 3278,4096 2938,4096" fill="rgba(0,0,0,0)" cursor="pointer"><title>QS</title></polygon><polygon points="2938,4096 3278,4096 3278,4132 2938,4132" fill="rgba(0,0,0,0)" cursor="pointer"><title>QT</title></polygon><polygon points="3140,4164 3278,4164 3278,4198 3140,4198" fill="rgba(0,0,0,0)" cursor="pointer"><title>QT</title></polygon><polygon points="2938,4164 3140,4164 3140,4198 2938,4198" fill="rgba(0,0,0,0)" cursor="pointer"><title>QU</title></polygon><polygon points="2750,4164 2887,4164 2887,4198 2750,4196" fill="rgba(0,0,0,0)" cursor="pointer"><title>QU</title></polygon><polygon points="2678,4164 2750,4164 2750,4198 2887,4198 2887,4234 2678,4234" fill="rgba(0,0,0,0)" cursor="pointer"><title>QV</title></polygon><polygon points="2938,4198 3278,4198 3278,4234 2938,4234" fill="rgba(0,0,0,0)" cursor="pointer"><title>QV</title></polygon><polygon points="3204,4264 3278,4264 3278,4296 3204,4296" fill="rgba(0,0,0,0)" cursor="pointer"><title>QV</title></polygon><polygon points="2750,4264 2887,4264 2887,4296 2750,4296" fill="rgba(0,0,0,0)" cursor="pointer"><title>QW</title></polygon><polygon points="2938,4264 3204,4264 3204,4296 2938,4296" fill="rgba(0,0,0,0)" cursor="pointer"><title>QW</title></polygon><polygon points="2678,4264 2750,4264 2750,4296 2678,4296" fill="rgba(0,0,0,0)" cursor="pointer"><title>QY</title></polygon><polygon points="2678,4296 2887,4296 2887,4334 2678,4334" fill="rgba(0,0,0,0)" cursor="pointer"><title>QZ</title></polygon><polygon points="2938,4296 3278,4296 3278,4334 2938,4334" fill="rgba(0,0,0,0)" cursor="pointer"><title>QZ</title></polygon><polygon points="3140,4366 3278,4366 3278,4400 3140,4400" fill="rgba(0,0,0,0)" cursor="pointer"><title>QZ</title></polygon><polygon points="912,4996 1036,4996 1036,5038 912,5038" fill="rgba(0,0,0,0)" cursor="pointer"><title>WQ</title></polygon><polygon points="912,5064 1222,5064 1222,5104 912,5104" fill="rgba(0,0,0,0)" cursor="pointer"><title>WQ</title></polygon><polygon points="2938,4500 3278,4500 3278,4540 2938,4540" fill="rgba(0,0,0,0)" cursor="pointer"><title>WA</title></polygon><polygon points="2678,4568 2887,4568 2887,4638 2678,4638" fill="rgba(0,0,0,0)" cursor="pointer"><title>WA</title></polygon><polygon points="2938,4568 3278,4568 3278,4638 2938,4638" fill="rgba(0,0,0,0)" cursor="pointer"><title>WA</title></polygon><polygon points="2678,4670 2887,4670 2887,4742 2678,4742" fill="rgba(0,0,0,0)" cursor="pointer"><title>WA</title></polygon><polygon points="2938,4670 3278,4670 3278,4742 2938,4742" fill="rgba(0,0,0,0)" cursor="pointer"><title>WA</title></polygon><polygon points="2812,4770 2887,4770 2887,4804 2812,4804" fill="rgba(0,0,0,0)" cursor="pointer"><title>WA</title></polygon><polygon points="2938,4770 3278,4770 3278,4804 2938,4804" fill="rgba(0,0,0,0)" cursor="pointer"><title>WA</title></polygon><polygon points="2678,4770 2812,4770 2812,4804 2887,4804 2887,4844 2678,4844" fill="rgba(0,0,0,0)" cursor="pointer"><title>WB</title></polygon><polygon points="2938,4804 3278,4804 3278,4844 2938,4844" fill="rgba(0,0,0,0)" cursor="pointer"><title>WB</title></polygon><polygon points="2812,4874 2887,4874 2887,4908 2812,4908" fill="rgba(0,0,0,0)" cursor="pointer"><title>WB</title></polygon><polygon points="2938,4874 3278,4874 3278,4908 2938,4908" fill="rgba(0,0,0,0)" cursor="pointer"><title>WB</title></polygon><polygon points="2678,4874 2812,4874 2812,4908 2887,4908 2887,4946 2678,4946" fill="rgba(0,0,0,0)" cursor="pointer"><title>WC</title></polygon><polygon points="2938,4908 3008,4908 3008,4946 2938,4946" fill="rgba(0,0,0,0)" cursor="pointer"><title>WC</title></polygon><polygon points="3008,4908 3140,4908 3140,4946 3008,4946" fill="rgba(0,0,0,0)" cursor="pointer"><title>WD</title></polygon><polygon points="3140,4908 3278,4908 3278,4946 3140,4946" fill="rgba(0,0,0,0)" cursor="pointer"><title>WE</title></polygon><polygon points="2812,4974 2887,4974 2887,5010 2812,5010" fill="rgba(0,0,0,0)" cursor="pointer"><title>WE</title></polygon><polygon points="2938,4974 3278,4974 3278,5010 2938,5010" fill="rgba(0,0,0,0)" cursor="pointer"><title>WE</title></polygon><polygon points="2678,4974 2812,4974 2812,5010 2750,5010 2750,5046 2678,5046" fill="rgba(0,0,0,0)" cursor="pointer"><title>WF</title></polygon><polygon points="2750,5010 2887,5010 2887,5046 2750,5046" fill="rgba(0,0,0,0)" cursor="pointer"><title>WG</title></polygon><polygon points="2938,5010 3278,5010 3278,5046 2938,5046" fill="rgba(0,0,0,0)" cursor="pointer"><title>WG</title></polygon><polygon points="3008,5074 3152,5074 3152,5112 3008,5112" fill="rgba(0,0,0,0)" cursor="pointer"><title>WH</title></polygon><polygon points="2812,5074 3008,5074 3008,5112 2812,5112" fill="rgba(0,0,0,0)" cursor="pointer"><title>WI</title></polygon><polygon points="2678,5074 2812,5074 2812,5112 2750,5112 2750,5150 2678,5150" fill="rgba(0,0,0,0)" cursor="pointer"><title>WJ</title></polygon><polygon points="2750,5112 2887,5112 2887,5150 2750,5150" fill="rgba(0,0,0,0)" cursor="pointer"><title>WK</title></polygon><polygon points="2887,5112 3152,5112 3152,5150 2887,5150" fill="rgba(0,0,0,0)" cursor="pointer"><title>WL</title></polygon><polygon points="2678,5174 2887,5174 2887,5246 2678,5246" fill="rgba(0,0,0,0)" cursor="pointer"><title>WL</title></polygon><polygon points="2678,5274 2887,5274 2887,5312 2750,5312 2750,5352 2678,5352" fill="rgba(0,0,0,0)" cursor="pointer"><title>WL</title></polygon><polygon points="2750,5312 2887,5312 2887,5352 2750,5352" fill="rgba(0,0,0,0)" cursor="pointer"><title>WM</title></polygon><polygon points="2678,5376 2887,5376 2887,5452 2678,5452" fill="rgba(0,0,0,0)" cursor="pointer"><title>WM</title></polygon><polygon points="2678,5480 2887,5480 2887,5556 2678,5556" fill="rgba(0,0,0,0)" cursor="pointer"><title>WM</title></polygon><polygon points="1156,5172 1222,5172 1222,5252 912,5252 912,5212 1156,5212" fill="rgba(0,0,0,0)" cursor="pointer"><title>WM</title></polygon><polygon points="1264,5172 1517,5172 1517,5252 1264,5252" fill="rgba(0,0,0,0)" cursor="pointer"><title>WM</title></polygon><polygon points="912,5104 1096,5104 1096,5142 912,5142" fill="rgba(0,0,0,0)" cursor="pointer"><title>WN</title></polygon><polygon points="912,5172 1156,5172 1156,5212 912,5212" fill="rgba(0,0,0,0)" cursor="pointer"><title>WN</title></polygon><polygon points="1450,5064 1517,5064 1517,5142 1264,5142 1264,5104 1450,5104" fill="rgba(0,0,0,0)" cursor="pointer"><title>WO</title></polygon><polygon points="1096,5104 1222,5104 1222,5142 1096,5142" fill="rgba(0,0,0,0)" cursor="pointer"><title>WO</title></polygon><polygon points="1264,5064 1450,5064 1450,5104 1264,5104" fill="rgba(0,0,0,0)" cursor="pointer"><title>WP</title></polygon><polygon points="2862,4006 2887,4006 2887,4018 2862,4018" fill="rgba(0,0,0,0)" cursor="pointer"><title>Q</title></polygon><polygon points="1036,4996 1156,4996 1156,5038 1036,5038" fill="rgba(0,0,0,0)" cursor="pointer"><title>WR</title></polygon><polygon points="1264,4956 1517,4956 1517,5038 1264,5038" fill="rgba(0,0,0,0)" cursor="pointer"><title>WS</title></polygon><polygon points="1096,4956 1222,4956 1222,5038 1156,5038 1156,4996 1096,4996" fill="rgba(0,0,0,0)" cursor="pointer"><title>WS</title></polygon><polygon points="912,4956 1096,4956 1096,4996 915,4996" fill="rgba(0,0,0,0)" cursor="pointer"><title>WT</title></polygon><polygon points="912,4888 976,4888 976,4928 912,4928" fill="rgba(0,0,0,0)" cursor="pointer"><title>WT</title></polygon><polygon points="1096,4850 1222,4850 1222,4928 976,4928 976,4888 1096,4888" fill="rgba(0,0,0,0)" cursor="pointer"><title>WU</title></polygon><polygon points="1264,4850 1517,4850 1517,4928 1264,4928" fill="rgba(0,0,0,0)" cursor="pointer"><title>WU</title></polygon><polygon points="912,4780 1036,4780 1036,4820 912,4820" fill="rgba(0,0,0,0)" cursor="pointer"><title>WV</title></polygon><polygon points="912,4850 1096,4850 1096,4888 912,4888" fill="rgba(0,0,0,0)" cursor="pointer"><title>WV</title></polygon><polygon points="1036,4780 1096,4780 1096,4820 1036,4820" fill="rgba(0,0,0,0)" cursor="pointer"><title>WW</title></polygon><polygon points="1096,4780 1222,4780 1222,4820 1096,4820" fill="rgba(0,0,0,0)" cursor="pointer"><title>WX</title></polygon><polygon points="1264,4780 1390,4780 1390,4820 1264,4820" fill="rgba(0,0,0,0)" cursor="pointer"><title>WX</title></polygon><polygon points="912,4136 1036,4136 1036,4174 912,4174" fill="rgba(0,0,0,0)" cursor="pointer"><title>WY</title></polygon><polygon points="912,4632 1222,4632 1222,4710 912,4710" fill="rgba(0,0,0,0)" cursor="pointer"><title>WY</title></polygon><polygon points="1264,4632 1517,4632 1517,4710 1264,4710" fill="rgba(0,0,0,0)" cursor="pointer"><title>WY</title></polygon><polygon points="912,4742 1222,4742 1222,4780 912,4780" fill="rgba(0,0,0,0)" cursor="pointer"><title>WY</title></polygon><polygon points="1264,4742 1517,4742 1517,4820 1390,4820 1390,4780 1264,4780" fill="rgba(0,0,0,0)" cursor="pointer"><title>WY</title></polygon><polygon points="1036,4136 1222,4136 1222,4174 1036,4174" fill="rgba(0,0,0,0)" cursor="pointer"><title>WZ</title></polygon><polygon points="2678,4366 2887,4366 2887,4438 2678,4438" fill="rgba(0,0,0,0)" cursor="pointer"><title>W</title></polygon><polygon points="2938,4366 3140,4366 3140,4400 3278,4400 3278,4438 2938,4438" fill="rgba(0,0,0,0)" cursor="pointer"><title>W</title></polygon><polygon points="2678,4466 2887,4466 2887,4540 2678,4540" fill="rgba(0,0,0,0)" cursor="pointer"><title>W</title></polygon><polygon points="2938,4466 3278,4466 3278,4500 2938,4500" fill="rgba(0,0,0,0)" cursor="pointer"><title>W</title></polygon><polygon points="1264,4136 1390,4136 1390,4174 1264,4174" fill="rgba(0,0,0,0)" cursor="pointer"><title>Z</title></polygon><polygon points="1590,3216 1664,3216 1664,3408 1590,3408" fill="rgba(0,0,0,0)" cursor="pointer"><title>Requested Items</title></polygon><polygon points="1748,3331 1939,3331 1939,3408 1748,3408" fill="rgba(0,0,0,0)" cursor="pointer"><title>AVC</title></polygon><polygon points="2576,4056 2669,4056 2669,4339 2576,4339" fill="rgba(0,0,0,0)" cursor="pointer"><title>Pamphlets</title></polygon><polygon points="2576,4672 2669,4672 2669,4952 2576,4952" fill="rgba(0,0,0,0)" cursor="pointer"><title>Pamphlets</title></polygon><polygon points="2712,152 3728,152 3728,732 2712,732" fill="rgba(0,0,0,0)" cursor="pointer"><title>Group Study Area</title></polygon><polygon points="2566,2426 3216,2426 3216,2595 2566,2595" fill="rgba(0,0,0,0)" cursor="pointer"><title>Group Study Room 1</title></polygon><polygon points="1616,755 1616,968 1482,968 1482,1946 2605,1946 2605,752" fill="rgba(0,0,0,0)" cursor="pointer"><title>Group Study Area</title></polygon><polygon points="1536,3456 2560,3456 2560,5856 1536,5856" fill="rgba(0,0,0,0)" cursor="pointer"><title>Silent Study Area</title></polygon><polygon points="3232,2428 3232,2858 3776,2858 3776,2428" fill="rgba(0,0,0,0)" cursor="pointer"><title>Wolfson Room</title></polygon><polygon points="1280,2304 2016,2304 2016,2768 1280,2768" fill="rgba(0,0,0,0)" cursor="pointer"><title>Reception</title></polygon><polygon points="1600,768 1600,960 1472,960 1472,768" fill="rgba(0,0,0,0)" cursor="pointer"><title>Print Zone</title></polygon><polygon points="2672,3040 2787,3040 2787,3248 2672,3248" fill="rgba(0,0,0,0)" cursor="pointer"><title>Print Zone</title></polygon><polygon points="1482,156 1900,156 1900,742 1482,742" fill="rgba(0,0,0,0)" cursor="pointer"><title>PC Availability</title></polygon><polygon points="1912,156 2442,156 2442,742 1912,742" fill="rgba(0,0,0,0)" cursor="pointer"><title>PC Availability</title></polygon><polygon points="2016,2416 2144,2416 2144,2640 2016,2640" fill="rgba(0,0,0,0)" cursor="pointer"><title>Self Issue Units</title></polygon><polygon points="2672,3040 2672,3248 2528,3248 2528,3040" fill="rgba(0,0,0,0)" cursor="pointer"><title>Self Issue Units</title></polygon><polygon points="1578,2973 1690,2973 1690,3094 1578,3094" fill="rgba(0,0,0,0)" cursor="pointer"><title>Print Zone</title></polygon><polygon points="1578,2864 1690,2864 1690,2973 1578,2973" fill="rgba(0,0,0,0)" cursor="pointer"><title>Self Issue Units</title></polygon><polygon points="3040,2880 3232,2880 3232,3072 3040,3072" fill="rgba(0,0,0,0)" cursor="pointer"><title>Laptop Locker Availability</title></polygon><polygon points="2772,2608 3032,2608 3032,2864 2772,2864" fill="rgba(0,0,0,0)" cursor="pointer"><title>Group Study Room 2</title></polygon><polygon points="634,1962 1014,1962 1014,2154 634,2154" fill="rgba(0,0,0,0)" cursor="pointer"><title>Book Return</title></polygon></svg>