<svg viewBox="0,0,5000,3460" width="50%" xmlns="http://www.w3.org/2000/svg" xmlns:xlink="http://www.w3.org/1999/xlink"><image xlink:href="https://floorplans.library.leeds.ac.uk//assets/images/laidlaw-third.png"/><polygon points="2872,2676 2898,2676 2897,2391 2872,2391" fill="rgba(0,0,0,0)" cursor="pointer"><title>Transport</title></polygon><polygon points="2871,3148 2897,3148 2897,2676 2872,2676" fill="rgba(0,0,0,0)" cursor="pointer"><title>Zoology</title></polygon><polygon points="2899,3148 2923,3148 2922,2391 2898,2391" fill="rgba(0,0,0,0)" cursor="pointer"><title>Theology</title></polygon><polygon points="3021,3148 3047,3148 3047,2676 3021,2677" fill="rgba(0,0,0,0)" cursor="pointer"><title>Theology</title></polygon><polygon points="3047,3148 3073,3147 3073,2391 3020,2391 3021,2676 3047,2676" fill="rgba(0,0,0,0)" cursor="pointer"><title>Theatre</title></polygon><polygon points="3171,3148 3197,3149 3197,2677 3223,2676 3222,2390 3171,2390" fill="rgba(0,0,0,0)" cursor="pointer"><title>Theatre</title></polygon><polygon points="3197,3149 3223,3148 3223,2676 3197,2676" fill="rgba(0,0,0,0)" cursor="pointer"><title>Textiles</title></polygon><polygon points="3320,3148 3346,3149 3346,2391 3320,2391" fill="rgba(0,0,0,0)" cursor="pointer"><title>Sports Science</title></polygon><polygon points="3347,2676 3373,2676 3374,2390 3348,2389" fill="rgba(0,0,0,0)" cursor="pointer"><title>Spanish</title></polygon><polygon points="3346,3149 3372,3149 3373,2675 3347,2675" fill="rgba(0,0,0,0)" cursor="pointer"><title>Sociology</title></polygon><polygon points="3470,3148 3522,3147 3522,2482 3470,2482" fill="rgba(0,0,0,0)" cursor="pointer"><title>Sociology</title></polygon><polygon points="3619,3148 3673,3148 3672,2388 3619,2388" fill="rgba(0,0,0,0)" cursor="pointer"><title>Sociology</title></polygon><polygon points="3769,3148 3822,3148 3823,2389 3768,2389" fill="rgba(0,0,0,0)" cursor="pointer"><title>Sociology</title></polygon><polygon points="3918,3148 3971,3148 3971,2389 3918,2390" fill="rgba(0,0,0,0)" cursor="pointer"><title>Sociology</title></polygon><polygon points="4068,3148 4094,3149 4094,2954 4068,2954" fill="rgba(0,0,0,0)" cursor="pointer"><title>Sociology</title></polygon><polygon points="4096,3148 4121,3148 4121,2390 4068,2391 4067,2955 4095,2954" fill="rgba(0,0,0,0)" cursor="pointer"><title>Social Policy</title></polygon><polygon points="2934,1026 2985,1041 3109,573 3057,560" fill="rgba(0,0,0,0)" cursor="pointer"><title>Reshelving Area</title></polygon><polygon points="3079,1064 3131,1079 3253,612 3202,598" fill="rgba(0,0,0,0)" cursor="pointer"><title>Philosophy</title></polygon><polygon points="3223,1102 3276,1117 3398,651 3347,637" fill="rgba(0,0,0,0)" cursor="pointer"><title>Philosophy</title></polygon><polygon points="3492,677 3420,952 3444,957 3516,684" fill="rgba(0,0,0,0)" cursor="pointer"><title>Philosophy</title></polygon><polygon points="3393,1051 3420,954 3445,961 3492,781 3517,788 3444,1063" fill="rgba(0,0,0,0)" cursor="pointer"><title>Physics</title></polygon><polygon points="3493,778 3516,785 3542,691 3517,684" fill="rgba(0,0,0,0)" cursor="pointer"><title>Politics</title></polygon><polygon points="3571,1195 3623,1209 3746,742 3694,729" fill="rgba(0,0,0,0)" cursor="pointer"><title>Politics</title></polygon><polygon points="3716,1233 3768,1247 3890,780 3840,767" fill="rgba(0,0,0,0)" cursor="pointer"><title>Politics</title></polygon><polygon points="3861,1270 3912,1285 4035,819 3984,805" fill="rgba(0,0,0,0)" cursor="pointer"><title>Politics</title></polygon><polygon points="4088,1235 4139,1248 4238,871 4187,859" fill="rgba(0,0,0,0)" cursor="pointer"><title>Politics</title></polygon><polygon points="4209,1362 4260,1376 4383,909 4332,895" fill="rgba(0,0,0,0)" cursor="pointer"><title>Politics</title></polygon><polygon points="4354,1401 4405,1414 4528,948 4476,933" fill="rgba(0,0,0,0)" cursor="pointer"><title>Politics</title></polygon><polygon points="4622,975 4645,982 4550,1347 4575,1354 4549,1451 4499,1436" fill="rgba(0,0,0,0)" cursor="pointer"><title>Politics</title></polygon><polygon points="4550,1346 4575,1353 4598,1264 4574,1258" fill="rgba(0,0,0,0)" cursor="pointer"><title>Portuguese</title></polygon><polygon points="4574,1257 4598,1263 4622,1174 4598,1167" fill="rgba(0,0,0,0)" cursor="pointer"><title>Semitic</title></polygon><polygon points="4597,1167 4622,1173 4671,988 4646,981" fill="rgba(0,0,0,0)" cursor="pointer"><title>Slavonic</title></polygon><polygon points="1744,1604 1744,2092 2040,2092 2044,1608" fill="rgba(0,0,0,0)" cursor="pointer"><title>Group Room 8</title></polygon><polygon points="1744,1120 2044,1120 2044,1540 1744,1544" fill="rgba(0,0,0,0)" cursor="pointer"><title>Print, Copy, Scan</title></polygon><polygon points="3952,1692 4428,1692 4480,2080 3924,2096" fill="rgba(0,0,0,0)" cursor="pointer"><title>Silent study area 1</title></polygon><polygon points="892,191 935,190 936,178 999,171 997,146 1707,92 1707,116 1662,119 1660,852 1726,861 1739,889 1738,1521 1730,1524 1728,2114 1738,2117 1738,2378 1659,2382 1662,2772 1728,2773 1729,3020 1877,3021 1879,3081 1845,3082 1844,3129 1468,3132 1377,3130 1377,2414 1330,2414 1327,2450 1135,2446 1134,2219 1205,2217 1202,2152 1202,1745 1086,1741 1084,1779 894,1778 889,1550 958,1546 960,1076 843,1076 842,1111 651,1109 649,486 841,485 840,493 891,494 892,193" fill="rgba(0,0,0,0)" cursor="pointer"><title>Silent study area 2</title></polygon><polygon points="2080,1536 2240,1536 2240,1120 2080,1120" fill="rgba(0,0,0,0)" cursor="pointer"><title>PC Availability</title></polygon><polygon points="1747,520 1747,870 2093,870 2093,520" fill="rgba(0,0,0,0)" cursor="pointer"><title>Accessible Student Study 2</title></polygon></svg>