<svg viewBox="0,0,5000,2585" width="50%" xmlns="http://www.w3.org/2000/svg" xmlns:xlink="http://www.w3.org/1999/xlink"><image xlink:href="https://floorplans.library.leeds.ac.uk//assets/images/laidlaw-first.png"/><polygon points="682,134 685,160 1147,123 1145,97" fill="rgba(0,0,0,0)" cursor="pointer"><title>Reshelving Area (Silent Study Area)</title></polygon><polygon points="654,210 654,249 1153,249 1153,210" fill="rgba(0,0,0,0)" cursor="pointer"><title>Education</title></polygon><polygon points="654,321 654,362 1153,362 1153,321" fill="rgba(0,0,0,0)" cursor="pointer"><title>Education</title></polygon><polygon points="654,434 654,473 1153,473 1153,434" fill="rgba(0,0,0,0)" cursor="pointer"><title>Education</title></polygon><polygon points="654,548 654,585 1153,585 1153,548" fill="rgba(0,0,0,0)" cursor="pointer"><title>Economics</title></polygon><polygon points="654,660 654,697 1153,697 1153,660" fill="rgba(0,0,0,0)" cursor="pointer"><title>Economics</title></polygon><polygon points="724,835 724,855 800,855 800,875 1153,876 1153,835" fill="rgba(0,0,0,0)" cursor="pointer"><title>Economics</title></polygon><polygon points="724,855 800,855 800,875 724,875" fill="rgba(0,0,0,0)" cursor="pointer"><title>Computer Studies</title></polygon><polygon points="654,967 654,986 1075,986 1075,1005 1153,1005 1153,967" fill="rgba(0,0,0,0)" cursor="pointer"><title>Computer Studies</title></polygon><polygon points="654,986 654,1005 1075,1005 1075,986" fill="rgba(0,0,0,0)" cursor="pointer"><title>Communication Studies</title></polygon><polygon points="654,1080 654,1118 1153,1118 1153,1080" fill="rgba(0,0,0,0)" cursor="pointer"><title>Communication Studies</title></polygon><polygon points="654,1192 654,1210 797,1210 797,1192" fill="rgba(0,0,0,0)" cursor="pointer"><title>Communication Studies</title></polygon><polygon points="797,1192 797,1210 866,1210 866,1192" fill="rgba(0,0,0,0)" cursor="pointer"><title>Colour Chemistry</title></polygon><polygon points="866,1192 866,1230 1153,1230 1153,1191" fill="rgba(0,0,0,0)" cursor="pointer"><title>Civil Engineering</title></polygon><polygon points="797,1210 797,1230 866,1230 866,1210" fill="rgba(0,0,0,0)" cursor="pointer"><title>Chinese</title></polygon><polygon points="654,1210 654,1230 797,1230 797,1210" fill="rgba(0,0,0,0)" cursor="pointer"><title>Chemistry</title></polygon><polygon points="654,1304 654,1323 866,1323 866,1304" fill="rgba(0,0,0,0)" cursor="pointer"><title>Chemistry</title></polygon><polygon points="866,1304 866,1323 1006,1323 1006,1304" fill="rgba(0,0,0,0)" cursor="pointer"><title>Chemical Engineering</title></polygon><polygon points="1006,1304 1006,1323 1075,1323 1075,1304" fill="rgba(0,0,0,0)" cursor="pointer"><title>Botany</title></polygon><polygon points="1075,1304 1075,1341 1153,1341 1153,1304" fill="rgba(0,0,0,0)" cursor="pointer"><title>Bibliography</title></polygon><polygon points="1006,1323 1006,1341 1075,1341 1075,1323" fill="rgba(0,0,0,0)" cursor="pointer"><title>Astronomy</title></polygon><polygon points="654,1323 654,1341 1006,1341 1006,1323" fill="rgba(0,0,0,0)" cursor="pointer"><title>Art</title></polygon><polygon points="654,1416 654,1435 797,1435 797,1454 1012,1454 1012,1416" fill="rgba(0,0,0,0)" cursor="pointer"><title>Art</title></polygon><polygon points="1072,1416 1072,1454 1153,1454 1153,1416" fill="rgba(0,0,0,0)" cursor="pointer"><title>Art</title></polygon><polygon points="654,1435 654,1454 797,1454 797,1435" fill="rgba(0,0,0,0)" cursor="pointer"><title>Architecture</title></polygon><polygon points="654,1528 654,1548 727,1548 727,1528" fill="rgba(0,0,0,0)" cursor="pointer"><title>Archaeology</title></polygon><polygon points="727,1528 727,1548 866,1548 866,1528" fill="rgba(0,0,0,0)" cursor="pointer"><title>Applied Biology</title></polygon><polygon points="866,1528 866,1548 936,1548 936,1528" fill="rgba(0,0,0,0)" cursor="pointer"><title>Anthropology</title></polygon><polygon points="654,1548 654,1567 1153,1567 1153,1528 936,1528 936,1548" fill="rgba(0,0,0,0)" cursor="pointer"><title>Ancient History</title></polygon><polygon points="2173,766 2192,770 2279,427 2261,424" fill="rgba(0,0,0,0)" cursor="pointer"><title>Reshelving Area (Group Study Area)</title></polygon><polygon points="2192,770 2213,775 2262,569 2244,564" fill="rgba(0,0,0,0)" cursor="pointer"><title>Electrical Engineering</title></polygon><polygon points="2244,564 2262,569 2298,433 2279,427" fill="rgba(0,0,0,0)" cursor="pointer"><title>Engineering</title></polygon><polygon points="2281,793 2318,802 2405,459 2369,450" fill="rgba(0,0,0,0)" cursor="pointer"><title>English</title></polygon><polygon points="2389,820 2426,829 2513,486 2476,476" fill="rgba(0,0,0,0)" cursor="pointer"><title>English</title></polygon><polygon points="2514,781 2551,790 2621,513 2585,503" fill="rgba(0,0,0,0)" cursor="pointer"><title>English</title></polygon><polygon points="2648,886 2685,894 2772,552 2734,542" fill="rgba(0,0,0,0)" cursor="pointer"><title>English</title></polygon><polygon points="2756,912 2793,922 2880,580 2843,569" fill="rgba(0,0,0,0)" cursor="pointer"><title>English</title></polygon><polygon points="2863,940 2901,949 2918,878 2900,873 2969,601 2952,596" fill="rgba(0,0,0,0)" cursor="pointer"><title>Food</title></polygon><polygon points="2900,873 2918,878 2988,606 2969,601" fill="rgba(0,0,0,0)" cursor="pointer"><title>French</title></polygon><polygon points="3031,913 3068,922 3086,850 3068,845 3120,640 3101,635" fill="rgba(0,0,0,0)" cursor="pointer"><title>French</title></polygon><polygon points="3068,845 3086,850 3103,783 3085,778" fill="rgba(0,0,0,0)" cursor="pointer"><title>Fuel</title></polygon><polygon points="3085,778 3103,783 3139,645 3120,640" fill="rgba(0,0,0,0)" cursor="pointer"><title>General Biology</title></polygon><polygon points="3122,1007 3159,1015 3247,672 3209,662" fill="rgba(0,0,0,0)" cursor="pointer"><title>General Biology</title></polygon><polygon points="3229,1033 3267,1043 3355,700 3317,689" fill="rgba(0,0,0,0)" cursor="pointer"><title>General Biology</title></polygon><polygon points="3402,807 3421,812 3427,794 3407,788" fill="rgba(0,0,0,0)" cursor="pointer"><title>General Languages</title></polygon><polygon points="3407,788 3427,794 3444,722 3425,717" fill="rgba(0,0,0,0)" cursor="pointer"><title>General Classics</title></polygon><polygon points="3427,794 3444,798 3463,726 3444,722" fill="rgba(0,0,0,0)" cursor="pointer"><title>General Science</title></polygon><polygon points="3337,1061 3375,1069 3444,798 3427,794 3421,812 3402,807" fill="rgba(0,0,0,0)" cursor="pointer"><title>General Literature</title></polygon><polygon points="3902,1629 3921,1634 3973,1415 3953,1409" fill="rgba(0,0,0,0)" cursor="pointer"><title>Skills</title></polygon><polygon points="2056,732 2156,756 2240,396 3476,716 3392,1064 4000,1224 4056,1028 3588,912 3700,500 2216,120" fill="rgba(0,0,0,0)" cursor="pointer"><title>Group Study Area</title></polygon><polygon points="2929,1172 3471,1295 3393,1653 2848,1527" fill="rgba(0,0,0,0)" cursor="pointer"><title>Group Booths</title></polygon><polygon points="2030,1812 3342,1812 3344,2554 2030,2554" fill="rgba(0,0,0,0)" cursor="pointer"><title>Teaching Rooms</title></polygon><polygon points="102,184 620,164 638,1580 1164,1582 1162,188 662,190 1234,98 1232,656 1280,666 1282,1782 1224,1780 1228,2102 1280,2108 1280,2252 1386,2268 1368,2550 950,2544" fill="rgba(0,0,0,0)" cursor="pointer"><title>Silent Study Area</title></polygon><polygon points="3904,1796 4300,1796 4300,2546 3902,2538" fill="rgba(0,0,0,0)" cursor="pointer"><title>Silent Study Area</title></polygon><polygon points="4184,590 4968,786 4810,1376 4034,1174" fill="rgba(0,0,0,0)" cursor="pointer"><title>Footsteps Fund Room</title></polygon><polygon points="4030,1190 4808,1404 4710,1788 3902,1766" fill="rgba(0,0,0,0)" cursor="pointer"><title>Skills@Library Zone</title></polygon><polygon points="3478,1301 3951,1401 3895,1630 3427,1524" fill="rgba(0,0,0,0)" cursor="pointer"><title>Skills Meeting Pods</title></polygon><polygon points="1296,832 1530,828 1530,1136 1298,1134" fill="rgba(0,0,0,0)" cursor="pointer"><title>Print, Scan, Copy</title></polygon><polygon points="1536,1120 1696,1120 1696,832 1536,832" fill="rgba(0,0,0,0)" cursor="pointer"><title>PC Availability</title></polygon></svg>