<svg viewBox="0 0 928 1094" xmlns="http://www.w3.org/2000/svg"><path d="M873 1047H56a56 56 0 0 1-56-56V103a56 56 0 0 1 56-56h817a56 56 0 0 1 55 56v888a56 56 0 0 1-55 56zM343 114H90a22 22 0 0 0-23 22v822a22 22 0 0 0 23 22h253zm170 0H411v866h102zm348 22a22 22 0 0 0-22-22H581v866h258a22 22 0 0 0 22-22zM747 672a34 34 0 0 1-28 15 33 33 0 0 1-21-8h-1q0-1-1-1c0-1-1-1-1-1l-63-64a34 34 0 1 1 47-47l7 6V443a34 34 0 0 1 33-34 34 34 0 0 1 34 34v128l5-5a34 34 0 0 1 48 47zM177 423a34 34 0 0 1 49-7c1 0 1 0 1 1h1c0 1 1 1 1 1l63 64a34 34 0 0 1-47 47l-7-6v129a34 34 0 0 1-67 0V524l-5 5a34 34 0 0 1-48-47z"/></svg>