<svg viewBox="0 0 1000 1094" xmlns="http://www.w3.org/2000/svg"><path d="M0 547V47h1000v1000H0zm570 457c20-18 41-34 48-37s25-5 50-5h38l-37 34c-19 19-36 36-36 37 0 2 24 3 53 3h53l32-32 33-33V554h-66c-52 0-68-1-74-5-4-3-20-21-34-41-15-19-28-35-30-35-1 0-14 26-28 57l-27 58 87 176c48 97 87 177 87 178s-19 1-43 1c-36-1-44-3-52-9s-31-47-76-136c-36-70-70-135-76-145l-10-19-9 80c-4 44-10 84-12 88-10 18-15 19-176 19H114l3-8c6-19 17-37 29-46 24-18 42-21 131-23 55-1 83-3 86-6 1-2 5-31 7-63 8-108 10-118 46-188 18-34 32-63 32-64s-18-2-39-1l-40 1-32 53c-21 36-36 55-42 59-15 7-34 3-42-9-12-18-8-30 31-93 49-81 34-75 183-75 105 0 118 1 131 7 17 8 28 20 74 79l34 44h98V110H200v617l-15 3c-22 3-49 19-63 35-7 8-19 29-26 46l-14 30 57 1 57 1v132l-30 30-31 31h400l35-32zm-9-669c-30-11-46-34-46-68 0-23 3-31 18-47 14-16 27-21 50-21 38 0 65 22 71 57 8 53-43 97-93 79z"/></svg>