<svg viewBox="0 0 905 1094" xmlns="http://www.w3.org/2000/svg"><path d="M135 912C47 824 0 776 0 771c0-8 81-89 93-93 20-8 52-1 60 13 3 4 49-22 60-33 3-4 9-13 12-20 4-11 4-18-1-81-8-106-11-90 72-305 42-107 73-184 77-188 12-12 23-17 41-17 11 0 20 2 28 7l10 6 14-6c8-4 19-7 26-7 15 0 34 10 42 21 4 5 32 75 63 156 31 80 62 158 68 173 20 50 21 69 16 154-6 76-5 86 5 102 5 7 55 40 60 40 1 0 7-3 13-7 15-10 31-13 48-8 11 3 21 11 55 45 32 31 43 44 43 50s-30 38-133 141c-118 117-134 133-143 133-8 0-16-6-50-41-22-22-42-44-44-49-7-20-3-45 11-59l7-8-9-7c-48-40-63-54-75-70-7-10-14-20-14-21 0-6-5-3-8 5-6 11-48 55-72 73-22 17-25 21-16 28 13 10 18 42 10 58-6 13-87 91-93 91-5 0-53-46-141-135zm694-171c-18-18-34-32-38-32-9 0-224 219-224 229 0 3 14 19 31 37l31 31 116-117 117-116zM308 973c24-24 30-32 30-39 0-8-17-26-108-117-84-84-109-108-115-108s-17 9-40 32l-32 32 115 115c63 63 116 114 118 114s16-13 32-29zm40-127c31-25 63-57 70-70 19-38 21-109 5-187-12-63-12-85 0-161 6-33 10-64 10-70 0-21-26-33-41-18-5 5-22 54-48 139-8 24-18 33-30 27-4-2-9-6-10-9-2-8 48-164 56-176 3-5 11-11 17-14l11-6 23-101c22-98 23-102 18-110-7-10-21-11-28-2-8 8-139 349-143 370-3 15-2 36 2 93 2 41 4 79 3 85-6 29-24 51-57 70-10 6-19 12-20 13-2 4 135 143 139 143 2 0 12-7 23-16zm303-53c38-38 69-70 69-71s-10-8-22-15c-29-18-47-37-53-60-5-16-5-23 0-93 4-57 4-81 2-94-5-29-138-369-146-374-9-6-23-3-27 7-3 6 1 26 20 108l23 100 11 8c6 4 14 11 17 15s18 44 32 89c24 77 25 81 20 88-5 8-16 10-24 4-3-2-16-39-30-81-19-60-26-78-32-83-10-9-20-9-31-1-11 9-11 14 1 90 13 76 13 103 1 154-11 50-14 129-6 160 10 40 20 52 73 97 14 12 27 21 29 21s34-31 73-69zM455 514c0-21-1-34-3-34-3 0-4 61-1 65 4 4 4 2 4-31zm11-207l14-8-13-58c-7-31-14-57-15-57s-7 25-14 56l-13 57 10 5c6 4 11 7 12 9 3 4 2 5 19-4z"/></svg>