<svg viewBox="0 0 1058.3663 1094" xmlns="http://www.w3.org/2000/svg"><path d="M611.17 1043c-16-6-32-23-36-41-3-11-3-17 1-34 10-42 53-252 52-254-1-4-139-125-142-125-1 0-29 32-62 70-51 60-61 70-68 70-5 0-78 3-163 5l-155 6-11-9c-28-21-35-55-18-81 17-24 15-24 143-26 108-1 114-2 122-8 7-5 301-342 300-344-1 0-17-1-36-2l-35-2-63 67c-37 40-65 73-69 81-14 33-51 43-77 21-17-14-23-39-14-58 2-5 44-52 93-104l89-95 113-3 114-2 78 58c73 54 78 59 79 70 1 6 4 30 5 52 2 23 5 46 5 52l2 10 84 1c79 1 84 1 93 8 23 17 30 47 16 68-15 22-13 22-137 19l-112-2-18-8c-25-12-29-20-31-69l-2-39-52 61-52 61 56 56c31 31 57 59 59 63s4 13 4 20c0 12-77 340-84 357-4 12-22 27-36 31-16 4-19 4-35-1zm190-815c-19-7-43-30-52-50-15-35-6-83 22-107 21-19 35-24 65-24 24 0 28 1 44 9 19 11 39 34 45 52 7 21 5 52-5 72-10 21-32 41-52 48-18 6-49 6-67 0z"/></svg>