<svg viewBox="0 0 986.2495 1094" xmlns="http://www.w3.org/2000/svg"><path d="M194 214c45 0 81-36 81-81s-36-81-81-81-81 36-81 81 36 81 81 81zm90 21c57 0 104 46 104 104v251c0 20-15 36-35 36s-36-16-36-36V363h-18v632c0 26-21 47-48 47-26 0-47-21-47-47V628h-20v367c0 26-21 47-47 47-27 0-48-21-48-47V363H71v227c0 20-16 36-36 36S0 610 0 590V339c0-58 47-104 104-104zm471-24c-46 0-83-37-83-82s37-82 83-82c45 0 82 37 82 82s-37 82-82 82zm0 0c-22 0-43-8-59-24-16-15-24-36-24-58s8-42 24-58 37-24 59-24c45 0 82 37 82 82s-37 82-82 82zm0-164c-22 0-43 9-59 24-15 16-24 36-24 58s9 42 24 58c16 15 37 24 59 24 45 0 82-37 82-82s-37-82-82-82zm-63 182s-76-3-102 88l-65 226c-7 22 5 38 24 43 18 5 37-4 42-21l63-221h17L562 727h103v281c0 21 18 39 41 39 19 0 40-20 40-41V727h17v279c0 21 21 41 40 41 23 0 41-18 41-39V727h103L838 344h17l63 221c5 17 24 26 42 21 19-5 31-21 24-43l-65-226c-26-91-102-88-102-88zm111 818c-9 0-19-5-27-13-9-8-13-18-13-28V727h-17v279c0 10-4 20-13 28-8 8-18 13-27 13-11 0-21-4-29-12-8-7-12-17-12-27V727H562l109-383h-17l-63 221c-2 8-8 15-16 19s-17 5-26 2c-10-3-18-8-22-16-5-8-5-17-2-27l65-226c6-21 15-38 27-52 9-11 20-20 33-26 22-11 41-10 42-10h125c1 0 20-1 42 10 13 6 24 15 34 26 11 14 21 31 26 52l66 226c2 10 2 19-3 27-4 8-12 13-22 16-9 3-19 2-27-3-8-4-13-10-15-18l-63-221h-17l110 383H844v281c0 10-4 20-12 27-8 8-18 12-29 12zm-40-41c0 10 5 20 13 28s18 13 27 13c11 0 21-4 29-12 8-7 12-17 12-27V727h103L837 344h18l63 221c2 8 8 14 15 18 8 5 18 6 27 3 10-3 18-9 22-17 4-7 5-16 2-26l-65-226c-6-21-15-38-27-52-9-11-21-20-33-26-22-10-41-10-41-10H692c-1 0-20 0-42 10-12 6-24 15-33 26-12 14-21 31-27 52l-65 226c-3 10-2 19 2 27 4 7 12 13 22 16 9 2 18 2 26-2s13-11 16-19l63-221h18L562 727h103v281c0 10 5 20 12 27 8 8 18 12 29 12 9 0 19-5 27-13s13-18 13-28V727h17v279z"/></svg>