<svg viewBox="0 0 1000.367 1094" xmlns="http://www.w3.org/2000/svg"><path d="M2.367 254a31 31 0 0 1 41-17l110 44a94 94 0 0 0 69 0l64-26a156 156 0 0 1 116 0l63 26a94 94 0 0 0 70 0l63-26a156 156 0 0 1 116 0l64 26a94 94 0 0 0 69 0l110-44a31 31 0 1 1 23 58l-109 44a156 156 0 0 1-117 0l-63-26a94 94 0 0 0-70 0l-63 26a156 156 0 0 1-116 0l-63-26a94 94 0 0 0-70 0l-63 26a156 156 0 0 1-117 0l-109-44a31 31 0 0 1-18-41m0 188a31 31 0 0 1 41-18l110 44a94 94 0 0 0 69 0l64-25a156 156 0 0 1 116 0l63 25a94 94 0 0 0 70 0l63-25a156 156 0 0 1 116 0l64 25a94 94 0 0 0 69 0l110-44a31 31 0 1 1 23 58l-109 44a156 156 0 0 1-117 0l-63-25a94 94 0 0 0-70 0l-63 25a156 156 0 0 1-116 0l-63-25a94 94 0 0 0-70 0l-63 25a156 156 0 0 1-117 0l-109-44a31 31 0 0 1-18-40m0 187a31 31 0 0 1 41-17l110 44a94 94 0 0 0 69 0l64-26a156 156 0 0 1 116 0l63 26a94 94 0 0 0 70 0l63-26a156 156 0 0 1 116 0l64 26a94 94 0 0 0 69 0l110-44a31 31 0 1 1 23 58l-109 44a156 156 0 0 1-117 0l-63-26a94 94 0 0 0-70 0l-63 26a156 156 0 0 1-116 0l-63-26a94 94 0 0 0-70 0l-63 26a156 156 0 0 1-117 0l-109-44a31 31 0 0 1-18-41m0 188a31 31 0 0 1 41-18l110 44a94 94 0 0 0 69 0l64-25a156 156 0 0 1 116 0l63 25a94 94 0 0 0 70 0l63-25a156 156 0 0 1 116 0l64 25a94 94 0 0 0 69 0l110-44a31 31 0 1 1 23 58l-109 44a156 156 0 0 1-117 0l-63-25a94 94 0 0 0-70 0l-63 25a156 156 0 0 1-116 0l-63-25a94 94 0 0 0-70 0l-63 25a156 156 0 0 1-117 0l-109-44a31 31 0 0 1-18-40"/></svg>