<?xml version="1.0" standalone="no"?>
<!DOCTYPE svg PUBLIC "-//W3C//DTD SVG 1.1//EN" "http://www.w3.org/Graphics/SVG/1.1/DTD/svg11.dtd" >
<svg xmlns="http://www.w3.org/2000/svg" xmlns:xlink="http://www.w3.org/1999/xlink" version="1.1" viewBox="0 0 1071.4 1094">
   <path fill="currentColor" d="M214 940v-72q0-14-10-25t-25-10h-72q-14 0-25 10t-11 25v72q0 14 11 25t25 11h72q14 0 25-11t10-25zm0-214v-72q0-14-10-25t-25-11h-72q-14 0-25 11t-11 25v72q0 14 11 25t25 10h72q14 0 25-10t10-25zm0-215v-71q0-15-10-25t-25-11h-72q-14 0-25 11t-11 25v71q0 15 11 25t25 11h72q14 0 25-11t10-25zm572 429V654q0-14-11-25t-25-11H321q-14 0-25 11t-10 25v286q0 14 10 25t25 11h429q15 0 25-11t11-25zM214 297v-71q0-15-10-26t-25-10h-72q-14 0-25 10t-11 26v71q0 14 11 25t25 11h72q14 0 25-11t10-25zm786 643v-72q0-14-11-25t-25-10h-71q-15 0-25 10t-11 25v72q0 14 11 25t25 11h71q15 0 25-11t11-25zM786 511V226q0-15-11-26t-25-10H321q-14 0-25 10t-10 26v285q0 15 10 25t25 11h429q15 0 25-11t11-25zm214 215v-72q0-14-11-25t-25-11h-71q-15 0-25 11t-11 25v72q0 14 11 25t25 10h71q15 0 25-10t11-25zm0-215v-71q0-15-11-25t-25-11h-71q-15 0-25 11t-11 25v71q0 15 11 25t25 11h71q15 0 25-11t11-25zm0-214v-71q0-15-11-26t-25-10h-71q-15 0-25 10t-11 26v71q0 14 11 25t25 11h71q15 0 25-11t11-25zm71-89v750q0 37-26 63t-63 26H89q-36 0-63-26T0 958V208q0-37 26-63t63-27h893q37 0 63 27t26 63z"/>
</svg>