<?xml version="1.0" standalone="no"?>
<!DOCTYPE svg PUBLIC "-//W3C//DTD SVG 1.1//EN" "http://www.w3.org/Graphics/SVG/1.1/DTD/svg11.dtd" >
<svg xmlns="http://www.w3.org/2000/svg" xmlns:xlink="http://www.w3.org/1999/xlink" version="1.1" viewBox="-11 0 485 1000">
   <path fill="currentColor"
d="M232 164q-34 0 -58.5 -24t-24.5 -58t24.5 -58t58.5 -24t58 24t24 58t-24 58t-58 24zM169 182q-3 0 -8.5 0.5t-20 4.5t-27 12.5t-26 27t-20.5 43.5l-65 226q-5 16 2 27.5t22 15.5q14 4 26 -2t16 -19l63 -221h18l-110 383h103v0v281q0 16 12 27.5t29 11.5q15 0 27.5 -12.5
t12.5 -28.5v0v-279h17v279v0q0 15 13 28t27 13q17 0 29 -11.5t12 -27.5v-281v0h104l-110 -383h17l63 221q4 13 16.5 19t26.5 2t21 -15.5t3 -27.5l-66 -226q-12 -40 -37 -62t-44.5 -24l-19.5 -2h-126z" />
</svg>
