<?xml version="1.0" standalone="no"?>
<!DOCTYPE svg PUBLIC "-//W3C//DTD SVG 1.1//EN" "http://www.w3.org/Graphics/SVG/1.1/DTD/svg11.dtd" >
<svg xmlns="http://www.w3.org/2000/svg" xmlns:xlink="http://www.w3.org/1999/xlink" version="1.1" viewBox="-11 0 1021 1000">
   <path fill="currentColor"
d="M2 207q7.79492 -19.5234 28.8027 -19.5234q6.30762 0 12.1973 2.52344l110 44q16.5312 6.52246 34.4482 6.52246q18.0205 0 34.5518 -6.52246l64 -26q27.7617 -11.1191 57.9092 -11.1191q30.3291 0 58.0908 11.1191l63 26q16.751 6.71973 34.9443 6.71973
q18.3047 0 35.0557 -6.71973l63 -26q27.7617 -11.1191 57.9092 -11.1191q30.3291 0 58.0908 11.1191l64 26q16.5312 6.52246 34.4482 6.52246q18.0205 0 34.5518 -6.52246l110 -44q5.50879 -2.18457 11.4824 -2.18457q12.9131 0 22.0557 9.1416
q9.1416 9.1416 9.1416 22.0557q0 21.1836 -19.6797 28.9873l-109 44q-27.9805 11.3184 -58.4053 11.3184q-30.6143 0 -58.5947 -11.3184l-63 -26q-16.751 -6.71973 -34.9443 -6.71973q-18.3047 0 -35.0557 6.71973l-63 26q-27.7617 11.1191 -57.9092 11.1191
q-30.3291 0 -58.0908 -11.1191l-63 -26q-16.751 -6.71973 -34.9443 -6.71973q-18.3047 0 -35.0557 6.71973l-63 26q-27.9805 11.3184 -58.4053 11.3184q-30.6143 0 -58.5947 -11.3184l-109 -44q-20.3789 -7.44141 -20.3789 -29.1299q0 -6.1377 2.37891 -11.8701zM2 395
q7.44141 -20.3789 29.1299 -20.3789q6.1377 0 11.8701 2.37891l110 44q16.5312 6.52246 34.4482 6.52246q18.0205 0 34.5518 -6.52246l64 -25q27.7617 -11.1191 57.9092 -11.1191q30.3291 0 58.0908 11.1191l63 25q16.751 6.71973 34.9443 6.71973
q18.3047 0 35.0557 -6.71973l63 -25q27.7617 -11.1191 57.9092 -11.1191q30.3291 0 58.0908 11.1191l64 25q16.5312 6.52246 34.4482 6.52246q18.0205 0 34.5518 -6.52246l110 -44q5.50879 -2.18457 11.4824 -2.18457q12.9131 0 22.0557 9.1416
q9.1416 9.1416 9.1416 22.0557q0 21.1836 -19.6797 28.9873l-109 44q-27.9805 11.3184 -58.4053 11.3184q-30.6143 0 -58.5947 -11.3184l-63 -25q-16.751 -6.71973 -34.9443 -6.71973q-18.3047 0 -35.0557 6.71973l-63 25q-27.7617 11.1191 -57.9092 11.1191
q-30.3291 0 -58.0908 -11.1191l-63 -25q-16.751 -6.71973 -34.9443 -6.71973q-18.3047 0 -35.0557 6.71973l-63 25q-27.9805 11.3184 -58.4053 11.3184q-30.6143 0 -58.5947 -11.3184l-109 -44q-20.0352 -7.58789 -20.0352 -29.002q0 -5.6416 2.03516 -10.998zM2 582
q7.79492 -19.5234 28.8027 -19.5234q6.30762 0 12.1973 2.52344l110 44q16.5312 6.52246 34.4482 6.52246q18.0205 0 34.5518 -6.52246l64 -26q27.7617 -11.1191 57.9092 -11.1191q30.3291 0 58.0908 11.1191l63 26q16.751 6.71973 34.9443 6.71973
q18.3047 0 35.0557 -6.71973l63 -26q27.7617 -11.1191 57.9092 -11.1191q30.3291 0 58.0908 11.1191l64 26q16.5312 6.52246 34.4482 6.52246q18.0205 0 34.5518 -6.52246l110 -44q5.50879 -2.18457 11.4824 -2.18457q12.9131 0 22.0557 9.1416
q9.1416 9.1416 9.1416 22.0557q0 21.1836 -19.6797 28.9873l-109 44q-27.9805 11.3184 -58.4053 11.3184q-30.6143 0 -58.5947 -11.3184l-63 -26q-16.751 -6.71973 -34.9443 -6.71973q-18.3047 0 -35.0557 6.71973l-63 26q-27.7617 11.1191 -57.9092 11.1191
q-30.3291 0 -58.0908 -11.1191l-63 -26q-16.751 -6.71973 -34.9443 -6.71973q-18.3047 0 -35.0557 6.71973l-63 26q-27.9805 11.3184 -58.4053 11.3184q-30.6143 0 -58.5947 -11.3184l-109 -44q-20.3789 -7.44141 -20.3789 -29.1299q0 -6.1377 2.37891 -11.8701zM2 770
q7.44141 -20.3789 29.1299 -20.3789q6.1377 0 11.8701 2.37891l110 44q16.5312 6.52246 34.4482 6.52246q18.0205 0 34.5518 -6.52246l64 -25q27.7617 -11.1191 57.9092 -11.1191q30.3291 0 58.0908 11.1191l63 25q16.751 6.71973 34.9443 6.71973
q18.3047 0 35.0557 -6.71973l63 -25q27.7617 -11.1191 57.9092 -11.1191q30.3291 0 58.0908 11.1191l64 25q16.5312 6.52246 34.4482 6.52246q18.0205 0 34.5518 -6.52246l110 -44q5.50879 -2.18457 11.4824 -2.18457q12.9131 0 22.0557 9.1416
q9.1416 9.1416 9.1416 22.0557q0 21.1836 -19.6797 28.9873l-109 44q-27.9805 11.3184 -58.4053 11.3184q-30.6143 0 -58.5947 -11.3184l-63 -25q-16.751 -6.71973 -34.9443 -6.71973q-18.3047 0 -35.0557 6.71973l-63 25q-27.7617 11.1191 -57.9092 11.1191
q-30.3291 0 -58.0908 -11.1191l-63 -25q-16.751 -6.71973 -34.9443 -6.71973q-18.3047 0 -35.0557 6.71973l-63 25q-27.9805 11.3184 -58.4053 11.3184q-30.6143 0 -58.5947 -11.3184l-109 -44q-20.0352 -7.58789 -20.0352 -29.002q0 -5.6416 2.03516 -10.998z" />
</svg>
